<svg xmlns="http://www.w3.org/2000/svg" xmlns:v="https://svgstorm.com"
viewBox = "0 0 1455 1759"
width="1455"
height="1759">
<g fill="None" fill-opacity="0.0" stroke="#000000" stroke-opacity="0.00" stroke-width="0.3"><path d="
M 0.00 1759.00 
L 727.00 1759.00
C 715.83 1751.00 703.28 1744.44 691.30 1737.70 C 679.33 1730.96 667.29 1723.60 655.30 1716.70 C 643.31 1709.80 630.95 1702.93 618.92 1696.08 C 606.89 1689.23 595.00 1682.14 582.92 1675.08 C 570.83 1668.02 558.43 1661.65 546.31 1654.69 C 534.18 1647.74 522.88 1640.52 510.75 1633.25 C 498.63 1625.98 485.83 1620.50 473.92 1613.08 C 462.01 1605.65 449.89 1599.14 437.77 1592.23 C 425.65 1585.32 414.04 1578.22 401.77 1571.23 C 389.50 1564.24 377.07 1557.07 364.77 1550.23 C 352.47 1543.39 340.84 1536.23 328.77 1529.23 C 316.70 1522.23 304.24 1515.61 292.26 1508.74 C 280.27 1501.87 268.27 1494.62 256.25 1487.75 C 244.24 1480.87 231.81 1474.21 219.78 1467.22 C 207.75 1460.24 195.93 1453.05 183.77 1446.23 C 171.61 1439.41 159.92 1432.37 147.77 1425.23 C 135.62 1418.09 123.43 1412.01 111.25 1404.75 C 99.07 1397.48 87.79 1391.33 75.30 1383.70 C 62.81 1376.06 51.07 1370.74 38.25 1362.75 C 25.44 1354.76 8.70 1351.63 11.00 1333.00 C 13.30 1314.37 9.96 1294.84 11.00 1276.00 C 12.04 1257.16 10.53 1237.93 11.00 1219.00 C 11.47 1200.07 10.79 1180.97 11.00 1162.00 C 11.21 1143.03 10.90 1123.99 11.00 1105.00 C 11.10 1086.01 10.96 1067.01 11.00 1048.00 C 11.04 1028.99 10.98 1010.04 11.00 991.00 C 11.02 971.96 10.99 953.09 11.00 934.00 C 11.01 914.91 11.00 895.09 11.00 876.00 C 11.00 856.91 11.00 838.04 11.00 819.00 C 11.00 799.96 11.00 781.02 11.00 762.00 C 11.00 742.98 11.00 724.01 11.00 705.00 C 11.00 685.99 11.00 667.01 11.00 648.00 C 11.00 628.99 11.00 610.01 11.00 591.00 C 11.00 571.99 11.00 553.03 11.00 534.00 C 11.00 514.97 11.00 496.06 11.00 477.00 C 11.00 457.94 11.00 439.14 11.00 420.00 C 11.00 400.86 11.00 381.19 11.00 362.00
C 488.67 362.00 966.33 362.00 1444.00 362.00
C 1444.01 478.00 1443.99 594.00 1444.00 710.00
C 1398.75 734.56 1354.35 760.47 1309.00 785.00
C 1307.24 786.09 1305.66 788.71 1303.00 788.00
C 1303.00 688.33 1303.00 588.67 1303.00 489.00
C 1289.10 485.69 1273.34 490.50 1259.00 489.00 C 1244.66 487.50 1229.57 489.70 1215.00 489.00 C 1200.43 488.30 1185.72 489.36 1171.00 489.00 C 1156.28 488.64 1140.79 489.27 1126.00 489.00
C 1125.99 624.34 1126.01 759.66 1126.00 895.00
C 1096.58 909.43 1068.90 927.68 1040.00 942.00
C 1038.67 942.85 1037.57 944.13 1036.00 945.00
C 1027.82 949.52 1019.31 955.39 1010.78 958.78 C 1002.25 962.16 994.19 971.62 985.00 973.00
C 984.54 973.07 983.11 974.85 982.00 974.00
C 982.00 968.33 982.00 962.67 982.00 957.00
C 982.00 953.33 982.00 949.67 982.00 946.00
C 982.00 940.09 981.45 933.88 982.00 928.00
C 981.10 918.71 981.00 908.00 981.00 898.00
C 981.00 888.48 981.92 878.47 981.00 869.00
C 979.18 850.23 980.00 829.52 980.00 810.00
C 980.00 753.39 977.99 697.57 978.00 641.00
C 978.00 638.67 978.00 636.33 978.00 634.00
C 977.58 629.62 977.00 624.07 977.00 619.00
C 977.00 601.76 977.39 584.94 976.00 568.00 C 974.61 551.06 977.64 532.98 976.00 516.00
C 975.83 514.25 975.05 511.40 975.00 509.00
C 974.87 502.47 974.41 495.51 975.00 489.00
C 918.00 489.02 861.00 489.00 804.00 489.00
C 804.98 499.73 803.57 510.17 804.00 521.00 C 804.43 531.83 803.81 543.08 804.00 554.00 C 804.19 564.92 803.91 576.04 804.00 587.00 C 804.09 597.96 803.96 609.03 804.00 620.00 C 804.04 630.97 803.98 642.05 804.00 653.00 C 804.02 663.95 803.99 675.09 804.00 686.00 C 804.01 696.91 804.00 707.09 804.00 718.00 C 804.00 728.91 804.00 740.04 804.00 751.00 C 804.00 761.96 804.00 773.03 804.00 784.00 C 804.00 794.97 804.01 806.03 804.00 817.00 C 803.99 827.97 804.02 839.05 804.00 850.00 C 803.98 860.95 804.03 872.11 804.00 883.00 C 803.97 893.89 804.08 904.14 804.00 915.00 C 803.92 925.86 804.16 937.16 804.00 948.00 C 803.84 958.84 804.36 970.28 804.00 981.00 C 803.64 991.72 804.80 1003.58 804.00 1014.00 C 803.20 1024.42 805.76 1037.27 804.00 1047.00 C 802.24 1056.73 808.37 1071.48 803.00 1079.00
C 798.00 1086.00 784.82 1087.04 777.77 1092.77 C 770.73 1098.50 760.07 1101.12 752.30 1106.30 C 744.54 1111.48 734.34 1115.75 726.00 1120.00
C 726.00 1174.00 726.00 1228.00 726.00 1282.00
C 741.07 1274.81 754.94 1265.72 770.00 1259.00
C 771.38 1258.08 772.32 1256.86 774.00 1256.00
C 793.75 1245.92 813.96 1230.95 835.00 1224.00
C 835.74 1223.45 836.13 1222.56 837.00 1222.00
C 852.02 1212.41 868.73 1205.10 884.25 1196.25 C 899.76 1187.40 916.54 1178.65 932.70 1170.70 C 948.85 1162.74 963.91 1150.52 981.00 1145.00
C 982.33 1144.19 983.39 1142.82 985.00 1142.00
C 1003.80 1132.36 1022.72 1122.63 1041.00 1112.00
C 1041.71 1111.59 1042.09 1111.38 1043.00 1111.00
C 1068.02 1100.50 1090.30 1083.55 1114.75 1071.75 C 1139.20 1059.95 1162.73 1045.45 1186.70 1032.70 C 1210.66 1019.94 1235.07 1006.80 1258.69 993.69 C 1282.32 980.59 1306.94 968.09 1330.00 954.00
C 1331.29 953.21 1332.65 952.67 1334.00 952.00
C 1345.54 946.28 1357.56 936.51 1370.00 933.00
C 1371.33 932.20 1372.39 930.82 1374.00 930.00
C 1397.69 917.85 1420.33 903.85 1444.00 892.00
C 1444.00 1043.67 1444.00 1195.33 1444.00 1347.00
C 1343.65 1404.15 1244.61 1463.04 1144.00 1520.00
C 1143.73 1520.18 1143.32 1520.80 1143.00 1521.00
C 1009.14 1604.04 867.30 1676.08 733.00 1759.00
L 1455.00 1759.00
L 1455.00 0.00
L 1297.00 0.00
C 1297.00 9.80 1297.00 19.15 1297.00 29.00 C 1297.00 38.85 1297.01 49.11 1297.00 59.00 C 1296.99 68.89 1297.01 79.14 1297.00 89.00 C 1296.99 98.86 1297.03 108.16 1297.00 118.00 C 1296.97 127.84 1297.06 138.18 1297.00 148.00 C 1296.94 157.82 1297.13 168.31 1297.00 178.00 C 1296.87 187.69 1297.29 197.57 1297.00 207.00 C 1296.70 216.43 1297.63 228.07 1297.00 237.00 C 1296.37 245.93 1298.39 259.29 1297.00 267.00 C 1295.61 274.71 1300.98 292.11 1295.00 295.00
C 1287.34 298.70 1275.71 293.39 1267.00 295.00 C 1258.29 296.61 1247.15 294.25 1238.00 295.00 C 1228.85 295.75 1219.38 294.67 1210.00 295.00 C 1200.62 295.33 1190.50 294.85 1181.00 295.00 C 1171.50 295.15 1161.52 294.93 1152.00 295.00 C 1142.48 295.07 1133.54 294.97 1124.00 295.00 C 1114.46 295.03 1104.58 294.99 1095.00 295.00 C 1085.42 295.01 1075.55 294.99 1066.00 295.00 C 1056.45 295.01 1047.55 295.00 1038.00 295.00 C 1028.45 295.00 1018.58 295.00 1009.00 295.00 C 999.42 295.00 989.55 295.00 980.00 295.00 C 970.45 295.00 961.55 295.00 952.00 295.00 C 942.45 295.00 932.58 295.00 923.00 295.00 C 913.42 295.00 903.55 295.00 894.00 295.00 C 884.45 295.00 875.55 295.00 866.00 295.00 C 856.45 295.00 846.58 295.00 837.00 295.00 C 827.42 295.00 817.55 295.00 808.00 295.00 C 798.45 295.00 789.55 295.00 780.00 295.00 C 770.45 295.00 760.58 295.00 751.00 295.00 C 741.42 295.00 731.54 295.00 722.00 295.00 C 712.46 295.00 703.53 295.00 694.00 295.00 C 684.47 295.00 674.53 295.00 665.00 295.00 C 655.47 295.00 646.54 295.00 637.00 295.00 C 627.46 295.00 617.58 295.00 608.00 295.00 C 598.42 295.00 588.55 295.00 579.00 295.00 C 569.45 295.00 560.55 295.00 551.00 295.00 C 541.45 295.00 531.58 295.00 522.00 295.00 C 512.42 295.00 502.55 295.00 493.00 295.00 C 483.45 295.00 474.55 295.00 465.00 295.00 C 455.45 295.00 445.58 295.00 436.00 295.00 C 426.42 295.00 416.55 295.00 407.00 295.00 C 397.45 295.00 388.55 295.00 379.00 295.00 C 369.45 295.00 359.58 295.00 350.00 295.00 C 340.42 295.00 330.55 295.00 321.00 295.00 C 311.45 295.00 302.56 295.00 293.00 295.00 C 283.45 295.00 273.59 295.00 264.00 295.00 C 254.41 295.00 244.56 295.00 235.00 295.00 C 225.44 295.00 216.57 295.00 207.00 295.00 C 197.43 295.00 187.62 295.00 178.00 295.00 C 168.38 295.00 158.63 295.00 149.00 295.00
C 149.00 197.33 149.00 99.67 149.00 2.00
C 197.67 2.00 246.33 2.00 295.00 2.00
C 299.43 6.26 294.73 17.40 296.00 24.00 C 297.27 30.60 295.42 40.67 296.00 48.00 C 296.58 55.33 295.73 64.38 296.00 72.00 C 296.27 79.62 295.88 87.22 296.00 95.00 C 296.12 102.78 295.94 111.11 296.00 119.00 C 296.06 126.89 295.95 135.09 296.00 143.00
C 311.70 139.52 328.82 144.54 345.00 143.00 C 361.18 141.46 378.59 143.70 395.00 143.00 C 411.41 142.30 428.52 143.32 445.00 143.00 C 461.48 142.68 477.47 143.14 494.00 143.00 C 510.53 142.86 527.39 143.07 544.00 143.00 C 560.61 142.93 577.37 143.03 594.00 143.00 C 610.63 142.97 627.36 143.03 644.00 143.00
C 644.00 95.67 644.00 48.33 644.00 1.00
C 644.00 0.50 644.00 0.00 644.00 0.00
L 0.00 0.00
L 0.00 1759.00 Z"/>
</g>
<g fill="None" fill-opacity="0.0" stroke="#FFB500" stroke-opacity="0.08" stroke-width="0.3"><path d="
M 644.00 1.00 
C 644.25 1.25 645.00 1.00 645.00 1.00
C 652.03 1.00 658.96 0.98 666.00 1.00 C 673.04 1.02 679.92 0.94 687.00 1.00 C 694.08 1.06 701.94 0.86 709.00 1.00 C 716.06 1.14 723.05 0.67 730.00 1.00 C 736.95 1.33 745.30 0.31 752.00 1.00 C 758.70 1.69 766.92 -0.60 773.00 1.00 C 779.08 2.60 790.14 -2.40 795.00 1.00
C 799.04 3.83 794.88 14.63 796.00 20.00 C 797.13 25.37 795.43 34.90 796.00 41.00 C 796.57 47.10 795.66 54.59 796.00 61.00 C 796.34 67.41 795.65 75.59 796.00 82.00 C 796.35 88.41 795.39 95.89 796.00 102.00 C 796.61 108.11 794.78 117.62 796.00 123.00 C 797.22 128.38 792.89 140.12 797.00 143.00
C 797.00 95.33 797.00 47.67 797.00 0.00
L 644.00 0.00
C 644.00 0.00 644.00 0.50 644.00 1.00 Z"/>
</g>
<g fill="None" fill-opacity="0.0" stroke="#000000" stroke-opacity="0.00" stroke-width="0.3"><path d="
M 797.00 143.00 
C 801.80 146.36 811.80 141.57 818.00 143.00 C 824.20 144.43 833.19 142.35 840.00 143.00 C 846.81 143.65 854.94 142.70 862.00 143.00 C 869.06 143.30 876.86 142.86 884.00 143.00 C 891.14 143.14 897.80 142.94 905.00 143.00 C 912.20 143.06 919.74 142.97 927.00 143.00 C 934.26 143.03 941.73 142.99 949.00 143.00 C 956.27 143.01 963.77 142.99 971.00 143.00 C 978.23 143.01 984.76 143.00 992.00 143.00 C 999.24 143.00 1006.72 143.00 1014.00 143.00 C 1021.28 143.00 1028.72 143.00 1036.00 143.00 C 1043.28 143.00 1050.76 143.00 1058.00 143.00 C 1065.24 143.00 1071.76 143.00 1079.00 143.00 C 1086.25 143.00 1093.71 143.00 1101.00 143.00 C 1108.29 143.00 1115.69 143.00 1123.00 143.00 C 1130.31 143.00 1137.68 143.00 1145.00 143.00
C 1140.64 95.74 1148.27 47.37 1145.00 0.00
L 797.00 0.00
C 797.00 47.67 797.00 95.33 797.00 143.00 Z"/>
</g>
<g fill="None" fill-opacity="0.0" stroke="#FEB600" stroke-opacity="0.79" stroke-width="0.3"><path d="
M 1145.00 143.00 
C 1145.50 143.00 1146.00 143.00 1146.00 143.00
C 1150.27 95.72 1142.80 47.38 1146.00 0.00
L 1145.00 0.00
C 1148.27 47.37 1140.64 95.74 1145.00 143.00 Z"/>
</g>
<g fill="None" fill-opacity="0.0" stroke="#FFB704" stroke-opacity="1.00" stroke-width="0.3"><path d="
M 1146.00 143.00 
C 1144.97 147.81 1131.29 144.18 1126.00 145.00 C 1120.72 145.82 1109.47 144.62 1103.00 145.00 C 1096.53 145.38 1088.06 144.83 1081.00 145.00 C 1073.94 145.17 1065.31 144.92 1058.00 145.00 C 1050.69 145.08 1043.45 144.97 1036.00 145.00 C 1028.55 145.03 1020.53 144.98 1013.00 145.00 C 1005.47 145.02 997.52 144.99 990.00 145.00 C 982.48 145.01 975.52 144.99 968.00 145.00 C 960.48 145.01 952.53 144.99 945.00 145.00 C 937.47 145.01 930.54 144.99 923.00 145.00 C 915.46 145.01 907.58 144.97 900.00 145.00 C 892.42 145.03 884.55 144.94 877.00 145.00 C 869.45 145.06 862.56 144.87 855.00 145.00 C 847.44 145.13 839.59 144.73 832.00 145.00 C 824.41 145.27 817.69 144.37 810.00 145.00 C 802.31 145.63 793.62 146.09 795.00 137.00 C 796.38 127.91 794.35 122.26 795.00 114.00 C 795.65 105.74 794.72 99.84 795.00 92.00 C 795.28 84.16 794.87 76.68 795.00 69.00 C 795.13 61.32 794.94 54.62 795.00 47.00 C 795.06 39.38 794.97 31.64 795.00 24.00 C 795.03 16.36 794.98 8.65 795.00 1.00
C 790.14 -2.40 779.08 2.60 773.00 1.00 C 766.92 -0.60 758.70 1.69 752.00 1.00 C 745.30 0.31 736.95 1.33 730.00 1.00 C 723.05 0.67 716.06 1.14 709.00 1.00 C 701.94 0.86 694.08 1.06 687.00 1.00 C 679.92 0.94 673.04 1.02 666.00 1.00 C 658.96 0.98 652.03 1.00 645.00 1.00
C 645.61 7.71 644.76 14.23 645.00 21.00 C 645.24 27.77 644.92 35.21 645.00 42.00 C 645.08 48.79 645.06 55.24 645.00 62.00 C 644.94 68.76 645.21 76.32 645.00 83.00 C 644.79 89.68 645.50 97.62 645.00 104.00 C 644.50 110.38 646.20 118.30 645.00 124.00 C 643.80 129.70 647.98 139.99 644.07 144.07 C 640.16 148.16 629.70 143.71 624.00 145.00 C 618.30 146.29 610.36 144.45 604.00 145.00 C 597.64 145.55 589.63 144.74 583.00 145.00 C 576.37 145.26 569.78 144.89 563.00 145.00 C 556.22 145.11 548.87 144.95 542.00 145.00 C 535.13 145.05 527.86 144.98 521.00 145.00 C 514.14 145.02 507.88 144.99 501.00 145.00 C 494.12 145.01 486.90 145.00 480.00 145.00 C 473.10 145.00 465.87 145.00 459.00 145.00 C 452.13 145.00 445.85 145.01 439.00 145.00 C 432.15 144.99 424.83 145.02 418.00 145.00 C 411.17 144.98 404.80 145.05 398.00 145.00 C 391.20 144.95 383.74 145.10 377.00 145.00 C 370.26 144.90 362.50 145.23 356.00 145.00 C 349.50 144.77 341.98 145.54 336.00 145.00 C 330.02 144.46 320.00 146.14 315.00 145.00 C 310.00 143.86 296.99 147.97 295.00 144.00
C 291.07 141.81 295.08 129.98 294.00 125.00 C 292.92 120.02 294.43 111.02 294.00 105.00 C 293.57 98.98 294.14 90.41 294.00 84.00 C 293.86 77.59 293.90 70.54 294.00 64.00 C 294.10 57.46 293.64 49.47 294.00 43.00 C 294.36 36.53 293.07 29.12 294.00 23.00 C 294.93 16.88 291.53 7.69 295.00 3.00
C 295.00 2.50 295.00 2.00 295.00 2.00
C 246.33 2.00 197.67 2.00 149.00 2.00
C 149.00 99.67 149.00 197.33 149.00 295.00
C 158.63 295.00 168.38 295.00 178.00 295.00 C 187.62 295.00 197.43 295.00 207.00 295.00 C 216.57 295.00 225.44 295.00 235.00 295.00 C 244.56 295.00 254.41 295.00 264.00 295.00 C 273.59 295.00 283.45 295.00 293.00 295.00 C 302.56 295.00 311.45 295.00 321.00 295.00 C 330.55 295.00 340.42 295.00 350.00 295.00 C 359.58 295.00 369.45 295.00 379.00 295.00 C 388.55 295.00 397.45 295.00 407.00 295.00 C 416.55 295.00 426.42 295.00 436.00 295.00 C 445.58 295.00 455.45 295.00 465.00 295.00 C 474.55 295.00 483.45 295.00 493.00 295.00 C 502.55 295.00 512.42 295.00 522.00 295.00 C 531.58 295.00 541.45 295.00 551.00 295.00 C 560.55 295.00 569.45 295.00 579.00 295.00 C 588.55 295.00 598.42 295.00 608.00 295.00 C 617.58 295.00 627.46 295.00 637.00 295.00 C 646.54 295.00 655.47 295.00 665.00 295.00 C 674.53 295.00 684.47 295.00 694.00 295.00 C 703.53 295.00 712.46 295.00 722.00 295.00 C 731.54 295.00 741.42 295.00 751.00 295.00 C 760.58 295.00 770.45 295.00 780.00 295.00 C 789.55 295.00 798.45 295.00 808.00 295.00 C 817.55 295.00 827.42 295.00 837.00 295.00 C 846.58 295.00 856.45 295.00 866.00 295.00 C 875.55 295.00 884.45 295.00 894.00 295.00 C 903.55 295.00 913.42 295.00 923.00 295.00 C 932.58 295.00 942.45 295.00 952.00 295.00 C 961.55 295.00 970.45 295.00 980.00 295.00 C 989.55 295.00 999.42 295.00 1009.00 295.00 C 1018.58 295.00 1028.45 295.00 1038.00 295.00 C 1047.55 295.00 1056.45 295.01 1066.00 295.00 C 1075.55 294.99 1085.42 295.01 1095.00 295.00 C 1104.58 294.99 1114.46 295.03 1124.00 295.00 C 1133.54 294.97 1142.48 295.07 1152.00 295.00 C 1161.52 294.93 1171.50 295.15 1181.00 295.00 C 1190.50 294.85 1200.62 295.33 1210.00 295.00 C 1219.38 294.67 1228.85 295.75 1238.00 295.00 C 1247.15 294.25 1258.29 296.61 1267.00 295.00 C 1275.71 293.39 1287.34 298.70 1295.00 295.00
C 1295.00 196.67 1295.00 98.33 1295.00 0.00
L 1146.00 0.00
C 1142.80 47.38 1150.27 95.72 1146.00 143.00 Z"/>
</g>
<g fill="None" fill-opacity="0.0" stroke="#FFB500" stroke-opacity="0.42" stroke-width="0.3"><path d="
M 1295.00 295.00 
C 1300.98 292.11 1295.61 274.71 1297.00 267.00 C 1298.39 259.29 1296.37 245.93 1297.00 237.00 C 1297.63 228.07 1296.70 216.43 1297.00 207.00 C 1297.29 197.57 1296.87 187.69 1297.00 178.00 C 1297.13 168.31 1296.94 157.82 1297.00 148.00 C 1297.06 138.18 1296.97 127.84 1297.00 118.00 C 1297.03 108.16 1296.99 98.86 1297.00 89.00 C 1297.01 79.14 1296.99 68.89 1297.00 59.00 C 1297.01 49.11 1297.00 38.85 1297.00 29.00 C 1297.00 19.15 1297.00 9.80 1297.00 0.00
L 1295.00 0.00
C 1295.00 98.33 1295.00 196.67 1295.00 295.00 Z"/>
</g>
<g fill="None" fill-opacity="0.0" stroke="#FFB700" stroke-opacity="0.63" stroke-width="0.3"><path d="
M 296.00 143.00 
C 295.77 143.05 295.00 144.00 295.00 144.00
C 296.99 147.97 310.00 143.86 315.00 145.00 C 320.00 146.14 330.02 144.46 336.00 145.00 C 341.98 145.54 349.50 144.77 356.00 145.00 C 362.50 145.23 370.26 144.90 377.00 145.00 C 383.74 145.10 391.20 144.95 398.00 145.00 C 404.80 145.05 411.17 144.98 418.00 145.00 C 424.83 145.02 432.15 144.99 439.00 145.00 C 445.85 145.01 452.13 145.00 459.00 145.00 C 465.87 145.00 473.10 145.00 480.00 145.00 C 486.90 145.00 494.12 145.01 501.00 145.00 C 507.88 144.99 514.14 145.02 521.00 145.00 C 527.86 144.98 535.13 145.05 542.00 145.00 C 548.87 144.95 556.22 145.11 563.00 145.00 C 569.78 144.89 576.37 145.26 583.00 145.00 C 589.63 144.74 597.64 145.55 604.00 145.00 C 610.36 144.45 618.30 146.29 624.00 145.00 C 629.70 143.71 640.16 148.16 644.07 144.07 C 647.98 139.99 643.80 129.70 645.00 124.00 C 646.20 118.30 644.50 110.38 645.00 104.00 C 645.50 97.62 644.79 89.68 645.00 83.00 C 645.21 76.32 644.94 68.76 645.00 62.00 C 645.06 55.24 645.08 48.79 645.00 42.00 C 644.92 35.21 645.24 27.77 645.00 21.00 C 644.76 14.23 645.61 7.71 645.00 1.00
C 645.00 1.00 644.25 1.25 644.00 1.00
C 644.00 48.33 644.00 95.67 644.00 143.00
C 627.36 143.03 610.63 142.97 594.00 143.00 C 577.37 143.03 560.61 142.93 544.00 143.00 C 527.39 143.07 510.53 142.86 494.00 143.00 C 477.47 143.14 461.48 142.68 445.00 143.00 C 428.52 143.32 411.41 142.30 395.00 143.00 C 378.59 143.70 361.18 141.46 345.00 143.00 C 328.82 144.54 311.70 139.52 296.00 143.00 Z"/>
</g>
<g fill="None" fill-opacity="0.0" stroke="#FFB700" stroke-opacity="0.63" stroke-width="0.3"><path d="
M 1146.00 143.00 
C 1146.00 143.00 1145.50 143.00 1145.00 143.00
C 1137.68 143.00 1130.31 143.00 1123.00 143.00 C 1115.69 143.00 1108.29 143.00 1101.00 143.00 C 1093.71 143.00 1086.25 143.00 1079.00 143.00 C 1071.76 143.00 1065.24 143.00 1058.00 143.00 C 1050.76 143.00 1043.28 143.00 1036.00 143.00 C 1028.72 143.00 1021.28 143.00 1014.00 143.00 C 1006.72 143.00 999.24 143.00 992.00 143.00 C 984.76 143.00 978.23 143.01 971.00 143.00 C 963.77 142.99 956.27 143.01 949.00 143.00 C 941.73 142.99 934.26 143.03 927.00 143.00 C 919.74 142.97 912.20 143.06 905.00 143.00 C 897.80 142.94 891.14 143.14 884.00 143.00 C 876.86 142.86 869.06 143.30 862.00 143.00 C 854.94 142.70 846.81 143.65 840.00 143.00 C 833.19 142.35 824.20 144.43 818.00 143.00 C 811.80 141.57 801.80 146.36 797.00 143.00
C 792.89 140.12 797.22 128.38 796.00 123.00 C 794.78 117.62 796.61 108.11 796.00 102.00 C 795.39 95.89 796.35 88.41 796.00 82.00 C 795.65 75.59 796.34 67.41 796.00 61.00 C 795.66 54.59 796.57 47.10 796.00 41.00 C 795.43 34.90 797.13 25.37 796.00 20.00 C 794.88 14.63 799.04 3.83 795.00 1.00
C 794.98 8.65 795.03 16.36 795.00 24.00 C 794.97 31.64 795.06 39.38 795.00 47.00 C 794.94 54.62 795.13 61.32 795.00 69.00 C 794.87 76.68 795.28 84.16 795.00 92.00 C 794.72 99.84 795.65 105.74 795.00 114.00 C 794.35 122.26 796.38 127.91 795.00 137.00 C 793.62 146.09 802.31 145.63 810.00 145.00 C 817.69 144.37 824.41 145.27 832.00 145.00 C 839.59 144.73 847.44 145.13 855.00 145.00 C 862.56 144.87 869.45 145.06 877.00 145.00 C 884.55 144.94 892.42 145.03 900.00 145.00 C 907.58 144.97 915.46 145.01 923.00 145.00 C 930.54 144.99 937.47 145.01 945.00 145.00 C 952.53 144.99 960.48 145.01 968.00 145.00 C 975.52 144.99 982.48 145.01 990.00 145.00 C 997.52 144.99 1005.47 145.02 1013.00 145.00 C 1020.53 144.98 1028.55 145.03 1036.00 145.00 C 1043.45 144.97 1050.69 145.08 1058.00 145.00 C 1065.31 144.92 1073.94 145.17 1081.00 145.00 C 1088.06 144.83 1096.53 145.38 1103.00 145.00 C 1109.47 144.62 1120.72 145.82 1126.00 145.00 C 1131.29 144.18 1144.97 147.81 1146.00 143.00 Z"/>
</g>
<g fill="None" fill-opacity="0.0" stroke="#FFB800" stroke-opacity="0.11" stroke-width="0.3"><path d="
M 295.00 3.00 
C 295.00 18.46 294.56 34.60 295.00 50.00 C 295.44 65.40 293.82 81.85 295.00 97.00 C 296.18 112.15 291.84 129.10 296.00 143.00
C 295.95 135.09 296.06 126.89 296.00 119.00 C 295.94 111.11 296.12 102.78 296.00 95.00 C 295.88 87.22 296.27 79.62 296.00 72.00 C 295.73 64.38 296.58 55.33 296.00 48.00 C 295.42 40.67 297.27 30.60 296.00 24.00 C 294.73 17.40 299.43 6.26 295.00 2.00
C 295.00 2.00 295.00 2.50 295.00 3.00 Z"/>
</g>
<g fill="None" fill-opacity="0.0" stroke="#FEB700" stroke-opacity="0.71" stroke-width="0.3"><path d="
M 295.00 144.00 
C 295.00 144.00 295.77 143.05 296.00 143.00
C 291.84 129.10 296.18 112.15 295.00 97.00 C 293.82 81.85 295.44 65.40 295.00 50.00 C 294.56 34.60 295.00 18.46 295.00 3.00
C 291.53 7.69 294.93 16.88 294.00 23.00 C 293.07 29.12 294.36 36.53 294.00 43.00 C 293.64 49.47 294.10 57.46 294.00 64.00 C 293.90 70.54 293.86 77.59 294.00 84.00 C 294.14 90.41 293.57 98.98 294.00 105.00 C 294.43 111.02 292.92 120.02 294.00 125.00 C 295.08 129.98 291.07 141.81 295.00 144.00 Z"/>
</g>
<g fill="None" fill-opacity="0.0" stroke="#FCB400" stroke-opacity="1.00" stroke-width="0.3"><path d="
M 727.00 1759.00 
L 733.00 1759.00
C 867.30 1676.08 1009.14 1604.04 1143.00 1521.00
C 1138.60 1520.43 1144.41 1519.82 1144.00 1520.00
C 1244.61 1463.04 1343.65 1404.15 1444.00 1347.00
C 1444.00 1195.33 1444.00 1043.67 1444.00 892.00
C 1420.33 903.85 1397.69 917.85 1374.00 930.00
C 1373.11 930.72 1372.30 932.35 1370.00 933.00
C 1357.56 936.51 1345.54 946.28 1334.00 952.00
C 1333.72 952.24 1334.68 953.59 1332.76 954.77 C 1330.85 955.94 1329.56 954.13 1330.00 954.00
C 1306.94 968.09 1282.32 980.59 1258.69 993.69 C 1235.07 1006.80 1210.66 1019.94 1186.70 1032.70 C 1162.73 1045.45 1139.20 1059.95 1114.75 1071.75 C 1090.30 1083.55 1068.02 1100.50 1043.00 1111.00
C 1042.65 1111.29 1042.07 1111.63 1041.00 1112.00
C 1022.72 1122.63 1003.80 1132.36 985.00 1142.00
C 983.19 1143.38 982.80 1144.42 981.00 1145.00
C 963.91 1150.52 948.85 1162.74 932.70 1170.70 C 916.54 1178.65 899.76 1187.40 884.25 1196.25 C 868.73 1205.10 852.02 1212.41 837.00 1222.00
C 836.22 1222.69 836.82 1223.40 835.00 1224.00
C 813.96 1230.95 793.75 1245.92 774.00 1256.00
C 772.32 1257.30 771.54 1258.41 770.00 1259.00
C 754.94 1265.72 741.07 1274.81 726.00 1282.00
C 726.00 1228.00 726.00 1174.00 726.00 1120.00
C 734.34 1115.75 744.54 1111.48 752.30 1106.30 C 760.07 1101.12 770.73 1098.50 777.77 1092.77 C 784.82 1087.04 798.00 1086.00 803.00 1079.00
C 800.67 1074.00 802.36 1064.97 802.00 1057.00 C 801.64 1049.03 802.16 1039.35 802.00 1031.00 C 801.84 1022.65 802.07 1013.52 802.00 1005.00 C 801.93 996.48 802.03 987.60 802.00 979.00 C 801.97 970.40 802.01 961.62 802.00 953.00 C 801.99 944.38 802.01 935.62 802.00 927.00 C 801.99 918.38 802.00 909.58 802.00 901.00 C 802.00 892.42 802.00 884.58 802.00 876.00 C 802.00 867.42 802.00 858.63 802.00 850.00 C 802.00 841.37 802.00 832.65 802.00 824.00 C 802.00 815.35 802.00 806.66 802.00 798.00 C 802.00 789.35 802.00 780.66 802.00 772.00 C 802.00 763.35 802.00 754.65 802.00 746.00 C 802.00 737.35 802.00 728.63 802.00 720.00 C 802.00 711.37 801.99 702.58 802.00 694.00 C 802.01 685.42 801.99 677.57 802.00 669.00 C 802.01 660.43 801.97 651.60 802.00 643.00 C 802.03 634.40 801.94 625.59 802.00 617.00 C 802.06 608.41 801.86 599.52 802.00 591.00 C 802.14 582.48 801.69 573.36 802.00 565.00 C 802.31 556.64 801.31 546.99 802.00 539.00 C 802.69 531.01 800.48 520.16 802.00 513.00 C 803.52 505.84 798.17 492.65 803.00 488.00
C 811.06 487.27 818.85 488.29 827.00 488.00 C 835.15 487.71 843.80 488.08 852.00 488.00 C 860.20 487.92 868.83 487.93 877.00 488.00 C 885.17 488.07 893.97 487.74 902.00 488.00 C 910.03 488.26 919.32 487.36 927.00 488.00 C 934.68 488.64 945.10 486.56 952.00 488.00 C 958.90 489.44 971.52 484.34 976.00 489.00
C 978.95 491.87 976.03 497.94 977.00 502.00 C 977.97 506.06 976.33 512.58 976.00 516.00
C 977.64 532.98 974.61 551.06 976.00 568.00 C 977.39 584.94 977.00 601.76 977.00 619.00
C 977.00 618.96 978.00 619.00 978.00 619.00
C 978.00 615.33 978.00 611.67 978.00 608.00
C 979.66 617.93 979.68 631.14 978.00 641.00
C 977.99 697.57 980.00 753.39 980.00 810.00
C 981.80 828.63 982.83 850.08 981.00 869.00
C 981.92 878.47 981.00 888.48 981.00 898.00
C 981.00 897.96 982.00 898.00 982.00 898.00
C 981.95 895.67 982.04 893.33 982.00 891.00
C 983.96 892.45 982.56 895.80 983.00 898.00
C 983.20 908.05 982.91 918.35 982.00 928.00
C 981.45 933.88 982.00 940.09 982.00 946.00
C 982.00 945.96 983.00 946.00 983.00 946.00
C 985.40 948.32 984.00 956.57 984.00 960.00
C 984.00 964.30 983.29 969.12 985.00 973.00
C 994.19 971.62 1002.25 962.16 1010.78 958.78 C 1019.31 955.39 1027.82 949.52 1036.00 945.00
C 1037.01 944.10 1037.66 942.72 1040.00 942.00
C 1068.90 927.68 1096.58 909.43 1126.00 895.00
C 1126.01 759.66 1125.99 624.34 1126.00 489.00
C 1140.79 489.27 1156.28 488.64 1171.00 489.00 C 1185.72 489.36 1200.43 488.30 1215.00 489.00 C 1229.57 489.70 1244.66 487.50 1259.00 489.00 C 1273.34 490.50 1289.10 485.69 1303.00 489.00
C 1307.38 490.04 1304.34 503.27 1305.00 510.00 C 1305.66 516.73 1304.70 527.39 1305.00 535.00 C 1305.30 542.61 1304.87 551.99 1305.00 560.00 C 1305.13 568.01 1304.94 576.81 1305.00 585.00 C 1305.06 593.19 1304.97 601.73 1305.00 610.00 C 1305.03 618.27 1304.99 626.70 1305.00 635.00 C 1305.01 643.30 1304.99 651.68 1305.00 660.00 C 1305.01 668.32 1305.00 676.67 1305.00 685.00 C 1305.00 693.33 1305.00 701.67 1305.00 710.00 C 1305.00 718.33 1305.00 726.67 1305.00 735.00 C 1305.00 743.33 1305.00 751.67 1305.00 760.00 C 1305.00 768.33 1305.00 776.67 1305.00 785.00
C 1306.39 785.54 1308.25 782.70 1309.00 785.00
C 1354.35 760.47 1398.75 734.56 1444.00 710.00
C 1443.99 594.00 1444.01 478.00 1444.00 362.00
C 966.33 362.00 488.67 362.00 11.00 362.00
C 11.00 381.19 11.00 400.86 11.00 420.00 C 11.00 439.14 11.00 457.94 11.00 477.00 C 11.00 496.06 11.00 514.97 11.00 534.00 C 11.00 553.03 11.00 571.99 11.00 591.00 C 11.00 610.01 11.00 628.99 11.00 648.00 C 11.00 667.01 11.00 685.99 11.00 705.00 C 11.00 724.01 11.00 742.98 11.00 762.00 C 11.00 781.02 11.00 799.96 11.00 819.00 C 11.00 838.04 11.00 856.91 11.00 876.00 C 11.00 895.09 11.01 914.91 11.00 934.00 C 10.99 953.09 11.02 971.96 11.00 991.00 C 10.98 1010.04 11.04 1028.99 11.00 1048.00 C 10.96 1067.01 11.10 1086.01 11.00 1105.00 C 10.90 1123.99 11.21 1143.03 11.00 1162.00 C 10.79 1180.97 11.47 1200.07 11.00 1219.00 C 10.53 1237.93 12.04 1257.16 11.00 1276.00 C 9.96 1294.84 13.30 1314.37 11.00 1333.00 C 8.70 1351.63 25.44 1354.76 38.25 1362.75 C 51.07 1370.74 62.81 1376.06 75.30 1383.70 C 87.79 1391.33 99.07 1397.48 111.25 1404.75 C 123.43 1412.01 135.62 1418.09 147.77 1425.23 C 159.92 1432.37 171.61 1439.41 183.77 1446.23 C 195.93 1453.05 207.75 1460.24 219.78 1467.22 C 231.81 1474.21 244.24 1480.87 256.25 1487.75 C 268.27 1494.62 280.27 1501.87 292.26 1508.74 C 304.24 1515.61 316.70 1522.23 328.77 1529.23 C 340.84 1536.23 352.47 1543.39 364.77 1550.23 C 377.07 1557.07 389.50 1564.24 401.77 1571.23 C 414.04 1578.22 425.65 1585.32 437.77 1592.23 C 449.89 1599.14 462.01 1605.65 473.92 1613.08 C 485.83 1620.50 498.63 1625.98 510.75 1633.25 C 522.88 1640.52 534.18 1647.74 546.31 1654.69 C 558.43 1661.65 570.83 1668.02 582.92 1675.08 C 595.00 1682.14 606.89 1689.23 618.92 1696.08 C 630.95 1702.93 643.31 1709.80 655.30 1716.70 C 667.29 1723.60 679.33 1730.96 691.30 1737.70 C 703.28 1744.44 715.83 1751.00 727.00 1759.00
M 333.00 486.00 
C 333.00 621.33 333.00 756.67 333.00 892.00
C 272.69 859.04 213.47 824.43 153.00 792.00
C 153.00 690.00 153.00 588.00 153.00 486.00
C 213.00 486.00 273.00 486.00 333.00 486.00
M 656.00 486.00 
C 655.23 684.95 657.39 883.15 657.00 1082.00
C 597.35 1048.66 536.50 1012.08 476.00 979.00
C 476.00 814.66 476.00 650.34 476.00 486.00
C 536.00 486.00 596.00 486.00 656.00 486.00
M 158.00 963.00 
C 169.05 973.89 187.27 978.52 200.25 987.75 C 213.22 996.98 230.08 1003.52 243.70 1012.30 C 257.32 1021.09 272.34 1027.98 286.23 1036.77 C 300.12 1045.56 315.91 1052.52 330.03 1060.98 C 344.14 1069.43 357.85 1077.67 372.23 1085.77 C 386.61 1093.87 401.38 1101.98 415.69 1110.31 C 430.01 1118.63 443.88 1126.35 458.23 1134.77 C 472.58 1143.19 487.22 1150.84 501.70 1159.31 C 516.17 1167.77 529.98 1175.36 544.23 1183.77 C 558.48 1192.18 573.43 1199.90 587.69 1208.31 C 601.96 1216.71 615.89 1224.37 630.23 1232.77 C 644.57 1241.17 659.19 1249.05 673.70 1257.31 C 688.20 1265.56 701.40 1274.20 716.23 1281.77
C 719.03 1283.01 722.72 1283.99 724.00 1286.00
C 727.19 1290.99 724.25 1298.70 725.00 1305.00 C 725.75 1311.30 724.62 1319.42 725.00 1326.00 C 725.38 1332.58 724.79 1339.30 725.00 1346.00 C 725.21 1352.70 724.80 1360.28 725.00 1367.00 C 725.20 1373.72 724.67 1380.36 725.00 1387.00 C 725.33 1393.64 724.35 1401.55 725.00 1408.00 C 725.65 1414.45 723.52 1422.06 725.00 1428.00 C 726.48 1433.94 721.88 1444.06 725.00 1449.00
C 727.73 1451.73 738.56 1442.12 743.23 1440.23 C 747.90 1438.34 756.41 1432.42 762.07 1430.07 C 767.74 1427.73 774.04 1421.87 780.08 1419.08 C 786.13 1416.29 792.62 1412.11 798.70 1408.70 C 804.77 1405.28 811.37 1401.95 817.25 1398.25 C 823.13 1394.54 830.16 1391.72 836.22 1388.22 C 842.28 1384.72 848.12 1380.76 854.23 1377.23 C 860.34 1373.70 867.27 1371.34 873.08 1367.08 C 878.90 1362.82 886.11 1360.93 892.08 1357.08 C 898.04 1353.22 904.02 1349.57 910.22 1346.22 C 916.43 1342.88 922.74 1339.59 928.70 1335.70 C 934.65 1331.81 941.69 1329.47 947.70 1325.70 C 953.70 1321.92 959.93 1318.23 966.22 1315.22 C 972.51 1312.22 978.05 1307.55 984.23 1304.23 C 990.41 1300.91 997.27 1298.17 1003.23 1294.23 C 1009.19 1290.29 1015.58 1287.49 1021.75 1283.75 C 1027.91 1280.00 1034.64 1276.33 1041.00 1273.00
C 1042.81 1271.57 1043.23 1270.60 1045.00 1270.00
C 1067.92 1262.24 1087.34 1244.51 1109.25 1234.25 C 1131.16 1223.98 1151.67 1209.41 1173.25 1198.25 C 1194.82 1187.08 1215.69 1173.79 1237.25 1162.25 C 1258.80 1150.70 1279.81 1137.20 1302.00 1127.00
C 1302.01 1164.00 1301.99 1201.00 1302.00 1238.00
C 1233.85 1275.95 1165.67 1315.41 1098.00 1354.00
C 1097.82 1354.15 1096.73 1354.70 1096.00 1355.00
C 1078.57 1367.27 1058.55 1376.35 1040.25 1387.25 C 1021.95 1398.14 1002.79 1408.90 983.92 1418.92 C 965.06 1428.95 947.10 1442.99 928.00 1451.00
C 927.82 1451.15 926.73 1451.70 926.00 1452.00
C 900.96 1469.63 871.66 1480.20 846.31 1497.31 C 820.95 1514.41 790.88 1525.40 766.00 1543.00
C 765.24 1543.71 765.65 1544.37 764.00 1545.00
C 752.24 1549.53 739.97 1562.03 727.92 1564.92 C 715.88 1567.82 703.64 1551.29 691.92 1547.08 C 680.20 1542.87 667.91 1532.34 656.25 1526.75 C 644.59 1521.17 632.47 1512.75 620.75 1506.25 C 609.03 1499.74 596.80 1492.84 584.92 1486.08 C 573.05 1479.32 560.76 1471.94 548.77 1465.23 C 536.78 1458.52 525.07 1451.48 513.30 1444.70 C 501.54 1437.91 489.22 1431.58 477.32 1424.68 C 465.42 1417.78 454.02 1410.37 441.92 1404.08 C 429.82 1397.79 418.61 1390.01 406.75 1383.25 C 394.89 1376.48 382.58 1370.12 370.75 1363.25 C 358.93 1356.37 346.59 1349.16 334.75 1342.25 C 322.91 1335.33 310.79 1329.15 298.92 1322.08 C 287.06 1315.01 275.30 1308.39 263.30 1301.70 C 251.31 1295.01 239.90 1287.80 227.92 1281.08 C 215.93 1274.36 204.06 1267.75 191.92 1261.08 C 179.79 1254.40 168.35 1246.21 156.00 1240.00
C 154.16 1239.07 153.57 1231.98 154.00 1225.00 C 154.43 1218.02 153.81 1211.01 154.00 1204.00 C 154.19 1196.99 153.91 1190.04 154.00 1183.00 C 154.09 1175.96 153.96 1169.10 154.00 1162.00 C 154.04 1154.90 153.98 1147.10 154.00 1140.00 C 154.02 1132.90 153.99 1126.05 154.00 1119.00 C 154.01 1111.95 154.00 1105.04 154.00 1098.00 C 154.00 1090.96 154.00 1084.05 154.00 1077.00 C 154.00 1069.95 154.00 1063.09 154.00 1056.00 C 154.00 1048.91 153.99 1041.06 154.00 1034.00 C 154.01 1026.94 153.99 1019.96 154.00 1013.00 C 154.01 1006.04 153.97 998.82 154.00 992.00 C 154.03 985.18 153.93 977.57 154.00 971.00 C 154.07 964.43 153.12 965.38 154.78 960.78 C 156.43 956.17 161.02 965.97 158.00 963.00 Z"/>
</g>
<g fill="None" fill-opacity="0.0" stroke="#000000" stroke-opacity="0.00" stroke-width="0.3"><path d="
M 333.00 486.00 
C 273.00 486.00 213.00 486.00 153.00 486.00
C 153.00 588.00 153.00 690.00 153.00 792.00
C 213.47 824.43 272.69 859.04 333.00 892.00
C 333.00 756.67 333.00 621.33 333.00 486.00 Z"/>
</g>
<g fill="None" fill-opacity="0.0" stroke="#000000" stroke-opacity="0.00" stroke-width="0.3"><path d="
M 656.00 486.00 
C 596.00 486.00 536.00 486.00 476.00 486.00
C 476.00 650.34 476.00 814.66 476.00 979.00
C 536.50 1012.08 597.35 1048.66 657.00 1082.00
C 657.39 883.15 655.23 684.95 656.00 486.00 Z"/>
</g>
<g fill="None" fill-opacity="0.0" stroke="#FFB600" stroke-opacity="0.59" stroke-width="0.3"><path d="
M 803.00 1079.00 
C 803.22 882.34 802.71 685.66 803.00 489.00
C 803.00 488.50 803.00 488.00 803.00 488.00
C 798.17 492.65 803.52 505.84 802.00 513.00 C 800.48 520.16 802.69 531.01 802.00 539.00 C 801.31 546.99 802.31 556.64 802.00 565.00 C 801.69 573.36 802.14 582.48 802.00 591.00 C 801.86 599.52 802.06 608.41 802.00 617.00 C 801.94 625.59 802.03 634.40 802.00 643.00 C 801.97 651.60 802.01 660.43 802.00 669.00 C 801.99 677.57 802.01 685.42 802.00 694.00 C 801.99 702.58 802.00 711.37 802.00 720.00 C 802.00 728.63 802.00 737.35 802.00 746.00 C 802.00 754.65 802.00 763.35 802.00 772.00 C 802.00 780.66 802.00 789.35 802.00 798.00 C 802.00 806.66 802.00 815.35 802.00 824.00 C 802.00 832.65 802.00 841.37 802.00 850.00 C 802.00 858.63 802.00 867.42 802.00 876.00 C 802.00 884.58 802.00 892.42 802.00 901.00 C 802.00 909.58 801.99 918.38 802.00 927.00 C 802.01 935.62 801.99 944.38 802.00 953.00 C 802.01 961.62 801.97 970.40 802.00 979.00 C 802.03 987.60 801.93 996.48 802.00 1005.00 C 802.07 1013.52 801.84 1022.65 802.00 1031.00 C 802.16 1039.35 801.64 1049.03 802.00 1057.00 C 802.36 1064.97 800.67 1074.00 803.00 1079.00 Z"/>
</g>
<g fill="None" fill-opacity="0.0" stroke="#FEB600" stroke-opacity="0.47" stroke-width="0.3"><path d="
M 803.00 489.00 
C 803.25 489.25 804.00 489.00 804.00 489.00
C 861.00 489.00 918.00 489.02 975.00 489.00
C 975.50 489.00 976.00 489.00 976.00 489.00
C 971.52 484.34 958.90 489.44 952.00 488.00 C 945.10 486.56 934.68 488.64 927.00 488.00 C 919.32 487.36 910.03 488.26 902.00 488.00 C 893.97 487.74 885.17 488.07 877.00 488.00 C 868.83 487.93 860.20 487.92 852.00 488.00 C 843.80 488.08 835.15 487.71 827.00 488.00 C 818.85 488.29 811.06 487.27 803.00 488.00
C 803.00 488.00 803.00 488.50 803.00 489.00 Z"/>
</g>
<g fill="None" fill-opacity="0.0" stroke="#FFB600" stroke-opacity="0.35" stroke-width="0.3"><path d="
M 1303.00 489.00 
C 1303.00 588.67 1303.00 688.33 1303.00 788.00
C 1305.66 788.71 1307.24 786.09 1309.00 785.00
C 1308.25 782.70 1306.39 785.54 1305.00 785.00
C 1305.00 776.67 1305.00 768.33 1305.00 760.00 C 1305.00 751.67 1305.00 743.33 1305.00 735.00 C 1305.00 726.67 1305.00 718.33 1305.00 710.00 C 1305.00 701.67 1305.00 693.33 1305.00 685.00 C 1305.00 676.67 1305.01 668.32 1305.00 660.00 C 1304.99 651.68 1305.01 643.30 1305.00 635.00 C 1304.99 626.70 1305.03 618.27 1305.00 610.00 C 1304.97 601.73 1305.06 593.19 1305.00 585.00 C 1304.94 576.81 1305.13 568.01 1305.00 560.00 C 1304.87 551.99 1305.30 542.61 1305.00 535.00 C 1304.70 527.39 1305.66 516.73 1305.00 510.00 C 1304.34 503.27 1307.38 490.04 1303.00 489.00 Z"/>
</g>
<g fill="None" fill-opacity="0.0" stroke="#FF7F00" stroke-opacity="0.01" stroke-width="0.3"><path d="
M 803.00 1079.00 
C 808.37 1071.48 802.24 1056.73 804.00 1047.00 C 805.76 1037.27 803.20 1024.42 804.00 1014.00 C 804.80 1003.58 803.64 991.72 804.00 981.00 C 804.36 970.28 803.84 958.84 804.00 948.00 C 804.16 937.16 803.92 925.86 804.00 915.00 C 804.08 904.14 803.97 893.89 804.00 883.00 C 804.03 872.11 803.98 860.95 804.00 850.00 C 804.02 839.05 803.99 827.97 804.00 817.00 C 804.01 806.03 804.00 794.97 804.00 784.00 C 804.00 773.03 804.00 761.96 804.00 751.00 C 804.00 740.04 804.00 728.91 804.00 718.00 C 804.00 707.09 804.01 696.91 804.00 686.00 C 803.99 675.09 804.02 663.95 804.00 653.00 C 803.98 642.05 804.04 630.97 804.00 620.00 C 803.96 609.03 804.09 597.96 804.00 587.00 C 803.91 576.04 804.19 564.92 804.00 554.00 C 803.81 543.08 804.43 531.83 804.00 521.00 C 803.57 510.17 804.98 499.73 804.00 489.00
C 804.00 489.00 803.25 489.25 803.00 489.00
C 802.71 685.66 803.22 882.34 803.00 1079.00 Z"/>
</g>
<g fill="None" fill-opacity="0.0" stroke="#FFB700" stroke-opacity="0.35" stroke-width="0.3"><path d="
M 975.00 509.00 
C 975.16 510.63 976.94 513.67 976.00 516.00
C 976.33 512.58 977.97 506.06 977.00 502.00 C 976.03 497.94 978.95 491.87 976.00 489.00
C 976.00 489.00 975.50 489.00 975.00 489.00
C 974.41 495.51 974.87 502.47 975.00 509.00 Z"/>
</g>
<g fill="None" fill-opacity="0.0" stroke="#FFB600" stroke-opacity="0.02" stroke-width="0.3"><path d="
M 976.00 516.00 
C 976.94 513.67 975.16 510.63 975.00 509.00
C 975.05 511.40 975.83 514.25 976.00 516.00 Z"/>
</g>
<g fill="None" fill-opacity="0.0" stroke="#FEB700" stroke-opacity="0.78" stroke-width="0.3"><path d="
M 978.00 619.00 
C 978.00 624.00 978.00 629.00 978.00 634.00
C 978.00 636.33 978.00 638.67 978.00 641.00
C 979.68 631.14 979.66 617.93 978.00 608.00
C 978.00 611.67 978.00 615.33 978.00 619.00 Z"/>
</g>
<g fill="None" fill-opacity="0.0" stroke="#FFBC00" stroke-opacity="0.09" stroke-width="0.3"><path d="
M 978.00 634.00 
C 978.00 629.00 978.00 624.00 978.00 619.00
C 978.00 619.00 977.00 618.96 977.00 619.00
C 977.00 624.07 977.58 629.62 978.00 634.00 Z"/>
</g>
<g fill="None" fill-opacity="0.0" stroke="#FFB500" stroke-opacity="0.29" stroke-width="0.3"><path d="
M 981.00 869.00 
C 982.83 850.08 981.80 828.63 980.00 810.00
C 980.00 829.52 979.18 850.23 981.00 869.00 Z"/>
</g>
<g fill="None" fill-opacity="0.0" stroke="#FEB600" stroke-opacity="0.75" stroke-width="0.3"><path d="
M 982.00 898.00 
C 982.50 898.00 983.00 898.00 983.00 898.00
C 982.56 895.80 983.96 892.45 982.00 891.00
C 982.04 893.33 981.95 895.67 982.00 898.00 Z"/>
</g>
<g fill="None" fill-opacity="0.0" stroke="#FFB800" stroke-opacity="0.31" stroke-width="0.3"><path d="
M 982.00 928.00 
C 982.91 918.35 983.20 908.05 983.00 898.00
C 983.00 898.00 982.50 898.00 982.00 898.00
C 982.00 898.00 981.00 897.96 981.00 898.00
C 981.00 908.00 981.10 918.71 982.00 928.00 Z"/>
</g>
<g fill="None" fill-opacity="0.0" stroke="#FFA200" stroke-opacity="0.33" stroke-width="0.3"><path d="
M 1370.00 933.00 
C 1372.30 932.35 1373.11 930.72 1374.00 930.00
C 1372.39 930.82 1371.33 932.20 1370.00 933.00 Z"/>
</g>
<g fill="None" fill-opacity="0.0" stroke="#FFC600" stroke-opacity="0.34" stroke-width="0.3"><path d="
M 1036.00 945.00 
C 1037.57 944.13 1038.67 942.85 1040.00 942.00
C 1037.66 942.72 1037.01 944.10 1036.00 945.00 Z"/>
</g>
<g fill="None" fill-opacity="0.0" stroke="#FFB500" stroke-opacity="0.24" stroke-width="0.3"><path d="
M 982.00 957.00 
C 982.00 956.96 983.00 957.00 983.00 957.00
C 982.69 953.36 983.33 949.64 983.00 946.00
C 983.00 946.00 982.00 945.96 982.00 946.00
C 982.00 949.67 982.00 953.33 982.00 957.00 Z"/>
</g>
<g fill="None" fill-opacity="0.0" stroke="#FEB600" stroke-opacity="0.82" stroke-width="0.3"><path d="
M 983.00 957.00 
C 983.12 958.34 983.83 959.21 984.00 960.00
C 984.00 956.57 985.40 948.32 983.00 946.00
C 983.33 949.64 982.69 953.36 983.00 957.00 Z"/>
</g>
<g fill="None" fill-opacity="0.0" stroke="#FFC700" stroke-opacity="0.32" stroke-width="0.3"><path d="
M 1330.00 954.00 
C 1329.56 954.13 1330.85 955.94 1332.76 954.77 C 1334.68 953.59 1333.72 952.24 1334.00 952.00
C 1332.65 952.67 1331.29 953.21 1330.00 954.00 Z"/>
</g>
<g fill="None" fill-opacity="0.0" stroke="#FFB600" stroke-opacity="0.38" stroke-width="0.3"><path d="
M 985.00 973.00 
C 983.29 969.12 984.00 964.30 984.00 960.00
C 983.83 959.21 983.12 958.34 983.00 957.00
C 983.00 957.00 982.00 956.96 982.00 957.00
C 982.00 962.67 982.00 968.33 982.00 974.00
C 983.11 974.85 984.54 973.07 985.00 973.00 Z"/>
</g>
<g fill="None" fill-opacity="0.0" stroke="#FEB700" stroke-opacity="0.62" stroke-width="0.3"><path d="
M 156.00 1240.00 
C 158.08 1232.90 155.07 1224.46 156.00 1217.00 C 156.93 1209.54 155.60 1201.67 156.00 1194.00 C 156.40 1186.33 155.81 1177.76 156.00 1170.00 C 156.19 1162.24 155.92 1154.80 156.00 1147.00 C 156.08 1139.20 155.96 1130.80 156.00 1123.00 C 156.04 1115.20 155.99 1107.76 156.00 1100.00 C 156.01 1092.24 156.01 1084.80 156.00 1077.00 C 155.99 1069.20 156.04 1060.80 156.00 1053.00 C 155.96 1045.20 156.09 1037.77 156.00 1030.00 C 155.91 1022.23 156.20 1013.69 156.00 1006.00 C 155.80 998.31 156.46 990.49 156.00 983.00 C 155.54 975.51 156.10 966.49 158.00 963.00
C 161.02 965.97 156.43 956.17 154.78 960.78 C 153.12 965.38 154.07 964.43 154.00 971.00 C 153.93 977.57 154.03 985.18 154.00 992.00 C 153.97 998.82 154.01 1006.04 154.00 1013.00 C 153.99 1019.96 154.01 1026.94 154.00 1034.00 C 153.99 1041.06 154.00 1048.91 154.00 1056.00 C 154.00 1063.09 154.00 1069.95 154.00 1077.00 C 154.00 1084.05 154.00 1090.96 154.00 1098.00 C 154.00 1105.04 154.01 1111.95 154.00 1119.00 C 153.99 1126.05 154.02 1132.90 154.00 1140.00 C 153.98 1147.10 154.04 1154.90 154.00 1162.00 C 153.96 1169.10 154.09 1175.96 154.00 1183.00 C 153.91 1190.04 154.19 1196.99 154.00 1204.00 C 153.81 1211.01 154.43 1218.02 154.00 1225.00 C 153.57 1231.98 154.16 1239.07 156.00 1240.00 Z"/>
</g>
<g fill="None" fill-opacity="0.0" stroke="#000000" stroke-opacity="0.00" stroke-width="0.3"><path d="
M 156.00 1240.00 
C 168.35 1246.21 179.79 1254.40 191.92 1261.08 C 204.06 1267.75 215.93 1274.36 227.92 1281.08 C 239.90 1287.80 251.31 1295.01 263.30 1301.70 C 275.30 1308.39 287.06 1315.01 298.92 1322.08 C 310.79 1329.15 322.91 1335.33 334.75 1342.25 C 346.59 1349.16 358.93 1356.37 370.75 1363.25 C 382.58 1370.12 394.89 1376.48 406.75 1383.25 C 418.61 1390.01 429.82 1397.79 441.92 1404.08 C 454.02 1410.37 465.42 1417.78 477.32 1424.68 C 489.22 1431.58 501.54 1437.91 513.30 1444.70 C 525.07 1451.48 536.78 1458.52 548.77 1465.23 C 560.76 1471.94 573.05 1479.32 584.92 1486.08 C 596.80 1492.84 609.03 1499.74 620.75 1506.25 C 632.47 1512.75 644.59 1521.17 656.25 1526.75 C 667.91 1532.34 680.20 1542.87 691.92 1547.08 C 703.64 1551.29 715.88 1567.82 727.92 1564.92 C 739.97 1562.03 752.24 1549.53 764.00 1545.00
C 764.72 1544.42 765.18 1543.58 766.00 1543.00
C 790.88 1525.40 820.95 1514.41 846.31 1497.31 C 871.66 1480.20 900.96 1469.63 926.00 1452.00
C 926.82 1451.42 926.95 1451.44 928.00 1451.00
C 947.10 1442.99 965.06 1428.95 983.92 1418.92 C 1002.79 1408.90 1021.95 1398.14 1040.25 1387.25 C 1058.55 1376.35 1078.57 1367.27 1096.00 1355.00
C 1096.82 1354.42 1096.95 1354.44 1098.00 1354.00
C 1165.67 1315.41 1233.85 1275.95 1302.00 1238.00
C 1301.99 1201.00 1302.01 1164.00 1302.00 1127.00
C 1279.81 1137.20 1258.80 1150.70 1237.25 1162.25 C 1215.69 1173.79 1194.82 1187.08 1173.25 1198.25 C 1151.67 1209.41 1131.16 1223.98 1109.25 1234.25 C 1087.34 1244.51 1067.92 1262.24 1045.00 1270.00
C 1043.66 1270.83 1042.61 1272.16 1041.00 1273.00
C 1034.64 1276.33 1027.91 1280.00 1021.75 1283.75 C 1015.58 1287.49 1009.19 1290.29 1003.23 1294.23 C 997.27 1298.17 990.41 1300.91 984.23 1304.23 C 978.05 1307.55 972.51 1312.22 966.22 1315.22 C 959.93 1318.23 953.70 1321.92 947.70 1325.70 C 941.69 1329.47 934.65 1331.81 928.70 1335.70 C 922.74 1339.59 916.43 1342.88 910.22 1346.22 C 904.02 1349.57 898.04 1353.22 892.08 1357.08 C 886.11 1360.93 878.90 1362.82 873.08 1367.08 C 867.27 1371.34 860.34 1373.70 854.23 1377.23 C 848.12 1380.76 842.28 1384.72 836.22 1388.22 C 830.16 1391.72 823.13 1394.54 817.25 1398.25 C 811.37 1401.95 804.77 1405.28 798.70 1408.70 C 792.62 1412.11 786.13 1416.29 780.08 1419.08 C 774.04 1421.87 767.74 1427.73 762.07 1430.07 C 756.41 1432.42 747.90 1438.34 743.23 1440.23 C 738.56 1442.12 727.73 1451.73 725.00 1449.00
C 719.98 1443.98 725.59 1430.53 724.00 1423.00 C 722.41 1415.47 724.69 1404.45 724.00 1396.00 C 723.31 1387.55 724.33 1376.81 724.00 1368.00 C 723.67 1359.19 724.15 1349.96 724.00 1341.00 C 723.85 1332.04 724.08 1323.09 724.00 1314.00 C 723.92 1304.91 724.06 1295.15 724.00 1286.00
C 721.10 1286.04 719.07 1283.28 717.00 1282.00
C 701.40 1274.20 688.20 1265.56 673.70 1257.31 C 659.19 1249.05 644.57 1241.17 630.23 1232.77 C 615.89 1224.37 601.96 1216.71 587.69 1208.31 C 573.43 1199.90 558.48 1192.18 544.23 1183.77 C 529.98 1175.36 516.17 1167.77 501.70 1159.31 C 487.22 1150.84 472.58 1143.19 458.23 1134.77 C 443.88 1126.35 430.01 1118.63 415.69 1110.31 C 401.38 1101.98 386.61 1093.87 372.23 1085.77 C 357.85 1077.67 344.14 1069.43 330.03 1060.98 C 315.91 1052.52 300.12 1045.56 286.23 1036.77 C 272.34 1027.98 257.32 1021.09 243.70 1012.30 C 230.08 1003.52 213.22 996.98 200.25 987.75 C 187.27 978.52 169.05 973.89 158.00 963.00
C 156.10 966.49 155.54 975.51 156.00 983.00 C 156.46 990.49 155.80 998.31 156.00 1006.00 C 156.20 1013.69 155.91 1022.23 156.00 1030.00 C 156.09 1037.77 155.96 1045.20 156.00 1053.00 C 156.04 1060.80 155.99 1069.20 156.00 1077.00 C 156.01 1084.80 156.01 1092.24 156.00 1100.00 C 155.99 1107.76 156.04 1115.20 156.00 1123.00 C 155.96 1130.80 156.08 1139.20 156.00 1147.00 C 155.92 1154.80 156.19 1162.24 156.00 1170.00 C 155.81 1177.76 156.40 1186.33 156.00 1194.00 C 155.60 1201.67 156.93 1209.54 156.00 1217.00 C 155.07 1224.46 158.08 1232.90 156.00 1240.00 Z"/>
</g>
<g fill="None" fill-opacity="0.0" stroke="#FFC500" stroke-opacity="0.27" stroke-width="0.3"><path d="
M 1041.00 1112.00 
C 1042.07 1111.63 1042.65 1111.29 1043.00 1111.00
C 1042.09 1111.38 1041.71 1111.59 1041.00 1112.00 Z"/>
</g>
<g fill="None" fill-opacity="0.0" stroke="#FFC900" stroke-opacity="0.29" stroke-width="0.3"><path d="
M 981.00 1145.00 
C 982.80 1144.42 983.19 1143.38 985.00 1142.00
C 983.39 1142.82 982.33 1144.19 981.00 1145.00 Z"/>
</g>
<g fill="None" fill-opacity="0.0" stroke="#FFC600" stroke-opacity="0.38" stroke-width="0.3"><path d="
M 835.00 1224.00 
C 836.82 1223.40 836.22 1222.69 837.00 1222.00
C 836.13 1222.56 835.74 1223.45 835.00 1224.00 Z"/>
</g>
<g fill="None" fill-opacity="0.0" stroke="#FFC800" stroke-opacity="0.27" stroke-width="0.3"><path d="
M 770.00 1259.00 
C 771.54 1258.41 772.32 1257.30 774.00 1256.00
C 772.32 1256.86 771.38 1258.08 770.00 1259.00 Z"/>
</g>
<g fill="None" fill-opacity="0.0" stroke="#FFCB00" stroke-opacity="0.26" stroke-width="0.3"><path d="
M 1041.00 1273.00 
C 1042.61 1272.16 1043.66 1270.83 1045.00 1270.00
C 1043.23 1270.60 1042.81 1271.57 1041.00 1273.00 Z"/>
</g>
<g fill="None" fill-opacity="0.0" stroke="#FFBB00" stroke-opacity="0.08" stroke-width="0.3"><path d="
M 724.00 1286.00 
C 722.72 1283.99 719.03 1283.01 717.00 1282.00
C 719.07 1283.28 721.10 1286.04 724.00 1286.00 Z"/>
</g>
<g fill="None" fill-opacity="0.0" stroke="#FEFF00" stroke-opacity="0.00" stroke-width="0.3"><path d="
M 725.00 1449.00 
C 721.88 1444.06 726.48 1433.94 725.00 1428.00 C 723.52 1422.06 725.65 1414.45 725.00 1408.00 C 724.35 1401.55 725.33 1393.64 725.00 1387.00 C 724.67 1380.36 725.20 1373.72 725.00 1367.00 C 724.80 1360.28 725.21 1352.70 725.00 1346.00 C 724.79 1339.30 725.38 1332.58 725.00 1326.00 C 724.62 1319.42 725.75 1311.30 725.00 1305.00 C 724.25 1298.70 727.19 1290.99 724.00 1286.00
C 724.06 1295.15 723.92 1304.91 724.00 1314.00 C 724.08 1323.09 723.85 1332.04 724.00 1341.00 C 724.15 1349.96 723.67 1359.19 724.00 1368.00 C 724.33 1376.81 723.31 1387.55 724.00 1396.00 C 724.69 1404.45 722.41 1415.47 724.00 1423.00 C 725.59 1430.53 719.98 1443.98 725.00 1449.00 Z"/>
</g>
<g fill="None" fill-opacity="0.0" stroke="#FF9E00" stroke-opacity="0.24" stroke-width="0.3"><path d="
M 1096.00 1355.00 
C 1096.73 1354.70 1097.82 1354.15 1098.00 1354.00
C 1096.95 1354.44 1096.82 1354.42 1096.00 1355.00 Z"/>
</g>
<g fill="None" fill-opacity="0.0" stroke="#FFAA00" stroke-opacity="0.26" stroke-width="0.3"><path d="
M 926.00 1452.00 
C 926.73 1451.70 927.82 1451.15 928.00 1451.00
C 926.95 1451.44 926.82 1451.42 926.00 1452.00 Z"/>
</g>
<g fill="None" fill-opacity="0.0" stroke="#FFB700" stroke-opacity="0.35" stroke-width="0.3"><path d="
M 1143.00 1521.00 
C 1143.32 1520.80 1143.73 1520.18 1144.00 1520.00
C 1144.41 1519.82 1138.60 1520.43 1143.00 1521.00 Z"/>
</g>
<g fill="None" fill-opacity="0.0" stroke="#FFC500" stroke-opacity="0.40" stroke-width="0.3"><path d="
M 764.00 1545.00 
C 765.65 1544.37 765.24 1543.71 766.00 1543.00
C 765.18 1543.58 764.72 1544.42 764.00 1545.00 Z"/>
</g>
<g fill="#000000" fill-opacity="0.00" stroke="None">
<path d="
M 0.00 1759.00 
L 727.00 1759.00
C 715.83 1751.00 703.28 1744.44 691.30 1737.70 C 679.33 1730.96 667.29 1723.60 655.30 1716.70 C 643.31 1709.80 630.95 1702.93 618.92 1696.08 C 606.89 1689.23 595.00 1682.14 582.92 1675.08 C 570.83 1668.02 558.43 1661.65 546.31 1654.69 C 534.18 1647.74 522.88 1640.52 510.75 1633.25 C 498.63 1625.98 485.83 1620.50 473.92 1613.08 C 462.01 1605.65 449.89 1599.14 437.77 1592.23 C 425.65 1585.32 414.04 1578.22 401.77 1571.23 C 389.50 1564.24 377.07 1557.07 364.77 1550.23 C 352.47 1543.39 340.84 1536.23 328.77 1529.23 C 316.70 1522.23 304.24 1515.61 292.26 1508.74 C 280.27 1501.87 268.27 1494.62 256.25 1487.75 C 244.24 1480.87 231.81 1474.21 219.78 1467.22 C 207.75 1460.24 195.93 1453.05 183.77 1446.23 C 171.61 1439.41 159.92 1432.37 147.77 1425.23 C 135.62 1418.09 123.43 1412.01 111.25 1404.75 C 99.07 1397.48 87.79 1391.33 75.30 1383.70 C 62.81 1376.06 51.07 1370.74 38.25 1362.75 C 25.44 1354.76 8.70 1351.63 11.00 1333.00 C 13.30 1314.37 9.96 1294.84 11.00 1276.00 C 12.04 1257.16 10.53 1237.93 11.00 1219.00 C 11.47 1200.07 10.79 1180.97 11.00 1162.00 C 11.21 1143.03 10.90 1123.99 11.00 1105.00 C 11.10 1086.01 10.96 1067.01 11.00 1048.00 C 11.04 1028.99 10.98 1010.04 11.00 991.00 C 11.02 971.96 10.99 953.09 11.00 934.00 C 11.01 914.91 11.00 895.09 11.00 876.00 C 11.00 856.91 11.00 838.04 11.00 819.00 C 11.00 799.96 11.00 781.02 11.00 762.00 C 11.00 742.98 11.00 724.01 11.00 705.00 C 11.00 685.99 11.00 667.01 11.00 648.00 C 11.00 628.99 11.00 610.01 11.00 591.00 C 11.00 571.99 11.00 553.03 11.00 534.00 C 11.00 514.97 11.00 496.06 11.00 477.00 C 11.00 457.94 11.00 439.14 11.00 420.00 C 11.00 400.86 11.00 381.19 11.00 362.00
C 488.67 362.00 966.33 362.00 1444.00 362.00
C 1444.01 478.00 1443.99 594.00 1444.00 710.00
C 1398.75 734.56 1354.35 760.47 1309.00 785.00
C 1307.24 786.09 1305.66 788.71 1303.00 788.00
C 1303.00 688.33 1303.00 588.67 1303.00 489.00
C 1289.10 485.69 1273.34 490.50 1259.00 489.00 C 1244.66 487.50 1229.57 489.70 1215.00 489.00 C 1200.43 488.30 1185.72 489.36 1171.00 489.00 C 1156.28 488.64 1140.79 489.27 1126.00 489.00
C 1125.99 624.34 1126.01 759.66 1126.00 895.00
C 1096.58 909.43 1068.90 927.68 1040.00 942.00
C 1038.67 942.85 1037.57 944.13 1036.00 945.00
C 1027.82 949.52 1019.31 955.39 1010.78 958.78 C 1002.25 962.16 994.19 971.62 985.00 973.00
C 984.54 973.07 983.11 974.85 982.00 974.00
C 982.00 968.33 982.00 962.67 982.00 957.00
C 982.00 953.33 982.00 949.67 982.00 946.00
C 982.00 940.09 981.45 933.88 982.00 928.00
C 981.10 918.71 981.00 908.00 981.00 898.00
C 981.00 888.48 981.92 878.47 981.00 869.00
C 979.18 850.23 980.00 829.52 980.00 810.00
C 980.00 753.39 977.99 697.57 978.00 641.00
C 978.00 638.67 978.00 636.33 978.00 634.00
C 977.58 629.62 977.00 624.07 977.00 619.00
C 977.00 601.76 977.39 584.94 976.00 568.00 C 974.61 551.06 977.64 532.98 976.00 516.00
C 975.83 514.25 975.05 511.40 975.00 509.00
C 974.87 502.47 974.41 495.51 975.00 489.00
C 918.00 489.02 861.00 489.00 804.00 489.00
C 804.98 499.73 803.57 510.17 804.00 521.00 C 804.43 531.83 803.81 543.08 804.00 554.00 C 804.19 564.92 803.91 576.04 804.00 587.00 C 804.09 597.96 803.96 609.03 804.00 620.00 C 804.04 630.97 803.98 642.05 804.00 653.00 C 804.02 663.95 803.99 675.09 804.00 686.00 C 804.01 696.91 804.00 707.09 804.00 718.00 C 804.00 728.91 804.00 740.04 804.00 751.00 C 804.00 761.96 804.00 773.03 804.00 784.00 C 804.00 794.97 804.01 806.03 804.00 817.00 C 803.99 827.97 804.02 839.05 804.00 850.00 C 803.98 860.95 804.03 872.11 804.00 883.00 C 803.97 893.89 804.08 904.14 804.00 915.00 C 803.92 925.86 804.16 937.16 804.00 948.00 C 803.84 958.84 804.36 970.28 804.00 981.00 C 803.64 991.72 804.80 1003.58 804.00 1014.00 C 803.20 1024.42 805.76 1037.27 804.00 1047.00 C 802.24 1056.73 808.37 1071.48 803.00 1079.00
C 798.00 1086.00 784.82 1087.04 777.77 1092.77 C 770.73 1098.50 760.07 1101.12 752.30 1106.30 C 744.54 1111.48 734.34 1115.75 726.00 1120.00
C 726.00 1174.00 726.00 1228.00 726.00 1282.00
C 741.07 1274.81 754.94 1265.72 770.00 1259.00
C 771.38 1258.08 772.32 1256.86 774.00 1256.00
C 793.75 1245.92 813.96 1230.95 835.00 1224.00
C 835.74 1223.45 836.13 1222.56 837.00 1222.00
C 852.02 1212.41 868.73 1205.10 884.25 1196.25 C 899.76 1187.40 916.54 1178.65 932.70 1170.70 C 948.85 1162.74 963.91 1150.52 981.00 1145.00
C 982.33 1144.19 983.39 1142.82 985.00 1142.00
C 1003.80 1132.36 1022.72 1122.63 1041.00 1112.00
C 1041.71 1111.59 1042.09 1111.38 1043.00 1111.00
C 1068.02 1100.50 1090.30 1083.55 1114.75 1071.75 C 1139.20 1059.95 1162.73 1045.45 1186.70 1032.70 C 1210.66 1019.94 1235.07 1006.80 1258.69 993.69 C 1282.32 980.59 1306.94 968.09 1330.00 954.00
C 1331.29 953.21 1332.65 952.67 1334.00 952.00
C 1345.54 946.28 1357.56 936.51 1370.00 933.00
C 1371.33 932.20 1372.39 930.82 1374.00 930.00
C 1397.69 917.85 1420.33 903.85 1444.00 892.00
C 1444.00 1043.67 1444.00 1195.33 1444.00 1347.00
C 1343.65 1404.15 1244.61 1463.04 1144.00 1520.00
C 1143.73 1520.18 1143.32 1520.80 1143.00 1521.00
C 1009.14 1604.04 867.30 1676.08 733.00 1759.00
L 1455.00 1759.00
L 1455.00 0.00
L 1297.00 0.00
C 1297.00 9.80 1297.00 19.15 1297.00 29.00 C 1297.00 38.85 1297.01 49.11 1297.00 59.00 C 1296.99 68.89 1297.01 79.14 1297.00 89.00 C 1296.99 98.86 1297.03 108.16 1297.00 118.00 C 1296.97 127.84 1297.06 138.18 1297.00 148.00 C 1296.94 157.82 1297.13 168.31 1297.00 178.00 C 1296.87 187.69 1297.29 197.57 1297.00 207.00 C 1296.70 216.43 1297.63 228.07 1297.00 237.00 C 1296.37 245.93 1298.39 259.29 1297.00 267.00 C 1295.61 274.71 1300.98 292.11 1295.00 295.00
C 1287.34 298.70 1275.71 293.39 1267.00 295.00 C 1258.29 296.61 1247.15 294.25 1238.00 295.00 C 1228.85 295.75 1219.38 294.67 1210.00 295.00 C 1200.62 295.33 1190.50 294.85 1181.00 295.00 C 1171.50 295.15 1161.52 294.93 1152.00 295.00 C 1142.48 295.07 1133.54 294.97 1124.00 295.00 C 1114.46 295.03 1104.58 294.99 1095.00 295.00 C 1085.42 295.01 1075.55 294.99 1066.00 295.00 C 1056.45 295.01 1047.55 295.00 1038.00 295.00 C 1028.45 295.00 1018.58 295.00 1009.00 295.00 C 999.42 295.00 989.55 295.00 980.00 295.00 C 970.45 295.00 961.55 295.00 952.00 295.00 C 942.45 295.00 932.58 295.00 923.00 295.00 C 913.42 295.00 903.55 295.00 894.00 295.00 C 884.45 295.00 875.55 295.00 866.00 295.00 C 856.45 295.00 846.58 295.00 837.00 295.00 C 827.42 295.00 817.55 295.00 808.00 295.00 C 798.45 295.00 789.55 295.00 780.00 295.00 C 770.45 295.00 760.58 295.00 751.00 295.00 C 741.42 295.00 731.54 295.00 722.00 295.00 C 712.46 295.00 703.53 295.00 694.00 295.00 C 684.47 295.00 674.53 295.00 665.00 295.00 C 655.47 295.00 646.54 295.00 637.00 295.00 C 627.46 295.00 617.58 295.00 608.00 295.00 C 598.42 295.00 588.55 295.00 579.00 295.00 C 569.45 295.00 560.55 295.00 551.00 295.00 C 541.45 295.00 531.58 295.00 522.00 295.00 C 512.42 295.00 502.55 295.00 493.00 295.00 C 483.45 295.00 474.55 295.00 465.00 295.00 C 455.45 295.00 445.58 295.00 436.00 295.00 C 426.42 295.00 416.55 295.00 407.00 295.00 C 397.45 295.00 388.55 295.00 379.00 295.00 C 369.45 295.00 359.58 295.00 350.00 295.00 C 340.42 295.00 330.55 295.00 321.00 295.00 C 311.45 295.00 302.56 295.00 293.00 295.00 C 283.45 295.00 273.59 295.00 264.00 295.00 C 254.41 295.00 244.56 295.00 235.00 295.00 C 225.44 295.00 216.57 295.00 207.00 295.00 C 197.43 295.00 187.62 295.00 178.00 295.00 C 168.38 295.00 158.63 295.00 149.00 295.00
C 149.00 197.33 149.00 99.67 149.00 2.00
C 197.67 2.00 246.33 2.00 295.00 2.00
C 299.43 6.26 294.73 17.40 296.00 24.00 C 297.27 30.60 295.42 40.67 296.00 48.00 C 296.58 55.33 295.73 64.38 296.00 72.00 C 296.27 79.62 295.88 87.22 296.00 95.00 C 296.12 102.78 295.94 111.11 296.00 119.00 C 296.06 126.89 295.95 135.09 296.00 143.00
C 311.70 139.52 328.82 144.54 345.00 143.00 C 361.18 141.46 378.59 143.70 395.00 143.00 C 411.41 142.30 428.52 143.32 445.00 143.00 C 461.48 142.68 477.47 143.14 494.00 143.00 C 510.53 142.86 527.39 143.07 544.00 143.00 C 560.61 142.93 577.37 143.03 594.00 143.00 C 610.63 142.97 627.36 143.03 644.00 143.00
C 644.00 95.67 644.00 48.33 644.00 1.00
C 644.00 0.50 644.00 0.00 644.00 0.00
L 0.00 0.00
L 0.00 1759.00 Z"/>
</g>
<g fill="#FFB500" fill-opacity="0.08" stroke="None">
<path d="
M 644.00 1.00 
C 644.25 1.25 645.00 1.00 645.00 1.00
C 652.03 1.00 658.96 0.98 666.00 1.00 C 673.04 1.02 679.92 0.94 687.00 1.00 C 694.08 1.06 701.94 0.86 709.00 1.00 C 716.06 1.14 723.05 0.67 730.00 1.00 C 736.95 1.33 745.30 0.31 752.00 1.00 C 758.70 1.69 766.92 -0.60 773.00 1.00 C 779.08 2.60 790.14 -2.40 795.00 1.00
C 799.04 3.83 794.88 14.63 796.00 20.00 C 797.13 25.37 795.43 34.90 796.00 41.00 C 796.57 47.10 795.66 54.59 796.00 61.00 C 796.34 67.41 795.65 75.59 796.00 82.00 C 796.35 88.41 795.39 95.89 796.00 102.00 C 796.61 108.11 794.78 117.62 796.00 123.00 C 797.22 128.38 792.89 140.12 797.00 143.00
C 797.00 95.33 797.00 47.67 797.00 0.00
L 644.00 0.00
C 644.00 0.00 644.00 0.50 644.00 1.00 Z"/>
</g>
<g fill="#000000" fill-opacity="0.00" stroke="None">
<path d="
M 797.00 143.00 
C 801.80 146.36 811.80 141.57 818.00 143.00 C 824.20 144.43 833.19 142.35 840.00 143.00 C 846.81 143.65 854.94 142.70 862.00 143.00 C 869.06 143.30 876.86 142.86 884.00 143.00 C 891.14 143.14 897.80 142.94 905.00 143.00 C 912.20 143.06 919.74 142.97 927.00 143.00 C 934.26 143.03 941.73 142.99 949.00 143.00 C 956.27 143.01 963.77 142.99 971.00 143.00 C 978.23 143.01 984.76 143.00 992.00 143.00 C 999.24 143.00 1006.72 143.00 1014.00 143.00 C 1021.28 143.00 1028.72 143.00 1036.00 143.00 C 1043.28 143.00 1050.76 143.00 1058.00 143.00 C 1065.24 143.00 1071.76 143.00 1079.00 143.00 C 1086.25 143.00 1093.71 143.00 1101.00 143.00 C 1108.29 143.00 1115.69 143.00 1123.00 143.00 C 1130.31 143.00 1137.68 143.00 1145.00 143.00
C 1140.64 95.74 1148.27 47.37 1145.00 0.00
L 797.00 0.00
C 797.00 47.67 797.00 95.33 797.00 143.00 Z"/>
</g>
<g fill="#FEB600" fill-opacity="0.79" stroke="None">
<path d="
M 1145.00 143.00 
C 1145.50 143.00 1146.00 143.00 1146.00 143.00
C 1150.27 95.72 1142.80 47.38 1146.00 0.00
L 1145.00 0.00
C 1148.27 47.37 1140.64 95.74 1145.00 143.00 Z"/>
</g>
<g fill="#FFB704" fill-opacity="1.00" stroke="None">
<path d="
M 1146.00 143.00 
C 1144.97 147.81 1131.29 144.18 1126.00 145.00 C 1120.72 145.82 1109.47 144.62 1103.00 145.00 C 1096.53 145.38 1088.06 144.83 1081.00 145.00 C 1073.94 145.17 1065.31 144.92 1058.00 145.00 C 1050.69 145.08 1043.45 144.97 1036.00 145.00 C 1028.55 145.03 1020.53 144.98 1013.00 145.00 C 1005.47 145.02 997.52 144.99 990.00 145.00 C 982.48 145.01 975.52 144.99 968.00 145.00 C 960.48 145.01 952.53 144.99 945.00 145.00 C 937.47 145.01 930.54 144.99 923.00 145.00 C 915.46 145.01 907.58 144.97 900.00 145.00 C 892.42 145.03 884.55 144.94 877.00 145.00 C 869.45 145.06 862.56 144.87 855.00 145.00 C 847.44 145.13 839.59 144.73 832.00 145.00 C 824.41 145.27 817.69 144.37 810.00 145.00 C 802.31 145.63 793.62 146.09 795.00 137.00 C 796.38 127.91 794.35 122.26 795.00 114.00 C 795.65 105.74 794.72 99.84 795.00 92.00 C 795.28 84.16 794.87 76.68 795.00 69.00 C 795.13 61.32 794.94 54.62 795.00 47.00 C 795.06 39.38 794.97 31.64 795.00 24.00 C 795.03 16.36 794.98 8.65 795.00 1.00
C 790.14 -2.40 779.08 2.60 773.00 1.00 C 766.92 -0.60 758.70 1.69 752.00 1.00 C 745.30 0.31 736.95 1.33 730.00 1.00 C 723.05 0.67 716.06 1.14 709.00 1.00 C 701.94 0.86 694.08 1.06 687.00 1.00 C 679.92 0.94 673.04 1.02 666.00 1.00 C 658.96 0.98 652.03 1.00 645.00 1.00
C 645.61 7.71 644.76 14.23 645.00 21.00 C 645.24 27.77 644.92 35.21 645.00 42.00 C 645.08 48.79 645.06 55.24 645.00 62.00 C 644.94 68.76 645.21 76.32 645.00 83.00 C 644.79 89.68 645.50 97.62 645.00 104.00 C 644.50 110.38 646.20 118.30 645.00 124.00 C 643.80 129.70 647.98 139.99 644.07 144.07 C 640.16 148.16 629.70 143.71 624.00 145.00 C 618.30 146.29 610.36 144.45 604.00 145.00 C 597.64 145.55 589.63 144.74 583.00 145.00 C 576.37 145.26 569.78 144.89 563.00 145.00 C 556.22 145.11 548.87 144.95 542.00 145.00 C 535.13 145.05 527.86 144.98 521.00 145.00 C 514.14 145.02 507.88 144.99 501.00 145.00 C 494.12 145.01 486.90 145.00 480.00 145.00 C 473.10 145.00 465.87 145.00 459.00 145.00 C 452.13 145.00 445.85 145.01 439.00 145.00 C 432.15 144.99 424.83 145.02 418.00 145.00 C 411.17 144.98 404.80 145.05 398.00 145.00 C 391.20 144.95 383.74 145.10 377.00 145.00 C 370.26 144.90 362.50 145.23 356.00 145.00 C 349.50 144.77 341.98 145.54 336.00 145.00 C 330.02 144.46 320.00 146.14 315.00 145.00 C 310.00 143.86 296.99 147.97 295.00 144.00
C 291.07 141.81 295.08 129.98 294.00 125.00 C 292.92 120.02 294.43 111.02 294.00 105.00 C 293.57 98.98 294.14 90.41 294.00 84.00 C 293.86 77.59 293.90 70.54 294.00 64.00 C 294.10 57.46 293.64 49.47 294.00 43.00 C 294.36 36.53 293.07 29.12 294.00 23.00 C 294.93 16.88 291.53 7.69 295.00 3.00
C 295.00 2.50 295.00 2.00 295.00 2.00
C 246.33 2.00 197.67 2.00 149.00 2.00
C 149.00 99.67 149.00 197.33 149.00 295.00
C 158.63 295.00 168.38 295.00 178.00 295.00 C 187.62 295.00 197.43 295.00 207.00 295.00 C 216.57 295.00 225.44 295.00 235.00 295.00 C 244.56 295.00 254.41 295.00 264.00 295.00 C 273.59 295.00 283.45 295.00 293.00 295.00 C 302.56 295.00 311.45 295.00 321.00 295.00 C 330.55 295.00 340.42 295.00 350.00 295.00 C 359.58 295.00 369.45 295.00 379.00 295.00 C 388.55 295.00 397.45 295.00 407.00 295.00 C 416.55 295.00 426.42 295.00 436.00 295.00 C 445.58 295.00 455.45 295.00 465.00 295.00 C 474.55 295.00 483.45 295.00 493.00 295.00 C 502.55 295.00 512.42 295.00 522.00 295.00 C 531.58 295.00 541.45 295.00 551.00 295.00 C 560.55 295.00 569.45 295.00 579.00 295.00 C 588.55 295.00 598.42 295.00 608.00 295.00 C 617.58 295.00 627.46 295.00 637.00 295.00 C 646.54 295.00 655.47 295.00 665.00 295.00 C 674.53 295.00 684.47 295.00 694.00 295.00 C 703.53 295.00 712.46 295.00 722.00 295.00 C 731.54 295.00 741.42 295.00 751.00 295.00 C 760.58 295.00 770.45 295.00 780.00 295.00 C 789.55 295.00 798.45 295.00 808.00 295.00 C 817.55 295.00 827.42 295.00 837.00 295.00 C 846.58 295.00 856.45 295.00 866.00 295.00 C 875.55 295.00 884.45 295.00 894.00 295.00 C 903.55 295.00 913.42 295.00 923.00 295.00 C 932.58 295.00 942.45 295.00 952.00 295.00 C 961.55 295.00 970.45 295.00 980.00 295.00 C 989.55 295.00 999.42 295.00 1009.00 295.00 C 1018.58 295.00 1028.45 295.00 1038.00 295.00 C 1047.55 295.00 1056.45 295.01 1066.00 295.00 C 1075.55 294.99 1085.42 295.01 1095.00 295.00 C 1104.58 294.99 1114.46 295.03 1124.00 295.00 C 1133.54 294.97 1142.48 295.07 1152.00 295.00 C 1161.52 294.93 1171.50 295.15 1181.00 295.00 C 1190.50 294.85 1200.62 295.33 1210.00 295.00 C 1219.38 294.67 1228.85 295.75 1238.00 295.00 C 1247.15 294.25 1258.29 296.61 1267.00 295.00 C 1275.71 293.39 1287.34 298.70 1295.00 295.00
C 1295.00 196.67 1295.00 98.33 1295.00 0.00
L 1146.00 0.00
C 1142.80 47.38 1150.27 95.72 1146.00 143.00 Z"/>
</g>
<g fill="#FFB500" fill-opacity="0.42" stroke="None">
<path d="
M 1295.00 295.00 
C 1300.98 292.11 1295.61 274.71 1297.00 267.00 C 1298.39 259.29 1296.37 245.93 1297.00 237.00 C 1297.63 228.07 1296.70 216.43 1297.00 207.00 C 1297.29 197.57 1296.87 187.69 1297.00 178.00 C 1297.13 168.31 1296.94 157.82 1297.00 148.00 C 1297.06 138.18 1296.97 127.84 1297.00 118.00 C 1297.03 108.16 1296.99 98.86 1297.00 89.00 C 1297.01 79.14 1296.99 68.89 1297.00 59.00 C 1297.01 49.11 1297.00 38.85 1297.00 29.00 C 1297.00 19.15 1297.00 9.80 1297.00 0.00
L 1295.00 0.00
C 1295.00 98.33 1295.00 196.67 1295.00 295.00 Z"/>
</g>
<g fill="#FFB700" fill-opacity="0.63" stroke="None">
<path d="
M 296.00 143.00 
C 295.77 143.05 295.00 144.00 295.00 144.00
C 296.99 147.97 310.00 143.86 315.00 145.00 C 320.00 146.14 330.02 144.46 336.00 145.00 C 341.98 145.54 349.50 144.77 356.00 145.00 C 362.50 145.23 370.26 144.90 377.00 145.00 C 383.74 145.10 391.20 144.95 398.00 145.00 C 404.80 145.05 411.17 144.98 418.00 145.00 C 424.83 145.02 432.15 144.99 439.00 145.00 C 445.85 145.01 452.13 145.00 459.00 145.00 C 465.87 145.00 473.10 145.00 480.00 145.00 C 486.90 145.00 494.12 145.01 501.00 145.00 C 507.88 144.99 514.14 145.02 521.00 145.00 C 527.86 144.98 535.13 145.05 542.00 145.00 C 548.87 144.95 556.22 145.11 563.00 145.00 C 569.78 144.89 576.37 145.26 583.00 145.00 C 589.63 144.74 597.64 145.55 604.00 145.00 C 610.36 144.45 618.30 146.29 624.00 145.00 C 629.70 143.71 640.16 148.16 644.07 144.07 C 647.98 139.99 643.80 129.70 645.00 124.00 C 646.20 118.30 644.50 110.38 645.00 104.00 C 645.50 97.62 644.79 89.68 645.00 83.00 C 645.21 76.32 644.94 68.76 645.00 62.00 C 645.06 55.24 645.08 48.79 645.00 42.00 C 644.92 35.21 645.24 27.77 645.00 21.00 C 644.76 14.23 645.61 7.71 645.00 1.00
C 645.00 1.00 644.25 1.25 644.00 1.00
C 644.00 48.33 644.00 95.67 644.00 143.00
C 627.36 143.03 610.63 142.97 594.00 143.00 C 577.37 143.03 560.61 142.93 544.00 143.00 C 527.39 143.07 510.53 142.86 494.00 143.00 C 477.47 143.14 461.48 142.68 445.00 143.00 C 428.52 143.32 411.41 142.30 395.00 143.00 C 378.59 143.70 361.18 141.46 345.00 143.00 C 328.82 144.54 311.70 139.52 296.00 143.00 Z"/>
</g>
<g fill="#FFB700" fill-opacity="0.63" stroke="None">
<path d="
M 1146.00 143.00 
C 1146.00 143.00 1145.50 143.00 1145.00 143.00
C 1137.68 143.00 1130.31 143.00 1123.00 143.00 C 1115.69 143.00 1108.29 143.00 1101.00 143.00 C 1093.71 143.00 1086.25 143.00 1079.00 143.00 C 1071.76 143.00 1065.24 143.00 1058.00 143.00 C 1050.76 143.00 1043.28 143.00 1036.00 143.00 C 1028.72 143.00 1021.28 143.00 1014.00 143.00 C 1006.72 143.00 999.24 143.00 992.00 143.00 C 984.76 143.00 978.23 143.01 971.00 143.00 C 963.77 142.99 956.27 143.01 949.00 143.00 C 941.73 142.99 934.26 143.03 927.00 143.00 C 919.74 142.97 912.20 143.06 905.00 143.00 C 897.80 142.94 891.14 143.14 884.00 143.00 C 876.86 142.86 869.06 143.30 862.00 143.00 C 854.94 142.70 846.81 143.65 840.00 143.00 C 833.19 142.35 824.20 144.43 818.00 143.00 C 811.80 141.57 801.80 146.36 797.00 143.00
C 792.89 140.12 797.22 128.38 796.00 123.00 C 794.78 117.62 796.61 108.11 796.00 102.00 C 795.39 95.89 796.35 88.41 796.00 82.00 C 795.65 75.59 796.34 67.41 796.00 61.00 C 795.66 54.59 796.57 47.10 796.00 41.00 C 795.43 34.90 797.13 25.37 796.00 20.00 C 794.88 14.63 799.04 3.83 795.00 1.00
C 794.98 8.65 795.03 16.36 795.00 24.00 C 794.97 31.64 795.06 39.38 795.00 47.00 C 794.94 54.62 795.13 61.32 795.00 69.00 C 794.87 76.68 795.28 84.16 795.00 92.00 C 794.72 99.84 795.65 105.74 795.00 114.00 C 794.35 122.26 796.38 127.91 795.00 137.00 C 793.62 146.09 802.31 145.63 810.00 145.00 C 817.69 144.37 824.41 145.27 832.00 145.00 C 839.59 144.73 847.44 145.13 855.00 145.00 C 862.56 144.87 869.45 145.06 877.00 145.00 C 884.55 144.94 892.42 145.03 900.00 145.00 C 907.58 144.97 915.46 145.01 923.00 145.00 C 930.54 144.99 937.47 145.01 945.00 145.00 C 952.53 144.99 960.48 145.01 968.00 145.00 C 975.52 144.99 982.48 145.01 990.00 145.00 C 997.52 144.99 1005.47 145.02 1013.00 145.00 C 1020.53 144.98 1028.55 145.03 1036.00 145.00 C 1043.45 144.97 1050.69 145.08 1058.00 145.00 C 1065.31 144.92 1073.94 145.17 1081.00 145.00 C 1088.06 144.83 1096.53 145.38 1103.00 145.00 C 1109.47 144.62 1120.72 145.82 1126.00 145.00 C 1131.29 144.18 1144.97 147.81 1146.00 143.00 Z"/>
</g>
<g fill="#FFB800" fill-opacity="0.11" stroke="None">
<path d="
M 295.00 3.00 
C 295.00 18.46 294.56 34.60 295.00 50.00 C 295.44 65.40 293.82 81.85 295.00 97.00 C 296.18 112.15 291.84 129.10 296.00 143.00
C 295.95 135.09 296.06 126.89 296.00 119.00 C 295.94 111.11 296.12 102.78 296.00 95.00 C 295.88 87.22 296.27 79.62 296.00 72.00 C 295.73 64.38 296.58 55.33 296.00 48.00 C 295.42 40.67 297.27 30.60 296.00 24.00 C 294.73 17.40 299.43 6.26 295.00 2.00
C 295.00 2.00 295.00 2.50 295.00 3.00 Z"/>
</g>
<g fill="#FEB700" fill-opacity="0.71" stroke="None">
<path d="
M 295.00 144.00 
C 295.00 144.00 295.77 143.05 296.00 143.00
C 291.84 129.10 296.18 112.15 295.00 97.00 C 293.82 81.85 295.44 65.40 295.00 50.00 C 294.56 34.60 295.00 18.46 295.00 3.00
C 291.53 7.69 294.93 16.88 294.00 23.00 C 293.07 29.12 294.36 36.53 294.00 43.00 C 293.64 49.47 294.10 57.46 294.00 64.00 C 293.90 70.54 293.86 77.59 294.00 84.00 C 294.14 90.41 293.57 98.98 294.00 105.00 C 294.43 111.02 292.92 120.02 294.00 125.00 C 295.08 129.98 291.07 141.81 295.00 144.00 Z"/>
</g>
<g fill="#FCB400" fill-opacity="1.00" stroke="None">
<path d="
M 727.00 1759.00 
L 733.00 1759.00
C 867.30 1676.08 1009.14 1604.04 1143.00 1521.00
C 1138.60 1520.43 1144.41 1519.82 1144.00 1520.00
C 1244.61 1463.04 1343.65 1404.15 1444.00 1347.00
C 1444.00 1195.33 1444.00 1043.67 1444.00 892.00
C 1420.33 903.85 1397.69 917.85 1374.00 930.00
C 1373.11 930.72 1372.30 932.35 1370.00 933.00
C 1357.56 936.51 1345.54 946.28 1334.00 952.00
C 1333.72 952.24 1334.68 953.59 1332.76 954.77 C 1330.85 955.94 1329.56 954.13 1330.00 954.00
C 1306.94 968.09 1282.32 980.59 1258.69 993.69 C 1235.07 1006.80 1210.66 1019.94 1186.70 1032.70 C 1162.73 1045.45 1139.20 1059.95 1114.75 1071.75 C 1090.30 1083.55 1068.02 1100.50 1043.00 1111.00
C 1042.65 1111.29 1042.07 1111.63 1041.00 1112.00
C 1022.72 1122.63 1003.80 1132.36 985.00 1142.00
C 983.19 1143.38 982.80 1144.42 981.00 1145.00
C 963.91 1150.52 948.85 1162.74 932.70 1170.70 C 916.54 1178.65 899.76 1187.40 884.25 1196.25 C 868.73 1205.10 852.02 1212.41 837.00 1222.00
C 836.22 1222.69 836.82 1223.40 835.00 1224.00
C 813.96 1230.95 793.75 1245.92 774.00 1256.00
C 772.32 1257.30 771.54 1258.41 770.00 1259.00
C 754.94 1265.72 741.07 1274.81 726.00 1282.00
C 726.00 1228.00 726.00 1174.00 726.00 1120.00
C 734.34 1115.75 744.54 1111.48 752.30 1106.30 C 760.07 1101.12 770.73 1098.50 777.77 1092.77 C 784.82 1087.04 798.00 1086.00 803.00 1079.00
C 800.67 1074.00 802.36 1064.97 802.00 1057.00 C 801.64 1049.03 802.16 1039.35 802.00 1031.00 C 801.84 1022.65 802.07 1013.52 802.00 1005.00 C 801.93 996.48 802.03 987.60 802.00 979.00 C 801.97 970.40 802.01 961.62 802.00 953.00 C 801.99 944.38 802.01 935.62 802.00 927.00 C 801.99 918.38 802.00 909.58 802.00 901.00 C 802.00 892.42 802.00 884.58 802.00 876.00 C 802.00 867.42 802.00 858.63 802.00 850.00 C 802.00 841.37 802.00 832.65 802.00 824.00 C 802.00 815.35 802.00 806.66 802.00 798.00 C 802.00 789.35 802.00 780.66 802.00 772.00 C 802.00 763.35 802.00 754.65 802.00 746.00 C 802.00 737.35 802.00 728.63 802.00 720.00 C 802.00 711.37 801.99 702.58 802.00 694.00 C 802.01 685.42 801.99 677.57 802.00 669.00 C 802.01 660.43 801.97 651.60 802.00 643.00 C 802.03 634.40 801.94 625.59 802.00 617.00 C 802.06 608.41 801.86 599.52 802.00 591.00 C 802.14 582.48 801.69 573.36 802.00 565.00 C 802.31 556.64 801.31 546.99 802.00 539.00 C 802.69 531.01 800.48 520.16 802.00 513.00 C 803.52 505.84 798.17 492.65 803.00 488.00
C 811.06 487.27 818.85 488.29 827.00 488.00 C 835.15 487.71 843.80 488.08 852.00 488.00 C 860.20 487.92 868.83 487.93 877.00 488.00 C 885.17 488.07 893.97 487.74 902.00 488.00 C 910.03 488.26 919.32 487.36 927.00 488.00 C 934.68 488.64 945.10 486.56 952.00 488.00 C 958.90 489.44 971.52 484.34 976.00 489.00
C 978.95 491.87 976.03 497.94 977.00 502.00 C 977.97 506.06 976.33 512.58 976.00 516.00
C 977.64 532.98 974.61 551.06 976.00 568.00 C 977.39 584.94 977.00 601.76 977.00 619.00
C 977.00 618.96 978.00 619.00 978.00 619.00
C 978.00 615.33 978.00 611.67 978.00 608.00
C 979.66 617.93 979.68 631.14 978.00 641.00
C 977.99 697.57 980.00 753.39 980.00 810.00
C 981.80 828.63 982.83 850.08 981.00 869.00
C 981.92 878.47 981.00 888.48 981.00 898.00
C 981.00 897.96 982.00 898.00 982.00 898.00
C 981.95 895.67 982.04 893.33 982.00 891.00
C 983.96 892.45 982.56 895.80 983.00 898.00
C 983.20 908.05 982.91 918.35 982.00 928.00
C 981.45 933.88 982.00 940.09 982.00 946.00
C 982.00 945.96 983.00 946.00 983.00 946.00
C 985.40 948.32 984.00 956.57 984.00 960.00
C 984.00 964.30 983.29 969.12 985.00 973.00
C 994.19 971.62 1002.25 962.16 1010.78 958.78 C 1019.31 955.39 1027.82 949.52 1036.00 945.00
C 1037.01 944.10 1037.66 942.72 1040.00 942.00
C 1068.90 927.68 1096.58 909.43 1126.00 895.00
C 1126.01 759.66 1125.99 624.34 1126.00 489.00
C 1140.79 489.27 1156.28 488.64 1171.00 489.00 C 1185.72 489.36 1200.43 488.30 1215.00 489.00 C 1229.57 489.70 1244.66 487.50 1259.00 489.00 C 1273.34 490.50 1289.10 485.69 1303.00 489.00
C 1307.38 490.04 1304.34 503.27 1305.00 510.00 C 1305.66 516.73 1304.70 527.39 1305.00 535.00 C 1305.30 542.61 1304.87 551.99 1305.00 560.00 C 1305.13 568.01 1304.94 576.81 1305.00 585.00 C 1305.06 593.19 1304.97 601.73 1305.00 610.00 C 1305.03 618.27 1304.99 626.70 1305.00 635.00 C 1305.01 643.30 1304.99 651.68 1305.00 660.00 C 1305.01 668.32 1305.00 676.67 1305.00 685.00 C 1305.00 693.33 1305.00 701.67 1305.00 710.00 C 1305.00 718.33 1305.00 726.67 1305.00 735.00 C 1305.00 743.33 1305.00 751.67 1305.00 760.00 C 1305.00 768.33 1305.00 776.67 1305.00 785.00
C 1306.39 785.54 1308.25 782.70 1309.00 785.00
C 1354.35 760.47 1398.75 734.56 1444.00 710.00
C 1443.99 594.00 1444.01 478.00 1444.00 362.00
C 966.33 362.00 488.67 362.00 11.00 362.00
C 11.00 381.19 11.00 400.86 11.00 420.00 C 11.00 439.14 11.00 457.94 11.00 477.00 C 11.00 496.06 11.00 514.97 11.00 534.00 C 11.00 553.03 11.00 571.99 11.00 591.00 C 11.00 610.01 11.00 628.99 11.00 648.00 C 11.00 667.01 11.00 685.99 11.00 705.00 C 11.00 724.01 11.00 742.98 11.00 762.00 C 11.00 781.02 11.00 799.96 11.00 819.00 C 11.00 838.04 11.00 856.91 11.00 876.00 C 11.00 895.09 11.01 914.91 11.00 934.00 C 10.99 953.09 11.02 971.96 11.00 991.00 C 10.98 1010.04 11.04 1028.99 11.00 1048.00 C 10.96 1067.01 11.10 1086.01 11.00 1105.00 C 10.90 1123.99 11.21 1143.03 11.00 1162.00 C 10.79 1180.97 11.47 1200.07 11.00 1219.00 C 10.53 1237.93 12.04 1257.16 11.00 1276.00 C 9.96 1294.84 13.30 1314.37 11.00 1333.00 C 8.70 1351.63 25.44 1354.76 38.25 1362.75 C 51.07 1370.74 62.81 1376.06 75.30 1383.70 C 87.79 1391.33 99.07 1397.48 111.25 1404.75 C 123.43 1412.01 135.62 1418.09 147.77 1425.23 C 159.92 1432.37 171.61 1439.41 183.77 1446.23 C 195.93 1453.05 207.75 1460.24 219.78 1467.22 C 231.81 1474.21 244.24 1480.87 256.25 1487.75 C 268.27 1494.62 280.27 1501.87 292.26 1508.74 C 304.24 1515.61 316.70 1522.23 328.77 1529.23 C 340.84 1536.23 352.47 1543.39 364.77 1550.23 C 377.07 1557.07 389.50 1564.24 401.77 1571.23 C 414.04 1578.22 425.65 1585.32 437.77 1592.23 C 449.89 1599.14 462.01 1605.65 473.92 1613.08 C 485.83 1620.50 498.63 1625.98 510.75 1633.25 C 522.88 1640.52 534.18 1647.74 546.31 1654.69 C 558.43 1661.65 570.83 1668.02 582.92 1675.08 C 595.00 1682.14 606.89 1689.23 618.92 1696.08 C 630.95 1702.93 643.31 1709.80 655.30 1716.70 C 667.29 1723.60 679.33 1730.96 691.30 1737.70 C 703.28 1744.44 715.83 1751.00 727.00 1759.00
M 333.00 486.00 
C 333.00 621.33 333.00 756.67 333.00 892.00
C 272.69 859.04 213.47 824.43 153.00 792.00
C 153.00 690.00 153.00 588.00 153.00 486.00
C 213.00 486.00 273.00 486.00 333.00 486.00
M 656.00 486.00 
C 655.23 684.95 657.39 883.15 657.00 1082.00
C 597.35 1048.66 536.50 1012.08 476.00 979.00
C 476.00 814.66 476.00 650.34 476.00 486.00
C 536.00 486.00 596.00 486.00 656.00 486.00
M 158.00 963.00 
C 169.05 973.89 187.27 978.52 200.25 987.75 C 213.22 996.98 230.08 1003.52 243.70 1012.30 C 257.32 1021.09 272.34 1027.98 286.23 1036.77 C 300.12 1045.56 315.91 1052.52 330.03 1060.98 C 344.14 1069.43 357.85 1077.67 372.23 1085.77 C 386.61 1093.87 401.38 1101.98 415.69 1110.31 C 430.01 1118.63 443.88 1126.35 458.23 1134.77 C 472.58 1143.19 487.22 1150.84 501.70 1159.31 C 516.17 1167.77 529.98 1175.36 544.23 1183.77 C 558.48 1192.18 573.43 1199.90 587.69 1208.31 C 601.96 1216.71 615.89 1224.37 630.23 1232.77 C 644.57 1241.17 659.19 1249.05 673.70 1257.31 C 688.20 1265.56 701.40 1274.20 716.23 1281.77
C 719.03 1283.01 722.72 1283.99 724.00 1286.00
C 727.19 1290.99 724.25 1298.70 725.00 1305.00 C 725.75 1311.30 724.62 1319.42 725.00 1326.00 C 725.38 1332.58 724.79 1339.30 725.00 1346.00 C 725.21 1352.70 724.80 1360.28 725.00 1367.00 C 725.20 1373.72 724.67 1380.36 725.00 1387.00 C 725.33 1393.64 724.35 1401.55 725.00 1408.00 C 725.65 1414.45 723.52 1422.06 725.00 1428.00 C 726.48 1433.94 721.88 1444.06 725.00 1449.00
C 727.73 1451.73 738.56 1442.12 743.23 1440.23 C 747.90 1438.34 756.41 1432.42 762.07 1430.07 C 767.74 1427.73 774.04 1421.87 780.08 1419.08 C 786.13 1416.29 792.62 1412.11 798.70 1408.70 C 804.77 1405.28 811.37 1401.95 817.25 1398.25 C 823.13 1394.54 830.16 1391.72 836.22 1388.22 C 842.28 1384.72 848.12 1380.76 854.23 1377.23 C 860.34 1373.70 867.27 1371.34 873.08 1367.08 C 878.90 1362.82 886.11 1360.93 892.08 1357.08 C 898.04 1353.22 904.02 1349.57 910.22 1346.22 C 916.43 1342.88 922.74 1339.59 928.70 1335.70 C 934.65 1331.81 941.69 1329.47 947.70 1325.70 C 953.70 1321.92 959.93 1318.23 966.22 1315.22 C 972.51 1312.22 978.05 1307.55 984.23 1304.23 C 990.41 1300.91 997.27 1298.17 1003.23 1294.23 C 1009.19 1290.29 1015.58 1287.49 1021.75 1283.75 C 1027.91 1280.00 1034.64 1276.33 1041.00 1273.00
C 1042.81 1271.57 1043.23 1270.60 1045.00 1270.00
C 1067.92 1262.24 1087.34 1244.51 1109.25 1234.25 C 1131.16 1223.98 1151.67 1209.41 1173.25 1198.25 C 1194.82 1187.08 1215.69 1173.79 1237.25 1162.25 C 1258.80 1150.70 1279.81 1137.20 1302.00 1127.00
C 1302.01 1164.00 1301.99 1201.00 1302.00 1238.00
C 1233.85 1275.95 1165.67 1315.41 1098.00 1354.00
C 1097.82 1354.15 1096.73 1354.70 1096.00 1355.00
C 1078.57 1367.27 1058.55 1376.35 1040.25 1387.25 C 1021.95 1398.14 1002.79 1408.90 983.92 1418.92 C 965.06 1428.95 947.10 1442.99 928.00 1451.00
C 927.82 1451.15 926.73 1451.70 926.00 1452.00
C 900.96 1469.63 871.66 1480.20 846.31 1497.31 C 820.95 1514.41 790.88 1525.40 766.00 1543.00
C 765.24 1543.71 765.65 1544.37 764.00 1545.00
C 752.24 1549.53 739.97 1562.03 727.92 1564.92 C 715.88 1567.82 703.64 1551.29 691.92 1547.08 C 680.20 1542.87 667.91 1532.34 656.25 1526.75 C 644.59 1521.17 632.47 1512.75 620.75 1506.25 C 609.03 1499.74 596.80 1492.84 584.92 1486.08 C 573.05 1479.32 560.76 1471.94 548.77 1465.23 C 536.78 1458.52 525.07 1451.48 513.30 1444.70 C 501.54 1437.91 489.22 1431.58 477.32 1424.68 C 465.42 1417.78 454.02 1410.37 441.92 1404.08 C 429.82 1397.79 418.61 1390.01 406.75 1383.25 C 394.89 1376.48 382.58 1370.12 370.75 1363.25 C 358.93 1356.37 346.59 1349.16 334.75 1342.25 C 322.91 1335.33 310.79 1329.15 298.92 1322.08 C 287.06 1315.01 275.30 1308.39 263.30 1301.70 C 251.31 1295.01 239.90 1287.80 227.92 1281.08 C 215.93 1274.36 204.06 1267.75 191.92 1261.08 C 179.79 1254.40 168.35 1246.21 156.00 1240.00
C 154.16 1239.07 153.57 1231.98 154.00 1225.00 C 154.43 1218.02 153.81 1211.01 154.00 1204.00 C 154.19 1196.99 153.91 1190.04 154.00 1183.00 C 154.09 1175.96 153.96 1169.10 154.00 1162.00 C 154.04 1154.90 153.98 1147.10 154.00 1140.00 C 154.02 1132.90 153.99 1126.05 154.00 1119.00 C 154.01 1111.95 154.00 1105.04 154.00 1098.00 C 154.00 1090.96 154.00 1084.05 154.00 1077.00 C 154.00 1069.95 154.00 1063.09 154.00 1056.00 C 154.00 1048.91 153.99 1041.06 154.00 1034.00 C 154.01 1026.94 153.99 1019.96 154.00 1013.00 C 154.01 1006.04 153.97 998.82 154.00 992.00 C 154.03 985.18 153.93 977.57 154.00 971.00 C 154.07 964.43 153.12 965.38 154.78 960.78 C 156.43 956.17 161.02 965.97 158.00 963.00 Z"/>
</g>
<g fill="#000000" fill-opacity="0.00" stroke="None">
<path d="
M 333.00 486.00 
C 273.00 486.00 213.00 486.00 153.00 486.00
C 153.00 588.00 153.00 690.00 153.00 792.00
C 213.47 824.43 272.69 859.04 333.00 892.00
C 333.00 756.67 333.00 621.33 333.00 486.00 Z"/>
</g>
<g fill="#000000" fill-opacity="0.00" stroke="None">
<path d="
M 656.00 486.00 
C 596.00 486.00 536.00 486.00 476.00 486.00
C 476.00 650.34 476.00 814.66 476.00 979.00
C 536.50 1012.08 597.35 1048.66 657.00 1082.00
C 657.39 883.15 655.23 684.95 656.00 486.00 Z"/>
</g>
<g fill="#FFB600" fill-opacity="0.59" stroke="None">
<path d="
M 803.00 1079.00 
C 803.22 882.34 802.71 685.66 803.00 489.00
C 803.00 488.50 803.00 488.00 803.00 488.00
C 798.17 492.65 803.52 505.84 802.00 513.00 C 800.48 520.16 802.69 531.01 802.00 539.00 C 801.31 546.99 802.31 556.64 802.00 565.00 C 801.69 573.36 802.14 582.48 802.00 591.00 C 801.86 599.52 802.06 608.41 802.00 617.00 C 801.94 625.59 802.03 634.40 802.00 643.00 C 801.97 651.60 802.01 660.43 802.00 669.00 C 801.99 677.57 802.01 685.42 802.00 694.00 C 801.99 702.58 802.00 711.37 802.00 720.00 C 802.00 728.63 802.00 737.35 802.00 746.00 C 802.00 754.65 802.00 763.35 802.00 772.00 C 802.00 780.66 802.00 789.35 802.00 798.00 C 802.00 806.66 802.00 815.35 802.00 824.00 C 802.00 832.65 802.00 841.37 802.00 850.00 C 802.00 858.63 802.00 867.42 802.00 876.00 C 802.00 884.58 802.00 892.42 802.00 901.00 C 802.00 909.58 801.99 918.38 802.00 927.00 C 802.01 935.62 801.99 944.38 802.00 953.00 C 802.01 961.62 801.97 970.40 802.00 979.00 C 802.03 987.60 801.93 996.48 802.00 1005.00 C 802.07 1013.52 801.84 1022.65 802.00 1031.00 C 802.16 1039.35 801.64 1049.03 802.00 1057.00 C 802.36 1064.97 800.67 1074.00 803.00 1079.00 Z"/>
</g>
<g fill="#FEB600" fill-opacity="0.47" stroke="None">
<path d="
M 803.00 489.00 
C 803.25 489.25 804.00 489.00 804.00 489.00
C 861.00 489.00 918.00 489.02 975.00 489.00
C 975.50 489.00 976.00 489.00 976.00 489.00
C 971.52 484.34 958.90 489.44 952.00 488.00 C 945.10 486.56 934.68 488.64 927.00 488.00 C 919.32 487.36 910.03 488.26 902.00 488.00 C 893.97 487.74 885.17 488.07 877.00 488.00 C 868.83 487.93 860.20 487.92 852.00 488.00 C 843.80 488.08 835.15 487.71 827.00 488.00 C 818.85 488.29 811.06 487.27 803.00 488.00
C 803.00 488.00 803.00 488.50 803.00 489.00 Z"/>
</g>
<g fill="#FFB600" fill-opacity="0.35" stroke="None">
<path d="
M 1303.00 489.00 
C 1303.00 588.67 1303.00 688.33 1303.00 788.00
C 1305.66 788.71 1307.24 786.09 1309.00 785.00
C 1308.25 782.70 1306.39 785.54 1305.00 785.00
C 1305.00 776.67 1305.00 768.33 1305.00 760.00 C 1305.00 751.67 1305.00 743.33 1305.00 735.00 C 1305.00 726.67 1305.00 718.33 1305.00 710.00 C 1305.00 701.67 1305.00 693.33 1305.00 685.00 C 1305.00 676.67 1305.01 668.32 1305.00 660.00 C 1304.99 651.68 1305.01 643.30 1305.00 635.00 C 1304.99 626.70 1305.03 618.27 1305.00 610.00 C 1304.97 601.73 1305.06 593.19 1305.00 585.00 C 1304.94 576.81 1305.13 568.01 1305.00 560.00 C 1304.87 551.99 1305.30 542.61 1305.00 535.00 C 1304.70 527.39 1305.66 516.73 1305.00 510.00 C 1304.34 503.27 1307.38 490.04 1303.00 489.00 Z"/>
</g>
<g fill="#FF7F00" fill-opacity="0.01" stroke="None">
<path d="
M 803.00 1079.00 
C 808.37 1071.48 802.24 1056.73 804.00 1047.00 C 805.76 1037.27 803.20 1024.42 804.00 1014.00 C 804.80 1003.58 803.64 991.72 804.00 981.00 C 804.36 970.28 803.84 958.84 804.00 948.00 C 804.16 937.16 803.92 925.86 804.00 915.00 C 804.08 904.14 803.97 893.89 804.00 883.00 C 804.03 872.11 803.98 860.95 804.00 850.00 C 804.02 839.05 803.99 827.97 804.00 817.00 C 804.01 806.03 804.00 794.97 804.00 784.00 C 804.00 773.03 804.00 761.96 804.00 751.00 C 804.00 740.04 804.00 728.91 804.00 718.00 C 804.00 707.09 804.01 696.91 804.00 686.00 C 803.99 675.09 804.02 663.95 804.00 653.00 C 803.98 642.05 804.04 630.97 804.00 620.00 C 803.96 609.03 804.09 597.96 804.00 587.00 C 803.91 576.04 804.19 564.92 804.00 554.00 C 803.81 543.08 804.43 531.83 804.00 521.00 C 803.57 510.17 804.98 499.73 804.00 489.00
C 804.00 489.00 803.25 489.25 803.00 489.00
C 802.71 685.66 803.22 882.34 803.00 1079.00 Z"/>
</g>
<g fill="#FFB700" fill-opacity="0.35" stroke="None">
<path d="
M 975.00 509.00 
C 975.16 510.63 976.94 513.67 976.00 516.00
C 976.33 512.58 977.97 506.06 977.00 502.00 C 976.03 497.94 978.95 491.87 976.00 489.00
C 976.00 489.00 975.50 489.00 975.00 489.00
C 974.41 495.51 974.87 502.47 975.00 509.00 Z"/>
</g>
<g fill="#FFB600" fill-opacity="0.02" stroke="None">
<path d="
M 976.00 516.00 
C 976.94 513.67 975.16 510.63 975.00 509.00
C 975.05 511.40 975.83 514.25 976.00 516.00 Z"/>
</g>
<g fill="#FEB700" fill-opacity="0.78" stroke="None">
<path d="
M 978.00 619.00 
C 978.00 624.00 978.00 629.00 978.00 634.00
C 978.00 636.33 978.00 638.67 978.00 641.00
C 979.68 631.14 979.66 617.93 978.00 608.00
C 978.00 611.67 978.00 615.33 978.00 619.00 Z"/>
</g>
<g fill="#FFBC00" fill-opacity="0.09" stroke="None">
<path d="
M 978.00 634.00 
C 978.00 629.00 978.00 624.00 978.00 619.00
C 978.00 619.00 977.00 618.96 977.00 619.00
C 977.00 624.07 977.58 629.62 978.00 634.00 Z"/>
</g>
<g fill="#FFB500" fill-opacity="0.29" stroke="None">
<path d="
M 981.00 869.00 
C 982.83 850.08 981.80 828.63 980.00 810.00
C 980.00 829.52 979.18 850.23 981.00 869.00 Z"/>
</g>
<g fill="#FEB600" fill-opacity="0.75" stroke="None">
<path d="
M 982.00 898.00 
C 982.50 898.00 983.00 898.00 983.00 898.00
C 982.56 895.80 983.96 892.45 982.00 891.00
C 982.04 893.33 981.95 895.67 982.00 898.00 Z"/>
</g>
<g fill="#FFB800" fill-opacity="0.31" stroke="None">
<path d="
M 982.00 928.00 
C 982.91 918.35 983.20 908.05 983.00 898.00
C 983.00 898.00 982.50 898.00 982.00 898.00
C 982.00 898.00 981.00 897.96 981.00 898.00
C 981.00 908.00 981.10 918.71 982.00 928.00 Z"/>
</g>
<g fill="#FFA200" fill-opacity="0.33" stroke="None">
<path d="
M 1370.00 933.00 
C 1372.30 932.35 1373.11 930.72 1374.00 930.00
C 1372.39 930.82 1371.33 932.20 1370.00 933.00 Z"/>
</g>
<g fill="#FFC600" fill-opacity="0.34" stroke="None">
<path d="
M 1036.00 945.00 
C 1037.57 944.13 1038.67 942.85 1040.00 942.00
C 1037.66 942.72 1037.01 944.10 1036.00 945.00 Z"/>
</g>
<g fill="#FFB500" fill-opacity="0.24" stroke="None">
<path d="
M 982.00 957.00 
C 982.00 956.96 983.00 957.00 983.00 957.00
C 982.69 953.36 983.33 949.64 983.00 946.00
C 983.00 946.00 982.00 945.96 982.00 946.00
C 982.00 949.67 982.00 953.33 982.00 957.00 Z"/>
</g>
<g fill="#FEB600" fill-opacity="0.82" stroke="None">
<path d="
M 983.00 957.00 
C 983.12 958.34 983.83 959.21 984.00 960.00
C 984.00 956.57 985.40 948.32 983.00 946.00
C 983.33 949.64 982.69 953.36 983.00 957.00 Z"/>
</g>
<g fill="#FFC700" fill-opacity="0.32" stroke="None">
<path d="
M 1330.00 954.00 
C 1329.56 954.13 1330.85 955.94 1332.76 954.77 C 1334.68 953.59 1333.72 952.24 1334.00 952.00
C 1332.65 952.67 1331.29 953.21 1330.00 954.00 Z"/>
</g>
<g fill="#FFB600" fill-opacity="0.38" stroke="None">
<path d="
M 985.00 973.00 
C 983.29 969.12 984.00 964.30 984.00 960.00
C 983.83 959.21 983.12 958.34 983.00 957.00
C 983.00 957.00 982.00 956.96 982.00 957.00
C 982.00 962.67 982.00 968.33 982.00 974.00
C 983.11 974.85 984.54 973.07 985.00 973.00 Z"/>
</g>
<g fill="#FEB700" fill-opacity="0.62" stroke="None">
<path d="
M 156.00 1240.00 
C 158.08 1232.90 155.07 1224.46 156.00 1217.00 C 156.93 1209.54 155.60 1201.67 156.00 1194.00 C 156.40 1186.33 155.81 1177.76 156.00 1170.00 C 156.19 1162.24 155.92 1154.80 156.00 1147.00 C 156.08 1139.20 155.96 1130.80 156.00 1123.00 C 156.04 1115.20 155.99 1107.76 156.00 1100.00 C 156.01 1092.24 156.01 1084.80 156.00 1077.00 C 155.99 1069.20 156.04 1060.80 156.00 1053.00 C 155.96 1045.20 156.09 1037.77 156.00 1030.00 C 155.91 1022.23 156.20 1013.69 156.00 1006.00 C 155.80 998.31 156.46 990.49 156.00 983.00 C 155.54 975.51 156.10 966.49 158.00 963.00
C 161.02 965.97 156.43 956.17 154.78 960.78 C 153.12 965.38 154.07 964.43 154.00 971.00 C 153.93 977.57 154.03 985.18 154.00 992.00 C 153.97 998.82 154.01 1006.04 154.00 1013.00 C 153.99 1019.96 154.01 1026.94 154.00 1034.00 C 153.99 1041.06 154.00 1048.91 154.00 1056.00 C 154.00 1063.09 154.00 1069.95 154.00 1077.00 C 154.00 1084.05 154.00 1090.96 154.00 1098.00 C 154.00 1105.04 154.01 1111.95 154.00 1119.00 C 153.99 1126.05 154.02 1132.90 154.00 1140.00 C 153.98 1147.10 154.04 1154.90 154.00 1162.00 C 153.96 1169.10 154.09 1175.96 154.00 1183.00 C 153.91 1190.04 154.19 1196.99 154.00 1204.00 C 153.81 1211.01 154.43 1218.02 154.00 1225.00 C 153.57 1231.98 154.16 1239.07 156.00 1240.00 Z"/>
</g>
<g fill="#000000" fill-opacity="0.00" stroke="None">
<path d="
M 156.00 1240.00 
C 168.35 1246.21 179.79 1254.40 191.92 1261.08 C 204.06 1267.75 215.93 1274.36 227.92 1281.08 C 239.90 1287.80 251.31 1295.01 263.30 1301.70 C 275.30 1308.39 287.06 1315.01 298.92 1322.08 C 310.79 1329.15 322.91 1335.33 334.75 1342.25 C 346.59 1349.16 358.93 1356.37 370.75 1363.25 C 382.58 1370.12 394.89 1376.48 406.75 1383.25 C 418.61 1390.01 429.82 1397.79 441.92 1404.08 C 454.02 1410.37 465.42 1417.78 477.32 1424.68 C 489.22 1431.58 501.54 1437.91 513.30 1444.70 C 525.07 1451.48 536.78 1458.52 548.77 1465.23 C 560.76 1471.94 573.05 1479.32 584.92 1486.08 C 596.80 1492.84 609.03 1499.74 620.75 1506.25 C 632.47 1512.75 644.59 1521.17 656.25 1526.75 C 667.91 1532.34 680.20 1542.87 691.92 1547.08 C 703.64 1551.29 715.88 1567.82 727.92 1564.92 C 739.97 1562.03 752.24 1549.53 764.00 1545.00
C 764.72 1544.42 765.18 1543.58 766.00 1543.00
C 790.88 1525.40 820.95 1514.41 846.31 1497.31 C 871.66 1480.20 900.96 1469.63 926.00 1452.00
C 926.82 1451.42 926.95 1451.44 928.00 1451.00
C 947.10 1442.99 965.06 1428.95 983.92 1418.92 C 1002.79 1408.90 1021.95 1398.14 1040.25 1387.25 C 1058.55 1376.35 1078.57 1367.27 1096.00 1355.00
C 1096.82 1354.42 1096.95 1354.44 1098.00 1354.00
C 1165.67 1315.41 1233.85 1275.95 1302.00 1238.00
C 1301.99 1201.00 1302.01 1164.00 1302.00 1127.00
C 1279.81 1137.20 1258.80 1150.70 1237.25 1162.25 C 1215.69 1173.79 1194.82 1187.08 1173.25 1198.25 C 1151.67 1209.41 1131.16 1223.98 1109.25 1234.25 C 1087.34 1244.51 1067.92 1262.24 1045.00 1270.00
C 1043.66 1270.83 1042.61 1272.16 1041.00 1273.00
C 1034.64 1276.33 1027.91 1280.00 1021.75 1283.75 C 1015.58 1287.49 1009.19 1290.29 1003.23 1294.23 C 997.27 1298.17 990.41 1300.91 984.23 1304.23 C 978.05 1307.55 972.51 1312.22 966.22 1315.22 C 959.93 1318.23 953.70 1321.92 947.70 1325.70 C 941.69 1329.47 934.65 1331.81 928.70 1335.70 C 922.74 1339.59 916.43 1342.88 910.22 1346.22 C 904.02 1349.57 898.04 1353.22 892.08 1357.08 C 886.11 1360.93 878.90 1362.82 873.08 1367.08 C 867.27 1371.34 860.34 1373.70 854.23 1377.23 C 848.12 1380.76 842.28 1384.72 836.22 1388.22 C 830.16 1391.72 823.13 1394.54 817.25 1398.25 C 811.37 1401.95 804.77 1405.28 798.70 1408.70 C 792.62 1412.11 786.13 1416.29 780.08 1419.08 C 774.04 1421.87 767.74 1427.73 762.07 1430.07 C 756.41 1432.42 747.90 1438.34 743.23 1440.23 C 738.56 1442.12 727.73 1451.73 725.00 1449.00
C 719.98 1443.98 725.59 1430.53 724.00 1423.00 C 722.41 1415.47 724.69 1404.45 724.00 1396.00 C 723.31 1387.55 724.33 1376.81 724.00 1368.00 C 723.67 1359.19 724.15 1349.96 724.00 1341.00 C 723.85 1332.04 724.08 1323.09 724.00 1314.00 C 723.92 1304.91 724.06 1295.15 724.00 1286.00
C 721.10 1286.04 719.07 1283.28 717.00 1282.00
C 701.40 1274.20 688.20 1265.56 673.70 1257.31 C 659.19 1249.05 644.57 1241.17 630.23 1232.77 C 615.89 1224.37 601.96 1216.71 587.69 1208.31 C 573.43 1199.90 558.48 1192.18 544.23 1183.77 C 529.98 1175.36 516.17 1167.77 501.70 1159.31 C 487.22 1150.84 472.58 1143.19 458.23 1134.77 C 443.88 1126.35 430.01 1118.63 415.69 1110.31 C 401.38 1101.98 386.61 1093.87 372.23 1085.77 C 357.85 1077.67 344.14 1069.43 330.03 1060.98 C 315.91 1052.52 300.12 1045.56 286.23 1036.77 C 272.34 1027.98 257.32 1021.09 243.70 1012.30 C 230.08 1003.52 213.22 996.98 200.25 987.75 C 187.27 978.52 169.05 973.89 158.00 963.00
C 156.10 966.49 155.54 975.51 156.00 983.00 C 156.46 990.49 155.80 998.31 156.00 1006.00 C 156.20 1013.69 155.91 1022.23 156.00 1030.00 C 156.09 1037.77 155.96 1045.20 156.00 1053.00 C 156.04 1060.80 155.99 1069.20 156.00 1077.00 C 156.01 1084.80 156.01 1092.24 156.00 1100.00 C 155.99 1107.76 156.04 1115.20 156.00 1123.00 C 155.96 1130.80 156.08 1139.20 156.00 1147.00 C 155.92 1154.80 156.19 1162.24 156.00 1170.00 C 155.81 1177.76 156.40 1186.33 156.00 1194.00 C 155.60 1201.67 156.93 1209.54 156.00 1217.00 C 155.07 1224.46 158.08 1232.90 156.00 1240.00 Z"/>
</g>
<g fill="#FFC500" fill-opacity="0.27" stroke="None">
<path d="
M 1041.00 1112.00 
C 1042.07 1111.63 1042.65 1111.29 1043.00 1111.00
C 1042.09 1111.38 1041.71 1111.59 1041.00 1112.00 Z"/>
</g>
<g fill="#FFC900" fill-opacity="0.29" stroke="None">
<path d="
M 981.00 1145.00 
C 982.80 1144.42 983.19 1143.38 985.00 1142.00
C 983.39 1142.82 982.33 1144.19 981.00 1145.00 Z"/>
</g>
<g fill="#FFC600" fill-opacity="0.38" stroke="None">
<path d="
M 835.00 1224.00 
C 836.82 1223.40 836.22 1222.69 837.00 1222.00
C 836.13 1222.56 835.74 1223.45 835.00 1224.00 Z"/>
</g>
<g fill="#FFC800" fill-opacity="0.27" stroke="None">
<path d="
M 770.00 1259.00 
C 771.54 1258.41 772.32 1257.30 774.00 1256.00
C 772.32 1256.86 771.38 1258.08 770.00 1259.00 Z"/>
</g>
<g fill="#FFCB00" fill-opacity="0.26" stroke="None">
<path d="
M 1041.00 1273.00 
C 1042.61 1272.16 1043.66 1270.83 1045.00 1270.00
C 1043.23 1270.60 1042.81 1271.57 1041.00 1273.00 Z"/>
</g>
<g fill="#FFBB00" fill-opacity="0.08" stroke="None">
<path d="
M 724.00 1286.00 
C 722.72 1283.99 719.03 1283.01 717.00 1282.00
C 719.07 1283.28 721.10 1286.04 724.00 1286.00 Z"/>
</g>
<g fill="#FEFF00" fill-opacity="0.00" stroke="None">
<path d="
M 725.00 1449.00 
C 721.88 1444.06 726.48 1433.94 725.00 1428.00 C 723.52 1422.06 725.65 1414.45 725.00 1408.00 C 724.35 1401.55 725.33 1393.64 725.00 1387.00 C 724.67 1380.36 725.20 1373.72 725.00 1367.00 C 724.80 1360.28 725.21 1352.70 725.00 1346.00 C 724.79 1339.30 725.38 1332.58 725.00 1326.00 C 724.62 1319.42 725.75 1311.30 725.00 1305.00 C 724.25 1298.70 727.19 1290.99 724.00 1286.00
C 724.06 1295.15 723.92 1304.91 724.00 1314.00 C 724.08 1323.09 723.85 1332.04 724.00 1341.00 C 724.15 1349.96 723.67 1359.19 724.00 1368.00 C 724.33 1376.81 723.31 1387.55 724.00 1396.00 C 724.69 1404.45 722.41 1415.47 724.00 1423.00 C 725.59 1430.53 719.98 1443.98 725.00 1449.00 Z"/>
</g>
<g fill="#FF9E00" fill-opacity="0.24" stroke="None">
<path d="
M 1096.00 1355.00 
C 1096.73 1354.70 1097.82 1354.15 1098.00 1354.00
C 1096.95 1354.44 1096.82 1354.42 1096.00 1355.00 Z"/>
</g>
<g fill="#FFAA00" fill-opacity="0.26" stroke="None">
<path d="
M 926.00 1452.00 
C 926.73 1451.70 927.82 1451.15 928.00 1451.00
C 926.95 1451.44 926.82 1451.42 926.00 1452.00 Z"/>
</g>
<g fill="#FFB700" fill-opacity="0.35" stroke="None">
<path d="
M 1143.00 1521.00 
C 1143.32 1520.80 1143.73 1520.18 1144.00 1520.00
C 1144.41 1519.82 1138.60 1520.43 1143.00 1521.00 Z"/>
</g>
<g fill="#FFC500" fill-opacity="0.40" stroke="None">
<path d="
M 764.00 1545.00 
C 765.65 1544.37 765.24 1543.71 766.00 1543.00
C 765.18 1543.58 764.72 1544.42 764.00 1545.00 Z"/>
</g>
</svg>