<svg xmlns="http://www.w3.org/2000/svg" xmlns:v="https://svgstorm.com"
viewBox = "0 0 2585 990"
width="2585"
height="990">
<g fill="None" fill-opacity="0.0" stroke="#000000" stroke-opacity="0.00" stroke-width="0.3"><path d="
M 0.00 990.00 
L 410.00 990.00
C 401.29 983.63 391.20 979.03 381.77 973.23 C 372.34 967.43 362.50 962.96 352.92 957.08 C 343.35 951.19 333.35 945.99 323.77 940.23 C 314.19 934.47 304.67 929.54 294.92 924.08 C 285.18 918.61 276.57 912.74 266.75 907.25 C 256.94 901.75 246.85 896.11 237.30 890.70 C 227.76 885.28 218.37 879.68 208.77 874.23 C 199.17 868.78 189.86 863.24 180.25 857.75 C 170.65 852.25 160.25 846.86 150.78 841.22 C 141.30 835.59 131.76 830.10 122.30 824.70 C 112.85 819.30 103.17 814.08 93.75 808.25 C 84.34 802.41 73.30 797.67 64.30 791.70 C 55.31 785.72 43.46 781.55 35.78 775.22 C 28.09 768.90 12.08 766.46 7.00 758.00
C 3.81 752.69 6.77 744.55 6.00 738.00 C 5.23 731.45 6.33 723.90 6.00 717.00 C 5.67 710.10 6.16 702.02 6.00 695.00 C 5.84 687.98 6.07 681.05 6.00 674.00 C 5.93 666.95 6.03 660.11 6.00 653.00 C 5.97 645.89 6.01 638.12 6.00 631.00 C 5.99 623.88 6.01 617.09 6.00 610.00 C 5.99 602.91 6.00 596.13 6.00 589.00 C 6.00 581.87 6.00 574.13 6.00 567.00 C 6.00 559.87 6.00 553.10 6.00 546.00 C 6.00 538.90 6.00 532.13 6.00 525.00 C 6.00 517.87 6.00 510.13 6.00 503.00 C 6.00 495.87 6.00 489.10 6.00 482.00 C 6.00 474.90 6.00 468.13 6.00 461.00 C 6.00 453.87 6.00 446.13 6.00 439.00 C 6.00 431.87 6.00 425.10 6.00 418.00 C 6.00 410.90 6.00 404.13 6.00 397.00 C 6.00 389.87 5.99 382.13 6.00 375.00 C 6.01 367.87 5.99 361.09 6.00 354.00 C 6.01 346.91 5.97 340.11 6.00 333.00 C 6.03 325.89 5.94 318.09 6.00 311.00 C 6.06 303.91 5.85 297.01 6.00 290.00 C 6.15 282.99 5.67 275.92 6.00 269.00 C 6.33 262.08 5.31 253.69 6.00 247.00 C 6.69 240.31 4.40 232.08 6.00 226.00 C 7.60 219.92 2.60 208.85 6.00 204.00
C 9.05 199.64 21.14 204.25 27.00 203.00 C 32.86 201.75 43.27 203.59 50.00 203.00 C 56.73 202.41 64.82 203.25 72.00 203.00 C 79.18 202.75 87.64 203.12 95.00 203.00 C 102.36 202.88 109.55 203.05 117.00 203.00 C 124.45 202.95 132.51 203.02 140.00 203.00 C 147.49 202.98 154.47 203.01 162.00 203.00 C 169.53 202.99 177.44 203.00 185.00 203.00 C 192.56 203.00 200.46 203.00 208.00 203.00 C 215.54 203.00 222.48 203.00 230.00 203.00 C 237.52 203.00 245.48 203.00 253.00 203.00 C 260.52 203.00 267.49 203.00 275.00 203.00 C 282.51 203.00 290.49 203.00 298.00 203.00 C 305.51 203.00 312.48 203.00 320.00 203.00 C 327.52 203.00 335.48 203.00 343.00 203.00 C 350.52 203.00 357.46 203.00 365.00 203.00 C 372.54 203.00 380.43 203.00 388.00 203.00 C 395.57 203.00 403.46 203.00 411.00 203.00 C 418.54 203.00 425.48 203.00 433.00 203.00 C 440.52 203.00 448.48 203.00 456.00 203.00 C 463.52 203.00 470.49 203.00 478.00 203.00 C 485.51 203.00 493.49 203.00 501.00 203.00 C 508.51 203.00 515.48 203.00 523.00 203.00 C 530.52 203.00 538.48 203.00 546.00 203.00 C 553.52 203.00 560.46 203.00 568.00 203.00 C 575.54 203.00 583.43 203.00 591.00 203.00 C 598.57 203.00 606.47 203.00 614.00 203.00 C 621.53 203.00 628.49 203.00 636.00 203.00 C 643.51 203.00 651.50 202.99 659.00 203.00 C 666.50 203.01 673.53 202.99 681.00 203.00 C 688.47 203.01 696.58 202.97 704.00 203.00 C 711.42 203.03 718.71 202.94 726.00 203.00 C 733.29 203.06 741.96 202.88 749.00 203.00 C 756.04 203.12 764.58 202.71 771.00 203.00 C 777.42 203.29 788.80 202.39 794.00 203.00 C 799.20 203.61 814.76 200.76 815.00 205.00
C 815.95 215.69 814.63 226.22 815.00 237.00 C 815.37 247.78 814.93 259.18 815.00 270.00 C 815.08 280.82 815.17 292.26 815.00 303.00 C 814.83 313.74 815.53 325.52 815.00 336.00 C 814.47 346.48 816.24 359.12 815.00 369.00 C 813.76 378.88 818.69 393.53 813.00 400.00
C 803.68 410.59 786.39 413.31 774.78 421.78 C 763.16 430.25 748.11 436.07 736.00 443.00
C 736.00 387.33 736.00 331.67 736.00 276.00
C 702.67 276.00 669.33 276.00 636.00 276.00
C 635.98 290.63 636.02 305.39 636.00 320.00 C 635.98 334.61 636.04 349.44 636.00 364.00 C 635.96 378.56 636.08 393.56 636.00 408.00 C 635.92 422.44 636.18 438.93 636.00 453.00 C 635.82 467.07 636.40 483.85 636.00 497.00 C 635.59 510.15 620.14 509.94 611.75 516.75 C 603.37 523.57 592.39 526.55 583.32 532.32 C 574.25 538.10 564.07 544.57 554.00 548.00
C 554.00 538.00 554.00 528.00 554.00 518.00
C 554.00 516.00 554.00 514.00 554.00 512.00
C 553.67 508.60 553.00 504.08 553.00 500.00
C 553.00 498.00 553.00 496.00 553.00 494.00
C 553.00 454.28 554.11 414.16 551.00 375.00
C 549.88 360.87 551.00 346.18 551.00 332.00
C 551.00 313.28 551.46 294.37 550.00 276.00
C 518.00 276.00 486.00 276.00 454.00 276.00
C 454.00 289.48 454.00 302.48 454.00 316.00 C 454.00 329.52 454.01 343.42 454.00 357.00 C 453.99 370.58 454.01 384.42 454.00 398.00 C 453.99 411.58 454.03 425.49 454.00 439.00 C 453.97 452.51 454.06 465.55 454.00 479.00 C 453.94 492.45 454.13 506.65 454.00 520.00 C 453.87 533.35 454.29 547.97 454.00 561.00 C 453.71 574.03 454.64 589.70 454.00 602.00 C 453.36 614.30 439.06 612.55 431.31 619.30 C 423.55 626.06 408.53 625.33 410.00 639.00 C 411.47 652.67 409.23 666.33 410.00 680.00 C 410.77 693.67 409.42 707.33 410.00 721.00
C 545.58 648.73 680.06 575.23 815.00 502.00
C 815.01 587.67 815.00 673.33 815.00 759.00
C 680.50 834.96 546.02 913.41 414.00 990.00
L 2585.00 990.00
L 2585.00 0.00
L 732.00 0.00
C 731.99 6.81 732.02 13.14 732.00 20.00 C 731.98 26.86 732.03 34.09 732.00 41.00 C 731.97 47.91 732.06 55.11 732.00 62.00 C 731.94 68.89 732.14 76.19 732.00 83.00 C 731.86 89.81 732.32 96.31 732.00 103.00 C 731.68 109.69 732.68 117.51 732.00 124.00 C 731.32 130.49 733.48 139.06 732.00 145.00 C 730.52 150.94 735.28 161.31 732.00 166.00
C 728.97 170.33 716.73 165.72 711.00 167.00 C 705.27 168.28 695.74 166.45 689.00 167.00 C 682.26 167.55 673.14 166.74 666.00 167.00 C 658.86 167.26 651.34 166.89 644.00 167.00 C 636.66 167.11 628.41 166.95 621.00 167.00 C 613.59 167.05 606.41 166.98 599.00 167.00 C 591.59 167.02 584.47 166.99 577.00 167.00 C 569.53 167.01 561.48 167.00 554.00 167.00 C 546.52 167.00 539.49 167.00 532.00 167.00 C 524.51 167.00 516.48 167.00 509.00 167.00 C 501.52 167.00 494.44 167.00 487.00 167.00 C 479.56 167.00 472.48 167.00 465.00 167.00 C 457.52 167.00 449.50 167.00 442.00 167.00 C 434.50 167.00 427.50 167.00 420.00 167.00 C 412.50 167.00 404.50 167.00 397.00 167.00 C 389.50 167.00 382.50 167.00 375.00 167.00 C 367.50 167.00 359.48 167.00 352.00 167.00 C 344.52 167.00 337.44 167.00 330.00 167.00 C 322.56 167.00 315.48 167.00 308.00 167.00 C 300.52 167.00 292.49 167.00 285.00 167.00 C 277.51 167.00 270.49 167.01 263.00 167.00 C 255.51 166.99 247.47 167.01 240.00 167.00 C 232.53 166.99 225.41 167.03 218.00 167.00 C 210.59 166.97 203.41 167.06 196.00 167.00 C 188.59 166.94 180.34 167.12 173.00 167.00 C 165.66 166.88 158.15 167.28 151.00 167.00 C 143.85 166.72 134.75 167.60 128.00 167.00 C 121.25 166.40 111.75 168.38 106.00 167.00 C 100.25 165.62 87.08 170.40 84.00 166.00
C 80.81 161.45 85.37 151.87 84.00 146.00 C 82.63 140.13 84.65 131.39 84.00 125.00 C 83.35 118.61 84.28 111.68 84.00 105.00 C 83.72 98.32 84.13 90.82 84.00 84.00 C 83.87 77.18 84.06 69.85 84.00 63.00 C 83.94 56.15 84.03 49.89 84.00 43.00 C 83.97 36.11 84.01 28.94 84.00 22.00 C 83.99 15.06 84.01 7.96 84.00 1.00
C 111.33 1.00 138.67 1.00 166.00 1.00
C 169.99 3.79 165.85 14.81 167.00 20.00 C 168.15 25.19 166.47 34.02 167.00 40.00 C 167.53 45.98 166.72 53.69 167.00 60.00 C 167.28 66.31 166.79 73.60 167.00 80.00
C 232.33 80.00 297.67 80.00 363.00 80.00
C 360.43 72.15 364.11 62.34 363.00 54.00 C 361.89 45.66 363.39 36.61 363.00 28.00 C 362.61 19.39 363.00 9.71 363.00 1.00
C 363.00 0.50 363.00 0.00 363.00 0.00
L 0.00 0.00
L 0.00 990.00
M 998.00 259.00 
C 998.00 340.00 998.00 421.00 998.00 502.00
C 980.67 502.00 963.33 502.00 946.00 502.00
C 946.00 421.00 946.00 340.00 946.00 259.00
C 963.33 259.00 980.67 259.00 998.00 259.00
M 1098.00 259.00 
C 1120.39 316.33 1142.86 373.67 1167.00 430.00
C 1190.42 373.19 1212.86 316.06 1236.00 259.00
C 1256.00 259.00 1276.00 259.00 1296.00 259.00
C 1296.00 340.00 1296.00 421.00 1296.00 502.00
C 1280.67 502.00 1265.34 502.00 1250.00 502.00
C 1249.33 447.50 1251.33 391.68 1249.00 338.00
C 1228.78 392.50 1204.18 445.47 1184.00 500.00
C 1172.67 500.00 1161.33 500.00 1150.00 500.00
C 1128.81 446.59 1105.89 393.42 1085.00 340.00
C 1082.66 393.10 1084.67 448.15 1084.00 502.00
C 1068.33 502.00 1052.66 502.00 1037.00 502.00
C 1037.00 421.00 1037.00 340.00 1037.00 259.00
C 1057.33 259.00 1077.67 259.00 1098.00 259.00
M 1520.00 336.00 
C 1520.59 340.99 1520.67 344.97 1520.00 350.00
C 1516.35 377.40 1506.22 400.16 1480.30 414.30 C 1454.39 428.45 1418.40 426.32 1388.00 426.00
C 1388.01 451.33 1388.00 476.67 1388.00 502.00
C 1370.67 502.00 1353.33 502.00 1336.00 502.00
C 1336.00 421.00 1336.00 340.00 1336.00 259.00
C 1374.96 261.40 1426.36 254.49 1463.02 261.98 C 1499.69 269.46 1517.00 303.02 1520.00 336.00
M 1711.00 502.00 
C 1706.51 505.14 1696.70 500.58 1691.00 502.00 C 1685.30 503.42 1677.27 501.37 1671.00 502.00 C 1664.73 502.63 1657.58 501.73 1651.00 502.00 C 1644.42 502.27 1636.69 501.87 1630.00 502.00 C 1623.31 502.13 1616.70 501.94 1610.00 502.00 C 1603.30 502.06 1596.73 501.97 1590.00 502.00 C 1583.27 502.03 1576.81 501.99 1570.00 502.00 C 1563.19 502.01 1555.86 501.99 1549.00 502.00
C 1549.00 421.00 1549.00 340.00 1549.00 259.00
C 1603.00 259.00 1657.00 259.00 1711.00 259.00
C 1715.22 261.95 1710.62 273.60 1712.00 279.00 C 1713.38 284.40 1710.97 295.12 1712.00 301.00
C 1675.33 301.00 1638.67 301.00 1602.00 301.00
C 1602.00 320.33 1602.00 339.67 1602.00 359.00
C 1613.22 359.68 1627.04 358.10 1638.00 359.00 C 1648.96 359.90 1664.00 357.27 1674.00 359.00 C 1684.00 360.73 1702.47 353.49 1705.99 363.01 C 1709.52 372.53 1703.37 388.86 1706.00 399.00
C 1671.33 399.00 1636.67 399.00 1602.00 399.00
C 1602.00 419.00 1602.00 439.00 1602.00 459.00
C 1612.30 458.73 1621.60 459.35 1632.00 459.00 C 1642.40 458.65 1652.37 459.66 1663.00 459.00 C 1673.63 458.34 1682.93 460.41 1694.00 459.00 C 1705.07 457.59 1715.00 459.25 1712.00 472.00 C 1709.00 484.75 1715.08 490.80 1711.00 502.00
M 1893.00 406.00 
C 1909.90 438.01 1927.06 470.11 1944.00 502.00
C 1924.00 502.00 1904.00 502.00 1884.00 502.00
C 1881.06 494.10 1877.28 486.31 1873.08 478.92 C 1868.88 471.52 1865.79 463.59 1861.68 456.32 C 1857.56 449.06 1854.46 440.27 1849.70 433.31 C 1844.93 426.34 1845.12 414.28 1835.00 414.00 C 1824.87 413.72 1810.51 414.21 1800.00 414.00
C 1800.00 443.33 1800.00 472.67 1800.00 502.00
C 1782.67 502.00 1765.33 502.00 1748.00 502.00
C 1748.00 421.00 1748.00 340.00 1748.00 259.00
C 1786.29 259.93 1836.65 256.89 1873.02 260.98 C 1909.40 265.06 1929.89 290.26 1935.98 323.02 C 1942.06 355.79 1924.99 393.66 1893.00 406.00
M 2021.00 259.00 
C 2021.00 340.00 2021.00 421.00 2021.00 502.00
C 2003.67 502.00 1986.33 502.00 1969.00 502.00
C 1969.00 421.00 1969.00 340.00 1969.00 259.00
C 1986.34 259.00 2003.66 259.00 2021.00 259.00
M 2191.00 259.00 
C 2219.44 340.03 2247.20 421.01 2276.00 502.00
C 2257.33 502.00 2238.67 502.00 2220.00 502.00
C 2217.34 495.48 2216.84 487.36 2214.01 480.99 C 2211.18 474.63 2210.40 466.88 2207.07 460.93 C 2203.74 454.97 2206.19 443.48 2198.00 443.00 C 2189.81 442.53 2179.62 443.22 2171.00 443.00 C 2162.38 442.78 2152.80 443.11 2144.00 443.00 C 2135.20 442.89 2125.85 443.09 2117.00 443.00
C 2112.07 462.98 2104.17 482.04 2099.00 502.00
C 2081.00 502.00 2063.00 502.00 2045.00 502.00
C 2049.62 490.60 2053.16 477.74 2057.32 466.32 C 2061.49 454.91 2065.67 443.85 2069.78 431.78 C 2073.89 419.70 2078.25 407.44 2082.31 395.31 C 2086.36 383.17 2090.73 371.09 2094.93 358.93 C 2099.12 346.77 2103.02 334.84 2107.78 322.78 C 2112.54 310.71 2115.01 298.12 2119.99 285.99 C 2124.98 273.86 2125.40 256.58 2142.00 259.00 C 2158.60 261.42 2174.47 257.19 2191.00 259.00
M 2351.00 259.00 
C 2351.00 325.66 2351.00 392.34 2351.00 459.00
C 2361.18 458.74 2370.76 459.34 2381.00 459.00 C 2391.24 458.66 2400.54 459.65 2411.00 459.00 C 2421.46 458.35 2430.02 460.40 2441.00 459.00 C 2451.98 457.60 2460.62 459.53 2458.00 472.00 C 2455.38 484.47 2459.97 490.15 2458.00 502.00
C 2405.34 502.00 2352.66 502.00 2300.00 502.00
C 2300.00 421.00 2300.00 340.00 2300.00 259.00
C 2317.00 259.00 2334.00 259.00 2351.00 259.00
M 1193.00 639.00 
C 1183.50 641.29 1172.92 639.37 1163.00 640.00
C 1160.84 614.11 1124.97 601.38 1107.75 620.75 C 1090.54 640.12 1090.64 673.13 1104.92 694.08 C 1119.20 715.04 1159.87 707.23 1163.00 680.00
C 1173.00 680.00 1183.00 680.00 1193.00 680.00
C 1190.66 727.52 1124.02 746.62 1089.25 718.75 C 1054.48 690.87 1054.57 627.27 1089.10 599.10 C 1123.63 570.92 1190.33 590.05 1193.00 639.00
M 1014.00 589.00 
C 1029.03 635.94 1046.74 682.15 1062.00 729.00
C 1051.33 729.00 1040.67 729.00 1030.00 729.00
C 1028.48 719.16 1023.76 715.91 1022.67 705.33 C 1021.58 694.74 1012.28 693.75 1002.00 695.00 C 991.72 696.25 981.29 694.06 971.00 695.00
C 968.29 706.51 963.60 717.41 961.00 729.00
C 950.67 729.00 940.33 729.00 930.00 729.00
C 944.97 681.93 962.25 635.80 978.00 589.00
C 990.00 589.00 1002.00 589.00 1014.00 589.00
M 1280.00 589.00 
C 1294.95 636.34 1312.22 681.99 1328.00 729.00
C 1318.88 726.29 1298.55 734.47 1294.22 724.78 C 1289.90 715.08 1289.22 704.68 1285.00 695.00
C 1269.00 695.00 1253.00 695.00 1237.00 695.00
C 1234.17 706.48 1229.44 717.38 1227.00 729.00
C 1216.34 729.00 1205.66 729.00 1195.00 729.00
C 1197.18 720.89 1201.17 713.69 1203.77 705.77 C 1206.38 697.86 1208.76 689.56 1211.78 681.78 C 1214.80 673.99 1216.86 665.59 1219.93 657.93 C 1223.00 650.26 1224.91 641.64 1228.31 634.31 C 1231.70 626.97 1232.33 617.09 1236.33 610.33 C 1240.33 603.57 1238.28 590.82 1247.01 589.01 C 1255.74 587.20 1270.70 590.35 1280.00 589.00
M 1341.00 729.00 
C 1341.01 682.33 1340.99 635.67 1341.00 589.00
C 1368.92 590.59 1404.42 584.19 1429.08 595.92 C 1453.73 607.66 1462.30 633.52 1462.00 659.00 C 1461.70 684.48 1453.36 709.01 1429.26 721.26 C 1405.15 733.51 1368.81 727.84 1341.00 729.00
M 1572.00 589.00 
C 1572.00 597.33 1572.00 605.67 1572.00 614.00
C 1551.33 614.00 1530.67 614.00 1510.00 614.00
C 1510.00 624.67 1510.00 635.33 1510.00 646.00
C 1529.67 646.00 1549.33 646.00 1569.00 646.00
C 1569.00 654.00 1569.00 662.00 1569.00 670.00
C 1549.33 670.00 1529.67 670.00 1510.00 670.00
C 1510.00 681.33 1510.00 692.67 1510.00 704.00
C 1530.67 704.00 1551.33 704.00 1572.00 704.00
C 1572.00 712.33 1572.00 720.67 1572.00 729.00
C 1561.60 728.55 1549.20 729.60 1539.00 729.00 C 1528.80 728.40 1515.47 730.15 1506.00 729.00 C 1496.53 727.85 1479.73 734.04 1479.00 723.00 C 1478.27 711.96 1479.34 700.09 1479.00 689.00 C 1478.66 677.91 1479.16 667.09 1479.00 656.00 C 1478.84 644.91 1479.08 634.15 1479.00 623.00 C 1478.92 611.85 1479.06 600.20 1479.00 589.00
C 1510.00 589.00 1541.00 589.00 1572.00 589.00
M 1706.00 590.00 
C 1710.02 586.69 1717.57 589.92 1723.00 589.00 C 1728.43 588.08 1736.34 589.69 1742.00 589.00
C 1742.00 600.12 1742.00 610.84 1742.00 622.00 C 1742.00 633.16 1742.01 644.82 1742.00 656.00 C 1741.99 667.18 1742.02 677.79 1742.00 689.00 C 1741.98 700.21 1742.04 711.73 1742.00 723.00 C 1741.96 734.27 1722.13 727.79 1715.00 728.00
C 1710.66 723.66 1715.35 712.43 1714.00 706.00 C 1712.65 699.57 1714.72 690.07 1714.00 683.00 C 1713.28 675.93 1714.58 667.31 1714.00 660.00 C 1713.42 652.69 1715.27 643.53 1713.00 637.00
C 1701.60 667.53 1688.86 697.85 1676.00 728.00
C 1664.10 731.35 1654.59 726.30 1652.23 715.77 C 1649.86 705.24 1645.14 699.45 1642.07 689.93 C 1639.01 680.40 1634.79 673.76 1631.25 664.75 C 1627.70 655.75 1624.12 647.10 1621.00 638.00
C 1618.67 667.43 1620.67 698.82 1620.00 729.00
C 1610.67 729.00 1601.33 729.00 1592.00 729.00
C 1592.01 682.33 1592.00 635.67 1592.00 589.00
C 1604.00 589.00 1616.00 589.00 1628.00 589.00
C 1640.08 621.56 1654.24 654.69 1667.00 687.00
C 1679.83 654.54 1693.03 622.17 1706.00 590.00
M 1788.00 589.00 
C 1797.20 609.23 1808.08 629.05 1819.00 648.00
C 1822.74 638.10 1827.55 630.88 1831.97 620.97 C 1836.40 611.06 1841.84 605.48 1846.26 595.26 C 1850.67 585.03 1870.18 589.96 1881.00 589.00
C 1875.64 603.84 1866.42 614.65 1859.23 629.23 C 1852.04 643.81 1844.84 654.72 1836.75 669.75 C 1828.65 684.77 1835.04 711.42 1833.00 729.00
C 1823.00 729.00 1813.00 729.00 1803.00 729.00
C 1801.57 711.23 1806.57 686.08 1799.23 670.77 C 1791.89 655.46 1784.31 644.64 1776.75 630.25 C 1769.18 615.87 1761.26 603.46 1755.00 589.00
C 1766.00 589.00 1777.00 589.00 1788.00 589.00 Z"/>
</g>
<g fill="None" fill-opacity="0.0" stroke="#FEB600" stroke-opacity="0.98" stroke-width="0.3"><path d="
M 363.00 1.00 
C 367.00 6.40 363.21 20.07 364.00 27.00 C 364.79 33.93 364.28 48.65 364.00 55.00 C 363.72 61.35 366.02 78.78 363.00 80.00
C 297.67 80.00 232.33 80.00 167.00 80.00
C 166.79 73.60 167.28 66.31 167.00 60.00 C 166.72 53.69 167.53 45.98 167.00 40.00 C 166.47 34.02 168.15 25.19 167.00 20.00 C 165.85 14.81 169.99 3.79 166.00 1.00
C 139.90 3.33 111.85 1.33 85.00 2.00
C 84.33 56.50 86.33 112.32 84.00 166.00
C 87.08 170.40 100.25 165.62 106.00 167.00 C 111.75 168.38 121.25 166.40 128.00 167.00 C 134.75 167.60 143.85 166.72 151.00 167.00 C 158.15 167.28 165.66 166.88 173.00 167.00 C 180.34 167.12 188.59 166.94 196.00 167.00 C 203.41 167.06 210.59 166.97 218.00 167.00 C 225.41 167.03 232.53 166.99 240.00 167.00 C 247.47 167.01 255.51 166.99 263.00 167.00 C 270.49 167.01 277.51 167.00 285.00 167.00 C 292.49 167.00 300.52 167.00 308.00 167.00 C 315.48 167.00 322.56 167.00 330.00 167.00 C 337.44 167.00 344.52 167.00 352.00 167.00 C 359.48 167.00 367.50 167.00 375.00 167.00 C 382.50 167.00 389.50 167.00 397.00 167.00 C 404.50 167.00 412.50 167.00 420.00 167.00 C 427.50 167.00 434.50 167.00 442.00 167.00 C 449.50 167.00 457.52 167.00 465.00 167.00 C 472.48 167.00 479.56 167.00 487.00 167.00 C 494.44 167.00 501.52 167.00 509.00 167.00 C 516.48 167.00 524.51 167.00 532.00 167.00 C 539.49 167.00 546.52 167.00 554.00 167.00 C 561.48 167.00 569.53 167.01 577.00 167.00 C 584.47 166.99 591.59 167.02 599.00 167.00 C 606.41 166.98 613.59 167.05 621.00 167.00 C 628.41 166.95 636.66 167.11 644.00 167.00 C 651.34 166.89 658.86 167.26 666.00 167.00 C 673.14 166.74 682.26 167.55 689.00 167.00 C 695.74 166.45 705.27 168.28 711.00 167.00 C 716.73 165.72 728.97 170.33 732.00 166.00
C 729.67 111.57 731.66 55.18 731.00 0.00
L 646.00 0.00
C 646.00 26.67 646.00 53.33 646.00 80.00
C 580.67 80.00 515.33 80.00 450.00 80.00
C 450.00 53.33 450.00 26.67 450.00 0.00
L 449.00 0.00
C 421.74 1.67 391.19 1.67 364.00 0.00
L 363.00 0.00
C 363.00 0.00 363.00 0.50 363.00 1.00 Z"/>
</g>
<g fill="None" fill-opacity="0.0" stroke="#FEB800" stroke-opacity="0.47" stroke-width="0.3"><path d="
M 449.00 0.00 
L 364.00 0.00
C 391.19 1.67 421.74 1.67 449.00 0.00 Z"/>
</g>
<g fill="None" fill-opacity="0.0" stroke="#000000" stroke-opacity="0.00" stroke-width="0.3"><path d="
M 646.00 0.00 
L 450.00 0.00
C 450.00 26.67 450.00 53.33 450.00 80.00
C 515.33 80.00 580.67 80.00 646.00 80.00
C 646.00 53.33 646.00 26.67 646.00 0.00 Z"/>
</g>
<g fill="None" fill-opacity="0.0" stroke="#FEB400" stroke-opacity="0.32" stroke-width="0.3"><path d="
M 732.00 166.00 
C 735.28 161.31 730.52 150.94 732.00 145.00 C 733.48 139.06 731.32 130.49 732.00 124.00 C 732.68 117.51 731.68 109.69 732.00 103.00 C 732.32 96.31 731.86 89.81 732.00 83.00 C 732.14 76.19 731.94 68.89 732.00 62.00 C 732.06 55.11 731.97 47.91 732.00 41.00 C 732.03 34.09 731.98 26.86 732.00 20.00 C 732.02 13.14 731.99 6.81 732.00 0.00
L 731.00 0.00
C 731.66 55.18 729.67 111.57 732.00 166.00 Z"/>
</g>
<g fill="None" fill-opacity="0.0" stroke="#FFB600" stroke-opacity="0.42" stroke-width="0.3"><path d="
M 84.00 166.00 
C 86.33 112.32 84.33 56.50 85.00 2.00
C 111.85 1.33 139.90 3.33 166.00 1.00
C 138.67 1.00 111.33 1.00 84.00 1.00
C 84.01 7.96 83.99 15.06 84.00 22.00 C 84.01 28.94 83.97 36.11 84.00 43.00 C 84.03 49.89 83.94 56.15 84.00 63.00 C 84.06 69.85 83.87 77.18 84.00 84.00 C 84.13 90.82 83.72 98.32 84.00 105.00 C 84.28 111.68 83.35 118.61 84.00 125.00 C 84.65 131.39 82.63 140.13 84.00 146.00 C 85.37 151.87 80.81 161.45 84.00 166.00 Z"/>
</g>
<g fill="None" fill-opacity="0.0" stroke="#FEB700" stroke-opacity="0.33" stroke-width="0.3"><path d="
M 363.00 80.00 
C 366.02 78.78 363.72 61.35 364.00 55.00 C 364.28 48.65 364.79 33.93 364.00 27.00 C 363.21 20.07 367.00 6.40 363.00 1.00
C 363.00 9.71 362.61 19.39 363.00 28.00 C 363.39 36.61 361.89 45.66 363.00 54.00 C 364.11 62.34 360.43 72.15 363.00 80.00 Z"/>
</g>
<g fill="None" fill-opacity="0.0" stroke="#FFB400" stroke-opacity="0.07" stroke-width="0.3"><path d="
M 6.00 204.00 
C 16.71 204.00 27.28 204.00 38.00 204.00 C 48.72 204.00 59.22 204.00 70.00 204.00 C 80.78 204.00 92.21 204.00 103.00 204.00 C 113.79 204.00 124.24 204.00 135.00 204.00 C 145.76 204.00 156.21 204.00 167.00 204.00 C 177.79 204.00 189.21 204.00 200.00 204.00 C 210.79 204.00 221.24 204.00 232.00 204.00 C 242.76 204.00 253.20 204.00 264.00 204.00 C 274.80 204.00 286.20 204.00 297.00 204.00 C 307.80 204.00 318.23 204.00 329.00 204.00 C 339.77 204.00 350.19 204.00 361.00 204.00 C 371.81 204.00 383.18 204.00 394.00 204.00 C 404.82 204.00 415.18 204.00 426.00 204.00 C 436.82 204.00 448.19 204.00 459.00 204.00 C 469.81 204.00 480.23 204.00 491.00 204.00 C 501.77 204.00 512.20 204.00 523.00 204.00 C 533.80 204.00 545.21 203.99 556.00 204.00 C 566.79 204.01 577.25 203.98 588.00 204.00 C 598.75 204.02 609.23 203.97 620.00 204.00 C 630.77 204.03 642.26 203.93 653.00 204.00 C 663.74 204.07 674.35 203.83 685.00 204.00 C 695.65 204.17 706.46 203.63 717.00 204.00 C 727.54 204.37 739.76 203.20 750.00 204.00 C 760.24 204.80 772.49 202.17 782.00 204.00 C 791.51 205.83 806.69 199.60 814.00 205.00
C 814.32 205.24 815.00 205.00 815.00 205.00
C 814.76 200.76 799.20 203.61 794.00 203.00 C 788.80 202.39 777.42 203.29 771.00 203.00 C 764.58 202.71 756.04 203.12 749.00 203.00 C 741.96 202.88 733.29 203.06 726.00 203.00 C 718.71 202.94 711.42 203.03 704.00 203.00 C 696.58 202.97 688.47 203.01 681.00 203.00 C 673.53 202.99 666.50 203.01 659.00 203.00 C 651.50 202.99 643.51 203.00 636.00 203.00 C 628.49 203.00 621.53 203.00 614.00 203.00 C 606.47 203.00 598.57 203.00 591.00 203.00 C 583.43 203.00 575.54 203.00 568.00 203.00 C 560.46 203.00 553.52 203.00 546.00 203.00 C 538.48 203.00 530.52 203.00 523.00 203.00 C 515.48 203.00 508.51 203.00 501.00 203.00 C 493.49 203.00 485.51 203.00 478.00 203.00 C 470.49 203.00 463.52 203.00 456.00 203.00 C 448.48 203.00 440.52 203.00 433.00 203.00 C 425.48 203.00 418.54 203.00 411.00 203.00 C 403.46 203.00 395.57 203.00 388.00 203.00 C 380.43 203.00 372.54 203.00 365.00 203.00 C 357.46 203.00 350.52 203.00 343.00 203.00 C 335.48 203.00 327.52 203.00 320.00 203.00 C 312.48 203.00 305.51 203.00 298.00 203.00 C 290.49 203.00 282.51 203.00 275.00 203.00 C 267.49 203.00 260.52 203.00 253.00 203.00 C 245.48 203.00 237.52 203.00 230.00 203.00 C 222.48 203.00 215.54 203.00 208.00 203.00 C 200.46 203.00 192.56 203.00 185.00 203.00 C 177.44 203.00 169.53 202.99 162.00 203.00 C 154.47 203.01 147.49 202.98 140.00 203.00 C 132.51 203.02 124.45 202.95 117.00 203.00 C 109.55 203.05 102.36 202.88 95.00 203.00 C 87.64 203.12 79.18 202.75 72.00 203.00 C 64.82 203.25 56.73 202.41 50.00 203.00 C 43.27 203.59 32.86 201.75 27.00 203.00 C 21.14 204.25 9.05 199.64 6.00 204.00 Z"/>
</g>
<g fill="None" fill-opacity="0.0" stroke="#FFB600" stroke-opacity="0.77" stroke-width="0.3"><path d="
M 7.00 758.00 
C 7.00 574.81 7.00 389.14 7.00 205.00
C 276.00 205.00 545.00 205.00 814.00 205.00
C 806.69 199.60 791.51 205.83 782.00 204.00 C 772.49 202.17 760.24 204.80 750.00 204.00 C 739.76 203.20 727.54 204.37 717.00 204.00 C 706.46 203.63 695.65 204.17 685.00 204.00 C 674.35 203.83 663.74 204.07 653.00 204.00 C 642.26 203.93 630.77 204.03 620.00 204.00 C 609.23 203.97 598.75 204.02 588.00 204.00 C 577.25 203.98 566.79 204.01 556.00 204.00 C 545.21 203.99 533.80 204.00 523.00 204.00 C 512.20 204.00 501.77 204.00 491.00 204.00 C 480.23 204.00 469.81 204.00 459.00 204.00 C 448.19 204.00 436.82 204.00 426.00 204.00 C 415.18 204.00 404.82 204.00 394.00 204.00 C 383.18 204.00 371.81 204.00 361.00 204.00 C 350.19 204.00 339.77 204.00 329.00 204.00 C 318.23 204.00 307.80 204.00 297.00 204.00 C 286.20 204.00 274.80 204.00 264.00 204.00 C 253.20 204.00 242.76 204.00 232.00 204.00 C 221.24 204.00 210.79 204.00 200.00 204.00 C 189.21 204.00 177.79 204.00 167.00 204.00 C 156.21 204.00 145.76 204.00 135.00 204.00 C 124.24 204.00 113.79 204.00 103.00 204.00 C 92.21 204.00 80.78 204.00 70.00 204.00 C 59.22 204.00 48.72 204.00 38.00 204.00 C 27.28 204.00 16.71 204.00 6.00 204.00
C 2.60 208.85 7.60 219.92 6.00 226.00 C 4.40 232.08 6.69 240.31 6.00 247.00 C 5.31 253.69 6.33 262.08 6.00 269.00 C 5.67 275.92 6.15 282.99 6.00 290.00 C 5.85 297.01 6.06 303.91 6.00 311.00 C 5.94 318.09 6.03 325.89 6.00 333.00 C 5.97 340.11 6.01 346.91 6.00 354.00 C 5.99 361.09 6.01 367.87 6.00 375.00 C 5.99 382.13 6.00 389.87 6.00 397.00 C 6.00 404.13 6.00 410.90 6.00 418.00 C 6.00 425.10 6.00 431.87 6.00 439.00 C 6.00 446.13 6.00 453.87 6.00 461.00 C 6.00 468.13 6.00 474.90 6.00 482.00 C 6.00 489.10 6.00 495.87 6.00 503.00 C 6.00 510.13 6.00 517.87 6.00 525.00 C 6.00 532.13 6.00 538.90 6.00 546.00 C 6.00 553.10 6.00 559.87 6.00 567.00 C 6.00 574.13 6.00 581.87 6.00 589.00 C 6.00 596.13 5.99 602.91 6.00 610.00 C 6.01 617.09 5.99 623.88 6.00 631.00 C 6.01 638.12 5.97 645.89 6.00 653.00 C 6.03 660.11 5.93 666.95 6.00 674.00 C 6.07 681.05 5.84 687.98 6.00 695.00 C 6.16 702.02 5.67 710.10 6.00 717.00 C 6.33 723.90 5.23 731.45 6.00 738.00 C 6.77 744.55 3.81 752.69 7.00 758.00 Z"/>
</g>
<g fill="None" fill-opacity="0.0" stroke="#FFB704" stroke-opacity="0.99" stroke-width="0.3"><path d="
M 7.00 758.00 
C 12.08 766.46 28.09 768.90 35.78 775.22 C 43.46 781.55 55.31 785.72 64.30 791.70 C 73.30 797.67 84.34 802.41 93.75 808.25 C 103.17 814.08 112.85 819.30 122.30 824.70 C 131.76 830.10 141.30 835.59 150.78 841.22 C 160.25 846.86 170.65 852.25 180.25 857.75 C 189.86 863.24 199.17 868.78 208.77 874.23 C 218.37 879.68 227.76 885.28 237.30 890.70 C 246.85 896.11 256.94 901.75 266.75 907.25 C 276.57 912.74 285.18 918.61 294.92 924.08 C 304.67 929.54 314.19 934.47 323.77 940.23 C 333.35 945.99 343.35 951.19 352.92 957.08 C 362.50 962.96 372.34 967.43 381.77 973.23 C 391.20 979.03 401.29 983.63 410.00 990.00
L 414.00 990.00
C 546.02 913.41 680.50 834.96 815.00 759.00
C 815.00 673.33 815.01 587.67 815.00 502.00
C 680.06 575.23 545.58 648.73 410.00 721.00
C 409.42 707.33 410.77 693.67 410.00 680.00 C 409.23 666.33 411.47 652.67 410.00 639.00 C 408.53 625.33 423.55 626.06 431.31 619.30 C 439.06 612.55 453.36 614.30 454.00 602.00 C 454.64 589.70 453.71 574.03 454.00 561.00 C 454.29 547.97 453.87 533.35 454.00 520.00 C 454.13 506.65 453.94 492.45 454.00 479.00 C 454.06 465.55 453.97 452.51 454.00 439.00 C 454.03 425.49 453.99 411.58 454.00 398.00 C 454.01 384.42 453.99 370.58 454.00 357.00 C 454.01 343.42 454.00 329.52 454.00 316.00 C 454.00 302.48 454.00 289.48 454.00 276.00
C 486.00 276.00 518.00 276.00 550.00 276.00
C 551.46 294.37 551.00 313.28 551.00 332.00
C 551.95 338.62 552.73 345.50 553.00 353.00 C 553.27 360.50 551.71 369.71 551.00 375.00
C 554.11 414.16 553.00 454.28 553.00 494.00
C 553.12 493.44 554.29 491.38 555.00 491.00
C 555.00 494.00 555.00 497.00 555.00 500.00
C 555.00 506.05 554.51 512.70 554.00 518.00
C 554.00 528.00 554.00 538.00 554.00 548.00
C 564.07 544.57 574.25 538.10 583.32 532.32 C 592.39 526.55 603.37 523.57 611.75 516.75 C 620.14 509.94 635.59 510.15 636.00 497.00 C 636.40 483.85 635.82 467.07 636.00 453.00 C 636.18 438.93 635.92 422.44 636.00 408.00 C 636.08 393.56 635.96 378.56 636.00 364.00 C 636.04 349.44 635.98 334.61 636.00 320.00 C 636.02 305.39 635.98 290.63 636.00 276.00
C 669.33 276.00 702.67 276.00 736.00 276.00
C 736.00 331.67 736.00 387.33 736.00 443.00
C 748.11 436.07 763.16 430.25 774.78 421.78 C 786.39 413.31 803.68 410.59 813.00 400.00
C 818.08 391.71 812.42 378.89 814.00 369.00 C 815.58 359.11 813.25 346.46 814.00 336.00 C 814.75 325.54 813.58 313.67 814.00 303.00 C 814.42 292.33 813.66 281.79 814.00 271.00 C 814.34 260.21 813.50 248.86 814.00 238.00 C 814.50 227.14 813.02 215.84 814.00 205.00
C 545.00 205.00 276.00 205.00 7.00 205.00
C 7.00 389.14 7.00 574.81 7.00 758.00
M 188.00 274.00 
C 188.00 350.00 188.00 426.00 188.00 502.00
C 154.16 483.47 121.15 463.74 87.00 446.00
C 87.00 388.67 87.00 331.33 87.00 274.00
C 120.67 274.00 154.33 274.00 188.00 274.00
M 370.00 274.00 
C 370.40 385.65 369.04 497.74 371.00 609.00
C 359.78 603.31 352.15 597.05 340.77 591.23 C 329.39 585.41 320.91 579.49 309.30 573.70 C 297.70 567.90 292.01 562.01 278.77 556.23 C 265.53 550.45 268.79 532.00 269.00 517.00 C 269.21 502.00 268.91 484.66 269.00 469.00 C 269.09 453.34 268.96 435.95 269.00 420.00 C 269.04 404.05 268.98 388.11 269.00 372.00 C 269.02 355.89 268.99 339.22 269.00 323.00 C 269.01 306.78 268.99 290.24 269.00 274.00
C 302.67 274.00 336.33 274.00 370.00 274.00
M 409.00 724.00 
C 409.00 754.66 409.00 785.34 409.00 816.00
C 518.54 756.17 626.05 694.31 735.00 634.00
C 735.51 650.50 734.32 670.89 735.00 687.00 C 735.68 703.11 717.01 704.44 706.31 712.31 C 695.60 720.17 682.98 724.69 671.78 731.78 C 660.58 738.86 648.77 744.88 637.32 751.32 C 625.87 757.76 614.77 764.98 603.25 771.25 C 591.73 777.53 580.22 784.35 568.77 790.77 C 557.32 797.19 546.42 803.41 534.92 809.92 C 523.42 816.43 512.25 822.77 500.75 829.75 C 489.25 836.74 477.36 841.27 465.92 848.92 C 454.48 856.57 442.53 860.74 431.31 868.31 C 420.08 875.87 408.40 883.81 396.77 874.23 C 385.14 864.65 374.47 862.11 362.77 854.23 C 351.07 846.35 339.47 841.79 328.26 834.74 C 317.04 827.70 305.69 822.39 294.31 815.70 C 282.92 809.00 271.75 802.23 260.25 795.75 C 248.75 789.27 236.99 782.71 225.90 776.10 C 214.81 769.48 202.48 763.59 191.30 756.70 C 180.13 749.80 168.10 743.96 156.78 737.22 C 145.45 730.49 133.81 723.87 122.32 717.68 C 110.83 711.48 99.77 703.58 88.00 698.00
C 88.00 646.00 88.00 594.00 88.00 542.00
C 195.69 602.09 301.61 664.25 409.00 724.00 Z"/>
</g>
<g fill="None" fill-opacity="0.0" stroke="#FEB700" stroke-opacity="0.57" stroke-width="0.3"><path d="
M 813.00 400.00 
C 818.69 393.53 813.76 378.88 815.00 369.00 C 816.24 359.12 814.47 346.48 815.00 336.00 C 815.53 325.52 814.83 313.74 815.00 303.00 C 815.17 292.26 815.08 280.82 815.00 270.00 C 814.93 259.18 815.37 247.78 815.00 237.00 C 814.63 226.22 815.95 215.69 815.00 205.00
C 815.00 205.00 814.32 205.24 814.00 205.00
C 813.02 215.84 814.50 227.14 814.00 238.00 C 813.50 248.86 814.34 260.21 814.00 271.00 C 813.66 281.79 814.42 292.33 814.00 303.00 C 813.58 313.67 814.75 325.54 814.00 336.00 C 813.25 346.46 815.58 359.11 814.00 369.00 C 812.42 378.89 818.08 391.71 813.00 400.00 Z"/>
</g>
<g fill="None" fill-opacity="0.0" stroke="#252525" stroke-opacity="0.98" stroke-width="0.3"><path d="
M 998.00 259.00 
C 980.67 259.00 963.33 259.00 946.00 259.00
C 946.00 340.00 946.00 421.00 946.00 502.00
C 963.33 502.00 980.67 502.00 998.00 502.00
C 998.00 421.00 998.00 340.00 998.00 259.00 Z"/>
</g>
<g fill="None" fill-opacity="0.0" stroke="#252525" stroke-opacity="0.98" stroke-width="0.3"><path d="
M 1098.00 259.00 
C 1077.67 259.00 1057.33 259.00 1037.00 259.00
C 1037.00 340.00 1037.00 421.00 1037.00 502.00
C 1052.66 502.00 1068.33 502.00 1084.00 502.00
C 1084.67 448.15 1082.66 393.10 1085.00 340.00
C 1105.89 393.42 1128.81 446.59 1150.00 500.00
C 1161.33 500.00 1172.67 500.00 1184.00 500.00
C 1204.18 445.47 1228.78 392.50 1249.00 338.00
C 1251.33 391.68 1249.33 447.50 1250.00 502.00
C 1265.34 502.00 1280.67 502.00 1296.00 502.00
C 1296.00 421.00 1296.00 340.00 1296.00 259.00
C 1276.00 259.00 1256.00 259.00 1236.00 259.00
C 1212.86 316.06 1190.42 373.19 1167.00 430.00
C 1142.86 373.67 1120.39 316.33 1098.00 259.00 Z"/>
</g>
<g fill="None" fill-opacity="0.0" stroke="#252525" stroke-opacity="0.98" stroke-width="0.3"><path d="
M 1520.00 350.00 
C 1519.75 345.78 1519.68 340.17 1520.00 336.00
C 1517.00 303.02 1499.69 269.46 1463.02 261.98 C 1426.36 254.49 1374.96 261.40 1336.00 259.00
C 1336.00 340.00 1336.00 421.00 1336.00 502.00
C 1353.33 502.00 1370.67 502.00 1388.00 502.00
C 1388.00 476.67 1388.01 451.33 1388.00 426.00
C 1418.40 426.32 1454.39 428.45 1480.30 414.30 C 1506.22 400.16 1516.35 377.40 1520.00 350.00
M 1388.00 385.00 
C 1388.00 356.67 1388.00 328.33 1388.00 300.00
C 1409.37 300.84 1441.61 295.09 1456.75 312.25 C 1471.90 329.41 1471.77 355.56 1456.75 372.75 C 1441.73 389.94 1409.22 384.05 1388.00 385.00 Z"/>
</g>
<g fill="None" fill-opacity="0.0" stroke="#252525" stroke-opacity="0.65" stroke-width="0.3"><path d="
M 1711.00 502.00 
C 1658.57 499.67 1604.18 501.67 1551.00 501.00
C 1551.00 420.67 1551.00 340.33 1551.00 260.00
C 1604.17 259.33 1658.65 261.33 1711.00 259.00
C 1657.00 259.00 1603.00 259.00 1549.00 259.00
C 1549.00 340.00 1549.00 421.00 1549.00 502.00
C 1555.86 501.99 1563.19 502.01 1570.00 502.00 C 1576.81 501.99 1583.27 502.03 1590.00 502.00 C 1596.73 501.97 1603.30 502.06 1610.00 502.00 C 1616.70 501.94 1623.31 502.13 1630.00 502.00 C 1636.69 501.87 1644.42 502.27 1651.00 502.00 C 1657.58 501.73 1664.73 502.63 1671.00 502.00 C 1677.27 501.37 1685.30 503.42 1691.00 502.00 C 1696.70 500.58 1706.51 505.14 1711.00 502.00 Z"/>
</g>
<g fill="None" fill-opacity="0.0" stroke="#252525" stroke-opacity="0.98" stroke-width="0.3"><path d="
M 1711.00 502.00 
C 1715.08 490.80 1709.00 484.75 1712.00 472.00 C 1715.00 459.25 1705.07 457.59 1694.00 459.00 C 1682.93 460.41 1673.63 458.34 1663.00 459.00 C 1652.37 459.66 1642.40 458.65 1632.00 459.00 C 1621.60 459.35 1612.30 458.73 1602.00 459.00
C 1602.00 439.00 1602.00 419.00 1602.00 399.00
C 1636.67 399.00 1671.33 399.00 1706.00 399.00
C 1703.37 388.86 1709.52 372.53 1705.99 363.01 C 1702.47 353.49 1684.00 360.73 1674.00 359.00 C 1664.00 357.27 1648.96 359.90 1638.00 359.00 C 1627.04 358.10 1613.22 359.68 1602.00 359.00
C 1602.00 339.67 1602.00 320.33 1602.00 301.00
C 1638.67 301.00 1675.33 301.00 1712.00 301.00
C 1710.97 295.12 1713.38 284.40 1712.00 279.00 C 1710.62 273.60 1715.22 261.95 1711.00 259.00
C 1658.65 261.33 1604.17 259.33 1551.00 260.00
C 1551.00 340.33 1551.00 420.67 1551.00 501.00
C 1604.18 501.67 1658.57 499.67 1711.00 502.00 Z"/>
</g>
<g fill="None" fill-opacity="0.0" stroke="#252525" stroke-opacity="0.98" stroke-width="0.3"><path d="
M 1893.00 406.00 
C 1924.99 393.66 1942.06 355.79 1935.98 323.02 C 1929.89 290.26 1909.40 265.06 1873.02 260.98 C 1836.65 256.89 1786.29 259.93 1748.00 259.00
C 1748.00 340.00 1748.00 421.00 1748.00 502.00
C 1765.33 502.00 1782.67 502.00 1800.00 502.00
C 1800.00 472.67 1800.00 443.33 1800.00 414.00
C 1810.51 414.21 1824.87 413.72 1835.00 414.00 C 1845.12 414.28 1844.93 426.34 1849.70 433.31 C 1854.46 440.27 1857.56 449.06 1861.68 456.32 C 1865.79 463.59 1868.88 471.52 1873.08 478.92 C 1877.28 486.31 1881.06 494.10 1884.00 502.00
C 1904.00 502.00 1924.00 502.00 1944.00 502.00
C 1927.06 470.11 1909.90 438.01 1893.00 406.00
M 1800.00 376.00 
C 1800.00 350.33 1800.00 324.67 1800.00 299.00
C 1821.72 300.49 1854.53 293.61 1871.25 308.75 C 1887.96 323.90 1888.20 350.52 1871.92 365.92 C 1855.63 381.32 1822.02 374.45 1800.00 376.00 Z"/>
</g>
<g fill="None" fill-opacity="0.0" stroke="#242424" stroke-opacity="0.98" stroke-width="0.3"><path d="
M 2021.00 259.00 
C 2003.66 259.00 1986.34 259.00 1969.00 259.00
C 1969.00 340.00 1969.00 421.00 1969.00 502.00
C 1986.33 502.00 2003.67 502.00 2021.00 502.00
C 2021.00 421.00 2021.00 340.00 2021.00 259.00 Z"/>
</g>
<g fill="None" fill-opacity="0.0" stroke="#252525" stroke-opacity="0.98" stroke-width="0.3"><path d="
M 2191.00 259.00 
C 2174.47 257.19 2158.60 261.42 2142.00 259.00 C 2125.40 256.58 2124.98 273.86 2119.99 285.99 C 2115.01 298.12 2112.54 310.71 2107.78 322.78 C 2103.02 334.84 2099.12 346.77 2094.93 358.93 C 2090.73 371.09 2086.36 383.17 2082.31 395.31 C 2078.25 407.44 2073.89 419.70 2069.78 431.78 C 2065.67 443.85 2061.49 454.91 2057.32 466.32 C 2053.16 477.74 2049.62 490.60 2045.00 502.00
C 2063.00 502.00 2081.00 502.00 2099.00 502.00
C 2104.17 482.04 2112.07 462.98 2117.00 443.00
C 2125.85 443.09 2135.20 442.89 2144.00 443.00 C 2152.80 443.11 2162.38 442.78 2171.00 443.00 C 2179.62 443.22 2189.81 442.53 2198.00 443.00 C 2206.19 443.48 2203.74 454.97 2207.07 460.93 C 2210.40 466.88 2211.18 474.63 2214.01 480.99 C 2216.84 487.36 2217.34 495.48 2220.00 502.00
C 2238.67 502.00 2257.33 502.00 2276.00 502.00
C 2247.20 421.01 2219.44 340.03 2191.00 259.00
M 2160.00 306.00 
C 2169.13 338.84 2180.77 371.10 2190.00 404.00
C 2169.67 404.00 2149.33 404.00 2129.00 404.00
C 2138.97 371.30 2148.98 338.02 2160.00 306.00 Z"/>
</g>
<g fill="None" fill-opacity="0.0" stroke="#252525" stroke-opacity="0.99" stroke-width="0.3"><path d="
M 2351.00 259.00 
C 2334.00 259.00 2317.00 259.00 2300.00 259.00
C 2300.00 340.00 2300.00 421.00 2300.00 502.00
C 2352.66 502.00 2405.34 502.00 2458.00 502.00
C 2459.97 490.15 2455.38 484.47 2458.00 472.00 C 2460.62 459.53 2451.98 457.60 2441.00 459.00 C 2430.02 460.40 2421.46 458.35 2411.00 459.00 C 2400.54 459.65 2391.24 458.66 2381.00 459.00 C 2370.76 459.34 2361.18 458.74 2351.00 459.00
C 2351.00 392.34 2351.00 325.66 2351.00 259.00 Z"/>
</g>
<g fill="None" fill-opacity="0.0" stroke="#000000" stroke-opacity="0.00" stroke-width="0.3"><path d="
M 188.00 274.00 
C 154.33 274.00 120.67 274.00 87.00 274.00
C 87.00 331.33 87.00 388.67 87.00 446.00
C 121.15 463.74 154.16 483.47 188.00 502.00
C 188.00 426.00 188.00 350.00 188.00 274.00 Z"/>
</g>
<g fill="None" fill-opacity="0.0" stroke="#000000" stroke-opacity="0.00" stroke-width="0.3"><path d="
M 370.00 274.00 
C 336.33 274.00 302.67 274.00 269.00 274.00
C 268.99 290.24 269.01 306.78 269.00 323.00 C 268.99 339.22 269.02 355.89 269.00 372.00 C 268.98 388.11 269.04 404.05 269.00 420.00 C 268.96 435.95 269.09 453.34 269.00 469.00 C 268.91 484.66 269.21 502.00 269.00 517.00 C 268.79 532.00 265.53 550.45 278.77 556.23 C 292.01 562.01 297.70 567.90 309.30 573.70 C 320.91 579.49 329.39 585.41 340.77 591.23 C 352.15 597.05 359.78 603.31 371.00 609.00
C 369.04 497.74 370.40 385.65 370.00 274.00 Z"/>
</g>
<g fill="None" fill-opacity="0.0" stroke="#000000" stroke-opacity="0.00" stroke-width="0.3"><path d="
M 1800.00 376.00 
C 1822.02 374.45 1855.63 381.32 1871.92 365.92 C 1888.20 350.52 1887.96 323.90 1871.25 308.75 C 1854.53 293.61 1821.72 300.49 1800.00 299.00
C 1800.00 324.67 1800.00 350.33 1800.00 376.00 Z"/>
</g>
<g fill="None" fill-opacity="0.0" stroke="#000000" stroke-opacity="0.00" stroke-width="0.3"><path d="
M 1388.00 385.00 
C 1409.22 384.05 1441.73 389.94 1456.75 372.75 C 1471.77 355.56 1471.90 329.41 1456.75 312.25 C 1441.61 295.09 1409.37 300.84 1388.00 300.00
C 1388.00 328.33 1388.00 356.67 1388.00 385.00 Z"/>
</g>
<g fill="None" fill-opacity="0.0" stroke="#000000" stroke-opacity="0.00" stroke-width="0.3"><path d="
M 2160.00 306.00 
C 2148.98 338.02 2138.97 371.30 2129.00 404.00
C 2149.33 404.00 2169.67 404.00 2190.00 404.00
C 2180.77 371.10 2169.13 338.84 2160.00 306.00 Z"/>
</g>
<g fill="None" fill-opacity="0.0" stroke="#FFB700" stroke-opacity="0.39" stroke-width="0.3"><path d="
M 551.00 375.00 
C 551.71 369.71 553.27 360.50 553.00 353.00 C 552.73 345.50 551.95 338.62 551.00 332.00
C 551.00 346.18 549.88 360.87 551.00 375.00 Z"/>
</g>
<g fill="None" fill-opacity="0.0" stroke="#262626" stroke-opacity="0.43" stroke-width="0.3"><path d="
M 1520.00 350.00 
C 1520.67 344.97 1520.59 340.99 1520.00 336.00
C 1519.68 340.17 1519.75 345.78 1520.00 350.00 Z"/>
</g>
<g fill="None" fill-opacity="0.0" stroke="#FFA100" stroke-opacity="0.45" stroke-width="0.3"><path d="
M 553.00 494.00 
C 553.00 496.00 553.00 498.00 553.00 500.00
C 553.02 500.10 554.00 500.00 554.00 500.00
C 554.50 500.00 555.00 500.00 555.00 500.00
C 555.00 497.00 555.00 494.00 555.00 491.00
C 554.29 491.38 553.12 493.44 553.00 494.00 Z"/>
</g>
<g fill="None" fill-opacity="0.0" stroke="#FEFF00" stroke-opacity="0.00" stroke-width="0.3"><path d="
M 554.00 512.00 
C 554.00 508.05 554.35 503.93 554.00 500.00
C 554.00 500.00 553.02 500.10 553.00 500.00
C 553.00 504.08 553.67 508.60 554.00 512.00 Z"/>
</g>
<g fill="None" fill-opacity="0.0" stroke="#FEB700" stroke-opacity="0.59" stroke-width="0.3"><path d="
M 554.00 512.00 
C 554.00 514.00 554.00 516.00 554.00 518.00
C 554.51 512.70 555.00 506.05 555.00 500.00
C 555.00 500.00 554.50 500.00 554.00 500.00
C 554.35 503.93 554.00 508.05 554.00 512.00 Z"/>
</g>
<g fill="None" fill-opacity="0.0" stroke="#000000" stroke-opacity="0.00" stroke-width="0.3"><path d="
M 409.00 724.00 
C 301.61 664.25 195.69 602.09 88.00 542.00
C 88.00 594.00 88.00 646.00 88.00 698.00
C 99.77 703.58 110.83 711.48 122.32 717.68 C 133.81 723.87 145.45 730.49 156.78 737.22 C 168.10 743.96 180.13 749.80 191.30 756.70 C 202.48 763.59 214.81 769.48 225.90 776.10 C 236.99 782.71 248.75 789.27 260.25 795.75 C 271.75 802.23 282.92 809.00 294.31 815.70 C 305.69 822.39 317.04 827.70 328.26 834.74 C 339.47 841.79 351.07 846.35 362.77 854.23 C 374.47 862.11 385.14 864.65 396.77 874.23 C 408.40 883.81 420.08 875.87 431.31 868.31 C 442.53 860.74 454.48 856.57 465.92 848.92 C 477.36 841.27 489.25 836.74 500.75 829.75 C 512.25 822.77 523.42 816.43 534.92 809.92 C 546.42 803.41 557.32 797.19 568.77 790.77 C 580.22 784.35 591.73 777.53 603.25 771.25 C 614.77 764.98 625.87 757.76 637.32 751.32 C 648.77 744.88 660.58 738.86 671.78 731.78 C 682.98 724.69 695.60 720.17 706.31 712.31 C 717.01 704.44 735.68 703.11 735.00 687.00 C 734.32 670.89 735.51 650.50 735.00 634.00
C 626.05 694.31 518.54 756.17 409.00 816.00
C 409.00 785.34 409.00 754.66 409.00 724.00 Z"/>
</g>
<g fill="None" fill-opacity="0.0" stroke="#252525" stroke-opacity="0.95" stroke-width="0.3"><path d="
M 1193.00 639.00 
C 1190.33 590.05 1123.63 570.92 1089.10 599.10 C 1054.57 627.27 1054.48 690.87 1089.25 718.75 C 1124.02 746.62 1190.66 727.52 1193.00 680.00
C 1183.00 680.00 1173.00 680.00 1163.00 680.00
C 1159.87 707.23 1119.20 715.04 1104.92 694.08 C 1090.64 673.13 1090.54 640.12 1107.75 620.75 C 1124.97 601.38 1160.84 614.11 1163.00 640.00
C 1172.92 639.37 1183.50 641.29 1193.00 639.00 Z"/>
</g>
<g fill="None" fill-opacity="0.0" stroke="#252525" stroke-opacity="0.95" stroke-width="0.3"><path d="
M 1014.00 589.00 
C 1002.00 589.00 990.00 589.00 978.00 589.00
C 962.25 635.80 944.97 681.93 930.00 729.00
C 940.33 729.00 950.67 729.00 961.00 729.00
C 963.60 717.41 968.29 706.51 971.00 695.00
C 981.29 694.06 991.72 696.25 1002.00 695.00 C 1012.28 693.75 1021.58 694.74 1022.67 705.33 C 1023.76 715.91 1028.48 719.16 1030.00 729.00
C 1040.67 729.00 1051.33 729.00 1062.00 729.00
C 1046.74 682.15 1029.03 635.94 1014.00 589.00
M 996.00 616.00 
C 1000.19 635.03 1006.75 653.54 1013.00 672.00
C 1001.33 672.00 989.67 672.00 978.00 672.00
C 984.17 653.49 989.38 634.05 996.00 616.00 Z"/>
</g>
<g fill="None" fill-opacity="0.0" stroke="#252525" stroke-opacity="0.95" stroke-width="0.3"><path d="
M 1280.00 589.00 
C 1270.70 590.35 1255.74 587.20 1247.01 589.01 C 1238.28 590.82 1240.33 603.57 1236.33 610.33 C 1232.33 617.09 1231.70 626.97 1228.31 634.31 C 1224.91 641.64 1223.00 650.26 1219.93 657.93 C 1216.86 665.59 1214.80 673.99 1211.78 681.78 C 1208.76 689.56 1206.38 697.86 1203.77 705.77 C 1201.17 713.69 1197.18 720.89 1195.00 729.00
C 1205.66 729.00 1216.34 729.00 1227.00 729.00
C 1229.44 717.38 1234.17 706.48 1237.00 695.00
C 1253.00 695.00 1269.00 695.00 1285.00 695.00
C 1289.22 704.68 1289.90 715.08 1294.22 724.78 C 1298.55 734.47 1318.88 726.29 1328.00 729.00
C 1312.22 681.99 1294.95 636.34 1280.00 589.00
M 1279.00 672.00 
C 1267.33 672.00 1255.67 672.00 1244.00 672.00
C 1248.91 654.25 1255.55 636.97 1260.00 619.00
C 1269.37 633.92 1270.96 655.15 1279.00 672.00 Z"/>
</g>
<g fill="None" fill-opacity="0.0" stroke="#252525" stroke-opacity="0.96" stroke-width="0.3"><path d="
M 1341.00 729.00 
C 1368.81 727.84 1405.15 733.51 1429.26 721.26 C 1453.36 709.01 1461.70 684.48 1462.00 659.00 C 1462.30 633.52 1453.73 607.66 1429.08 595.92 C 1404.42 584.19 1368.92 590.59 1341.00 589.00
C 1340.99 635.67 1341.01 682.33 1341.00 729.00
M 1371.00 704.00 
C 1371.00 674.00 1371.00 644.00 1371.00 614.00
C 1405.16 607.06 1431.17 625.01 1431.00 659.00 C 1430.83 692.99 1404.53 710.43 1371.00 704.00 Z"/>
</g>
<g fill="None" fill-opacity="0.0" stroke="#252525" stroke-opacity="0.95" stroke-width="0.3"><path d="
M 1572.00 589.00 
C 1541.00 589.00 1510.00 589.00 1479.00 589.00
C 1479.06 600.20 1478.92 611.85 1479.00 623.00 C 1479.08 634.15 1478.84 644.91 1479.00 656.00 C 1479.16 667.09 1478.66 677.91 1479.00 689.00 C 1479.34 700.09 1478.27 711.96 1479.00 723.00 C 1479.73 734.04 1496.53 727.85 1506.00 729.00 C 1515.47 730.15 1528.80 728.40 1539.00 729.00 C 1549.20 729.60 1561.60 728.55 1572.00 729.00
C 1572.00 720.67 1572.00 712.33 1572.00 704.00
C 1551.33 704.00 1530.67 704.00 1510.00 704.00
C 1510.00 692.67 1510.00 681.33 1510.00 670.00
C 1529.67 670.00 1549.33 670.00 1569.00 670.00
C 1569.00 662.00 1569.00 654.00 1569.00 646.00
C 1549.33 646.00 1529.67 646.00 1510.00 646.00
C 1510.00 635.33 1510.00 624.67 1510.00 614.00
C 1530.67 614.00 1551.33 614.00 1572.00 614.00
C 1572.00 605.67 1572.00 597.33 1572.00 589.00 Z"/>
</g>
<g fill="None" fill-opacity="0.0" stroke="#252525" stroke-opacity="0.95" stroke-width="0.3"><path d="
M 1715.00 728.00 
C 1717.78 729.94 1723.47 727.06 1727.00 728.00 C 1730.53 728.94 1736.27 727.29 1740.00 728.00
C 1740.00 682.00 1740.00 636.00 1740.00 590.00
C 1728.67 590.00 1717.33 590.00 1706.00 590.00
C 1693.03 622.17 1679.83 654.54 1667.00 687.00
C 1654.24 654.69 1640.08 621.56 1628.00 589.00
C 1616.00 589.00 1604.00 589.00 1592.00 589.00
C 1592.00 635.67 1592.01 682.33 1592.00 729.00
C 1601.33 729.00 1610.67 729.00 1620.00 729.00
C 1620.67 698.82 1618.67 667.43 1621.00 638.00
C 1624.12 647.10 1627.70 655.75 1631.25 664.75 C 1634.79 673.76 1639.01 680.40 1642.07 689.93 C 1645.14 699.45 1649.86 705.24 1652.23 715.77 C 1654.59 726.30 1664.10 731.35 1676.00 728.00
C 1688.86 697.85 1701.60 667.53 1713.00 637.00
C 1715.27 643.53 1713.42 652.69 1714.00 660.00 C 1714.58 667.31 1713.28 675.93 1714.00 683.00 C 1714.72 690.07 1712.65 699.57 1714.00 706.00 C 1715.35 712.43 1710.66 723.66 1715.00 728.00 Z"/>
</g>
<g fill="None" fill-opacity="0.0" stroke="#272727" stroke-opacity="0.39" stroke-width="0.3"><path d="
M 1706.00 590.00 
C 1717.33 590.00 1728.67 590.00 1740.00 590.00
C 1740.00 636.00 1740.00 682.00 1740.00 728.00
C 1736.27 727.29 1730.53 728.94 1727.00 728.00 C 1723.47 727.06 1717.78 729.94 1715.00 728.00
C 1722.13 727.79 1741.96 734.27 1742.00 723.00 C 1742.04 711.73 1741.98 700.21 1742.00 689.00 C 1742.02 677.79 1741.99 667.18 1742.00 656.00 C 1742.01 644.82 1742.00 633.16 1742.00 622.00 C 1742.00 610.84 1742.00 600.12 1742.00 589.00
C 1736.34 589.69 1728.43 588.08 1723.00 589.00 C 1717.57 589.92 1710.02 586.69 1706.00 590.00 Z"/>
</g>
<g fill="None" fill-opacity="0.0" stroke="#252525" stroke-opacity="0.96" stroke-width="0.3"><path d="
M 1788.00 589.00 
C 1777.00 589.00 1766.00 589.00 1755.00 589.00
C 1761.26 603.46 1769.18 615.87 1776.75 630.25 C 1784.31 644.64 1791.89 655.46 1799.23 670.77 C 1806.57 686.08 1801.57 711.23 1803.00 729.00
C 1813.00 729.00 1823.00 729.00 1833.00 729.00
C 1835.04 711.42 1828.65 684.77 1836.75 669.75 C 1844.84 654.72 1852.04 643.81 1859.23 629.23 C 1866.42 614.65 1875.64 603.84 1881.00 589.00
C 1870.18 589.96 1850.67 585.03 1846.26 595.26 C 1841.84 605.48 1836.40 611.06 1831.97 620.97 C 1827.55 630.88 1822.74 638.10 1819.00 648.00
C 1808.08 629.05 1797.20 609.23 1788.00 589.00 Z"/>
</g>
<g fill="None" fill-opacity="0.0" stroke="#000000" stroke-opacity="0.00" stroke-width="0.3"><path d="
M 1371.00 704.00 
C 1404.53 710.43 1430.83 692.99 1431.00 659.00 C 1431.17 625.01 1405.16 607.06 1371.00 614.00
C 1371.00 644.00 1371.00 674.00 1371.00 704.00 Z"/>
</g>
<g fill="None" fill-opacity="0.0" stroke="#000000" stroke-opacity="0.00" stroke-width="0.3"><path d="
M 996.00 616.00 
C 989.38 634.05 984.17 653.49 978.00 672.00
C 989.67 672.00 1001.33 672.00 1013.00 672.00
C 1006.75 653.54 1000.19 635.03 996.00 616.00 Z"/>
</g>
<g fill="None" fill-opacity="0.0" stroke="#000000" stroke-opacity="0.00" stroke-width="0.3"><path d="
M 1279.00 672.00 
C 1270.96 655.15 1269.37 633.92 1260.00 619.00
C 1255.55 636.97 1248.91 654.25 1244.00 672.00
C 1255.67 672.00 1267.33 672.00 1279.00 672.00 Z"/>
</g>
<g fill="#000000" fill-opacity="0.00" stroke="None">
<path d="
M 0.00 990.00 
L 410.00 990.00
C 401.29 983.63 391.20 979.03 381.77 973.23 C 372.34 967.43 362.50 962.96 352.92 957.08 C 343.35 951.19 333.35 945.99 323.77 940.23 C 314.19 934.47 304.67 929.54 294.92 924.08 C 285.18 918.61 276.57 912.74 266.75 907.25 C 256.94 901.75 246.85 896.11 237.30 890.70 C 227.76 885.28 218.37 879.68 208.77 874.23 C 199.17 868.78 189.86 863.24 180.25 857.75 C 170.65 852.25 160.25 846.86 150.78 841.22 C 141.30 835.59 131.76 830.10 122.30 824.70 C 112.85 819.30 103.17 814.08 93.75 808.25 C 84.34 802.41 73.30 797.67 64.30 791.70 C 55.31 785.72 43.46 781.55 35.78 775.22 C 28.09 768.90 12.08 766.46 7.00 758.00
C 3.81 752.69 6.77 744.55 6.00 738.00 C 5.23 731.45 6.33 723.90 6.00 717.00 C 5.67 710.10 6.16 702.02 6.00 695.00 C 5.84 687.98 6.07 681.05 6.00 674.00 C 5.93 666.95 6.03 660.11 6.00 653.00 C 5.97 645.89 6.01 638.12 6.00 631.00 C 5.99 623.88 6.01 617.09 6.00 610.00 C 5.99 602.91 6.00 596.13 6.00 589.00 C 6.00 581.87 6.00 574.13 6.00 567.00 C 6.00 559.87 6.00 553.10 6.00 546.00 C 6.00 538.90 6.00 532.13 6.00 525.00 C 6.00 517.87 6.00 510.13 6.00 503.00 C 6.00 495.87 6.00 489.10 6.00 482.00 C 6.00 474.90 6.00 468.13 6.00 461.00 C 6.00 453.87 6.00 446.13 6.00 439.00 C 6.00 431.87 6.00 425.10 6.00 418.00 C 6.00 410.90 6.00 404.13 6.00 397.00 C 6.00 389.87 5.99 382.13 6.00 375.00 C 6.01 367.87 5.99 361.09 6.00 354.00 C 6.01 346.91 5.97 340.11 6.00 333.00 C 6.03 325.89 5.94 318.09 6.00 311.00 C 6.06 303.91 5.85 297.01 6.00 290.00 C 6.15 282.99 5.67 275.92 6.00 269.00 C 6.33 262.08 5.31 253.69 6.00 247.00 C 6.69 240.31 4.40 232.08 6.00 226.00 C 7.60 219.92 2.60 208.85 6.00 204.00
C 9.05 199.64 21.14 204.25 27.00 203.00 C 32.86 201.75 43.27 203.59 50.00 203.00 C 56.73 202.41 64.82 203.25 72.00 203.00 C 79.18 202.75 87.64 203.12 95.00 203.00 C 102.36 202.88 109.55 203.05 117.00 203.00 C 124.45 202.95 132.51 203.02 140.00 203.00 C 147.49 202.98 154.47 203.01 162.00 203.00 C 169.53 202.99 177.44 203.00 185.00 203.00 C 192.56 203.00 200.46 203.00 208.00 203.00 C 215.54 203.00 222.48 203.00 230.00 203.00 C 237.52 203.00 245.48 203.00 253.00 203.00 C 260.52 203.00 267.49 203.00 275.00 203.00 C 282.51 203.00 290.49 203.00 298.00 203.00 C 305.51 203.00 312.48 203.00 320.00 203.00 C 327.52 203.00 335.48 203.00 343.00 203.00 C 350.52 203.00 357.46 203.00 365.00 203.00 C 372.54 203.00 380.43 203.00 388.00 203.00 C 395.57 203.00 403.46 203.00 411.00 203.00 C 418.54 203.00 425.48 203.00 433.00 203.00 C 440.52 203.00 448.48 203.00 456.00 203.00 C 463.52 203.00 470.49 203.00 478.00 203.00 C 485.51 203.00 493.49 203.00 501.00 203.00 C 508.51 203.00 515.48 203.00 523.00 203.00 C 530.52 203.00 538.48 203.00 546.00 203.00 C 553.52 203.00 560.46 203.00 568.00 203.00 C 575.54 203.00 583.43 203.00 591.00 203.00 C 598.57 203.00 606.47 203.00 614.00 203.00 C 621.53 203.00 628.49 203.00 636.00 203.00 C 643.51 203.00 651.50 202.99 659.00 203.00 C 666.50 203.01 673.53 202.99 681.00 203.00 C 688.47 203.01 696.58 202.97 704.00 203.00 C 711.42 203.03 718.71 202.94 726.00 203.00 C 733.29 203.06 741.96 202.88 749.00 203.00 C 756.04 203.12 764.58 202.71 771.00 203.00 C 777.42 203.29 788.80 202.39 794.00 203.00 C 799.20 203.61 814.76 200.76 815.00 205.00
C 815.95 215.69 814.63 226.22 815.00 237.00 C 815.37 247.78 814.93 259.18 815.00 270.00 C 815.08 280.82 815.17 292.26 815.00 303.00 C 814.83 313.74 815.53 325.52 815.00 336.00 C 814.47 346.48 816.24 359.12 815.00 369.00 C 813.76 378.88 818.69 393.53 813.00 400.00
C 803.68 410.59 786.39 413.31 774.78 421.78 C 763.16 430.25 748.11 436.07 736.00 443.00
C 736.00 387.33 736.00 331.67 736.00 276.00
C 702.67 276.00 669.33 276.00 636.00 276.00
C 635.98 290.63 636.02 305.39 636.00 320.00 C 635.98 334.61 636.04 349.44 636.00 364.00 C 635.96 378.56 636.08 393.56 636.00 408.00 C 635.92 422.44 636.18 438.93 636.00 453.00 C 635.82 467.07 636.40 483.85 636.00 497.00 C 635.59 510.15 620.14 509.94 611.75 516.75 C 603.37 523.57 592.39 526.55 583.32 532.32 C 574.25 538.10 564.07 544.57 554.00 548.00
C 554.00 538.00 554.00 528.00 554.00 518.00
C 554.00 516.00 554.00 514.00 554.00 512.00
C 553.67 508.60 553.00 504.08 553.00 500.00
C 553.00 498.00 553.00 496.00 553.00 494.00
C 553.00 454.28 554.11 414.16 551.00 375.00
C 549.88 360.87 551.00 346.18 551.00 332.00
C 551.00 313.28 551.46 294.37 550.00 276.00
C 518.00 276.00 486.00 276.00 454.00 276.00
C 454.00 289.48 454.00 302.48 454.00 316.00 C 454.00 329.52 454.01 343.42 454.00 357.00 C 453.99 370.58 454.01 384.42 454.00 398.00 C 453.99 411.58 454.03 425.49 454.00 439.00 C 453.97 452.51 454.06 465.55 454.00 479.00 C 453.94 492.45 454.13 506.65 454.00 520.00 C 453.87 533.35 454.29 547.97 454.00 561.00 C 453.71 574.03 454.64 589.70 454.00 602.00 C 453.36 614.30 439.06 612.55 431.31 619.30 C 423.55 626.06 408.53 625.33 410.00 639.00 C 411.47 652.67 409.23 666.33 410.00 680.00 C 410.77 693.67 409.42 707.33 410.00 721.00
C 545.58 648.73 680.06 575.23 815.00 502.00
C 815.01 587.67 815.00 673.33 815.00 759.00
C 680.50 834.96 546.02 913.41 414.00 990.00
L 2585.00 990.00
L 2585.00 0.00
L 732.00 0.00
C 731.99 6.81 732.02 13.14 732.00 20.00 C 731.98 26.86 732.03 34.09 732.00 41.00 C 731.97 47.91 732.06 55.11 732.00 62.00 C 731.94 68.89 732.14 76.19 732.00 83.00 C 731.86 89.81 732.32 96.31 732.00 103.00 C 731.68 109.69 732.68 117.51 732.00 124.00 C 731.32 130.49 733.48 139.06 732.00 145.00 C 730.52 150.94 735.28 161.31 732.00 166.00
C 728.97 170.33 716.73 165.72 711.00 167.00 C 705.27 168.28 695.74 166.45 689.00 167.00 C 682.26 167.55 673.14 166.74 666.00 167.00 C 658.86 167.26 651.34 166.89 644.00 167.00 C 636.66 167.11 628.41 166.95 621.00 167.00 C 613.59 167.05 606.41 166.98 599.00 167.00 C 591.59 167.02 584.47 166.99 577.00 167.00 C 569.53 167.01 561.48 167.00 554.00 167.00 C 546.52 167.00 539.49 167.00 532.00 167.00 C 524.51 167.00 516.48 167.00 509.00 167.00 C 501.52 167.00 494.44 167.00 487.00 167.00 C 479.56 167.00 472.48 167.00 465.00 167.00 C 457.52 167.00 449.50 167.00 442.00 167.00 C 434.50 167.00 427.50 167.00 420.00 167.00 C 412.50 167.00 404.50 167.00 397.00 167.00 C 389.50 167.00 382.50 167.00 375.00 167.00 C 367.50 167.00 359.48 167.00 352.00 167.00 C 344.52 167.00 337.44 167.00 330.00 167.00 C 322.56 167.00 315.48 167.00 308.00 167.00 C 300.52 167.00 292.49 167.00 285.00 167.00 C 277.51 167.00 270.49 167.01 263.00 167.00 C 255.51 166.99 247.47 167.01 240.00 167.00 C 232.53 166.99 225.41 167.03 218.00 167.00 C 210.59 166.97 203.41 167.06 196.00 167.00 C 188.59 166.94 180.34 167.12 173.00 167.00 C 165.66 166.88 158.15 167.28 151.00 167.00 C 143.85 166.72 134.75 167.60 128.00 167.00 C 121.25 166.40 111.75 168.38 106.00 167.00 C 100.25 165.62 87.08 170.40 84.00 166.00
C 80.81 161.45 85.37 151.87 84.00 146.00 C 82.63 140.13 84.65 131.39 84.00 125.00 C 83.35 118.61 84.28 111.68 84.00 105.00 C 83.72 98.32 84.13 90.82 84.00 84.00 C 83.87 77.18 84.06 69.85 84.00 63.00 C 83.94 56.15 84.03 49.89 84.00 43.00 C 83.97 36.11 84.01 28.94 84.00 22.00 C 83.99 15.06 84.01 7.96 84.00 1.00
C 111.33 1.00 138.67 1.00 166.00 1.00
C 169.99 3.79 165.85 14.81 167.00 20.00 C 168.15 25.19 166.47 34.02 167.00 40.00 C 167.53 45.98 166.72 53.69 167.00 60.00 C 167.28 66.31 166.79 73.60 167.00 80.00
C 232.33 80.00 297.67 80.00 363.00 80.00
C 360.43 72.15 364.11 62.34 363.00 54.00 C 361.89 45.66 363.39 36.61 363.00 28.00 C 362.61 19.39 363.00 9.71 363.00 1.00
C 363.00 0.50 363.00 0.00 363.00 0.00
L 0.00 0.00
L 0.00 990.00
M 998.00 259.00 
C 998.00 340.00 998.00 421.00 998.00 502.00
C 980.67 502.00 963.33 502.00 946.00 502.00
C 946.00 421.00 946.00 340.00 946.00 259.00
C 963.33 259.00 980.67 259.00 998.00 259.00
M 1098.00 259.00 
C 1120.39 316.33 1142.86 373.67 1167.00 430.00
C 1190.42 373.19 1212.86 316.06 1236.00 259.00
C 1256.00 259.00 1276.00 259.00 1296.00 259.00
C 1296.00 340.00 1296.00 421.00 1296.00 502.00
C 1280.67 502.00 1265.34 502.00 1250.00 502.00
C 1249.33 447.50 1251.33 391.68 1249.00 338.00
C 1228.78 392.50 1204.18 445.47 1184.00 500.00
C 1172.67 500.00 1161.33 500.00 1150.00 500.00
C 1128.81 446.59 1105.89 393.42 1085.00 340.00
C 1082.66 393.10 1084.67 448.15 1084.00 502.00
C 1068.33 502.00 1052.66 502.00 1037.00 502.00
C 1037.00 421.00 1037.00 340.00 1037.00 259.00
C 1057.33 259.00 1077.67 259.00 1098.00 259.00
M 1520.00 336.00 
C 1520.59 340.99 1520.67 344.97 1520.00 350.00
C 1516.35 377.40 1506.22 400.16 1480.30 414.30 C 1454.39 428.45 1418.40 426.32 1388.00 426.00
C 1388.01 451.33 1388.00 476.67 1388.00 502.00
C 1370.67 502.00 1353.33 502.00 1336.00 502.00
C 1336.00 421.00 1336.00 340.00 1336.00 259.00
C 1374.96 261.40 1426.36 254.49 1463.02 261.98 C 1499.69 269.46 1517.00 303.02 1520.00 336.00
M 1711.00 502.00 
C 1706.51 505.14 1696.70 500.58 1691.00 502.00 C 1685.30 503.42 1677.27 501.37 1671.00 502.00 C 1664.73 502.63 1657.58 501.73 1651.00 502.00 C 1644.42 502.27 1636.69 501.87 1630.00 502.00 C 1623.31 502.13 1616.70 501.94 1610.00 502.00 C 1603.30 502.06 1596.73 501.97 1590.00 502.00 C 1583.27 502.03 1576.81 501.99 1570.00 502.00 C 1563.19 502.01 1555.86 501.99 1549.00 502.00
C 1549.00 421.00 1549.00 340.00 1549.00 259.00
C 1603.00 259.00 1657.00 259.00 1711.00 259.00
C 1715.22 261.95 1710.62 273.60 1712.00 279.00 C 1713.38 284.40 1710.97 295.12 1712.00 301.00
C 1675.33 301.00 1638.67 301.00 1602.00 301.00
C 1602.00 320.33 1602.00 339.67 1602.00 359.00
C 1613.22 359.68 1627.04 358.10 1638.00 359.00 C 1648.96 359.90 1664.00 357.27 1674.00 359.00 C 1684.00 360.73 1702.47 353.49 1705.99 363.01 C 1709.52 372.53 1703.37 388.86 1706.00 399.00
C 1671.33 399.00 1636.67 399.00 1602.00 399.00
C 1602.00 419.00 1602.00 439.00 1602.00 459.00
C 1612.30 458.73 1621.60 459.35 1632.00 459.00 C 1642.40 458.65 1652.37 459.66 1663.00 459.00 C 1673.63 458.34 1682.93 460.41 1694.00 459.00 C 1705.07 457.59 1715.00 459.25 1712.00 472.00 C 1709.00 484.75 1715.08 490.80 1711.00 502.00
M 1893.00 406.00 
C 1909.90 438.01 1927.06 470.11 1944.00 502.00
C 1924.00 502.00 1904.00 502.00 1884.00 502.00
C 1881.06 494.10 1877.28 486.31 1873.08 478.92 C 1868.88 471.52 1865.79 463.59 1861.68 456.32 C 1857.56 449.06 1854.46 440.27 1849.70 433.31 C 1844.93 426.34 1845.12 414.28 1835.00 414.00 C 1824.87 413.72 1810.51 414.21 1800.00 414.00
C 1800.00 443.33 1800.00 472.67 1800.00 502.00
C 1782.67 502.00 1765.33 502.00 1748.00 502.00
C 1748.00 421.00 1748.00 340.00 1748.00 259.00
C 1786.29 259.93 1836.65 256.89 1873.02 260.98 C 1909.40 265.06 1929.89 290.26 1935.98 323.02 C 1942.06 355.79 1924.99 393.66 1893.00 406.00
M 2021.00 259.00 
C 2021.00 340.00 2021.00 421.00 2021.00 502.00
C 2003.67 502.00 1986.33 502.00 1969.00 502.00
C 1969.00 421.00 1969.00 340.00 1969.00 259.00
C 1986.34 259.00 2003.66 259.00 2021.00 259.00
M 2191.00 259.00 
C 2219.44 340.03 2247.20 421.01 2276.00 502.00
C 2257.33 502.00 2238.67 502.00 2220.00 502.00
C 2217.34 495.48 2216.84 487.36 2214.01 480.99 C 2211.18 474.63 2210.40 466.88 2207.07 460.93 C 2203.74 454.97 2206.19 443.48 2198.00 443.00 C 2189.81 442.53 2179.62 443.22 2171.00 443.00 C 2162.38 442.78 2152.80 443.11 2144.00 443.00 C 2135.20 442.89 2125.85 443.09 2117.00 443.00
C 2112.07 462.98 2104.17 482.04 2099.00 502.00
C 2081.00 502.00 2063.00 502.00 2045.00 502.00
C 2049.62 490.60 2053.16 477.74 2057.32 466.32 C 2061.49 454.91 2065.67 443.85 2069.78 431.78 C 2073.89 419.70 2078.25 407.44 2082.31 395.31 C 2086.36 383.17 2090.73 371.09 2094.93 358.93 C 2099.12 346.77 2103.02 334.84 2107.78 322.78 C 2112.54 310.71 2115.01 298.12 2119.99 285.99 C 2124.98 273.86 2125.40 256.58 2142.00 259.00 C 2158.60 261.42 2174.47 257.19 2191.00 259.00
M 2351.00 259.00 
C 2351.00 325.66 2351.00 392.34 2351.00 459.00
C 2361.18 458.74 2370.76 459.34 2381.00 459.00 C 2391.24 458.66 2400.54 459.65 2411.00 459.00 C 2421.46 458.35 2430.02 460.40 2441.00 459.00 C 2451.98 457.60 2460.62 459.53 2458.00 472.00 C 2455.38 484.47 2459.97 490.15 2458.00 502.00
C 2405.34 502.00 2352.66 502.00 2300.00 502.00
C 2300.00 421.00 2300.00 340.00 2300.00 259.00
C 2317.00 259.00 2334.00 259.00 2351.00 259.00
M 1193.00 639.00 
C 1183.50 641.29 1172.92 639.37 1163.00 640.00
C 1160.84 614.11 1124.97 601.38 1107.75 620.75 C 1090.54 640.12 1090.64 673.13 1104.92 694.08 C 1119.20 715.04 1159.87 707.23 1163.00 680.00
C 1173.00 680.00 1183.00 680.00 1193.00 680.00
C 1190.66 727.52 1124.02 746.62 1089.25 718.75 C 1054.48 690.87 1054.57 627.27 1089.10 599.10 C 1123.63 570.92 1190.33 590.05 1193.00 639.00
M 1014.00 589.00 
C 1029.03 635.94 1046.74 682.15 1062.00 729.00
C 1051.33 729.00 1040.67 729.00 1030.00 729.00
C 1028.48 719.16 1023.76 715.91 1022.67 705.33 C 1021.58 694.74 1012.28 693.75 1002.00 695.00 C 991.72 696.25 981.29 694.06 971.00 695.00
C 968.29 706.51 963.60 717.41 961.00 729.00
C 950.67 729.00 940.33 729.00 930.00 729.00
C 944.97 681.93 962.25 635.80 978.00 589.00
C 990.00 589.00 1002.00 589.00 1014.00 589.00
M 1280.00 589.00 
C 1294.95 636.34 1312.22 681.99 1328.00 729.00
C 1318.88 726.29 1298.55 734.47 1294.22 724.78 C 1289.90 715.08 1289.22 704.68 1285.00 695.00
C 1269.00 695.00 1253.00 695.00 1237.00 695.00
C 1234.17 706.48 1229.44 717.38 1227.00 729.00
C 1216.34 729.00 1205.66 729.00 1195.00 729.00
C 1197.18 720.89 1201.17 713.69 1203.77 705.77 C 1206.38 697.86 1208.76 689.56 1211.78 681.78 C 1214.80 673.99 1216.86 665.59 1219.93 657.93 C 1223.00 650.26 1224.91 641.64 1228.31 634.31 C 1231.70 626.97 1232.33 617.09 1236.33 610.33 C 1240.33 603.57 1238.28 590.82 1247.01 589.01 C 1255.74 587.20 1270.70 590.35 1280.00 589.00
M 1341.00 729.00 
C 1341.01 682.33 1340.99 635.67 1341.00 589.00
C 1368.92 590.59 1404.42 584.19 1429.08 595.92 C 1453.73 607.66 1462.30 633.52 1462.00 659.00 C 1461.70 684.48 1453.36 709.01 1429.26 721.26 C 1405.15 733.51 1368.81 727.84 1341.00 729.00
M 1572.00 589.00 
C 1572.00 597.33 1572.00 605.67 1572.00 614.00
C 1551.33 614.00 1530.67 614.00 1510.00 614.00
C 1510.00 624.67 1510.00 635.33 1510.00 646.00
C 1529.67 646.00 1549.33 646.00 1569.00 646.00
C 1569.00 654.00 1569.00 662.00 1569.00 670.00
C 1549.33 670.00 1529.67 670.00 1510.00 670.00
C 1510.00 681.33 1510.00 692.67 1510.00 704.00
C 1530.67 704.00 1551.33 704.00 1572.00 704.00
C 1572.00 712.33 1572.00 720.67 1572.00 729.00
C 1561.60 728.55 1549.20 729.60 1539.00 729.00 C 1528.80 728.40 1515.47 730.15 1506.00 729.00 C 1496.53 727.85 1479.73 734.04 1479.00 723.00 C 1478.27 711.96 1479.34 700.09 1479.00 689.00 C 1478.66 677.91 1479.16 667.09 1479.00 656.00 C 1478.84 644.91 1479.08 634.15 1479.00 623.00 C 1478.92 611.85 1479.06 600.20 1479.00 589.00
C 1510.00 589.00 1541.00 589.00 1572.00 589.00
M 1706.00 590.00 
C 1710.02 586.69 1717.57 589.92 1723.00 589.00 C 1728.43 588.08 1736.34 589.69 1742.00 589.00
C 1742.00 600.12 1742.00 610.84 1742.00 622.00 C 1742.00 633.16 1742.01 644.82 1742.00 656.00 C 1741.99 667.18 1742.02 677.79 1742.00 689.00 C 1741.98 700.21 1742.04 711.73 1742.00 723.00 C 1741.96 734.27 1722.13 727.79 1715.00 728.00
C 1710.66 723.66 1715.35 712.43 1714.00 706.00 C 1712.65 699.57 1714.72 690.07 1714.00 683.00 C 1713.28 675.93 1714.58 667.31 1714.00 660.00 C 1713.42 652.69 1715.27 643.53 1713.00 637.00
C 1701.60 667.53 1688.86 697.85 1676.00 728.00
C 1664.10 731.35 1654.59 726.30 1652.23 715.77 C 1649.86 705.24 1645.14 699.45 1642.07 689.93 C 1639.01 680.40 1634.79 673.76 1631.25 664.75 C 1627.70 655.75 1624.12 647.10 1621.00 638.00
C 1618.67 667.43 1620.67 698.82 1620.00 729.00
C 1610.67 729.00 1601.33 729.00 1592.00 729.00
C 1592.01 682.33 1592.00 635.67 1592.00 589.00
C 1604.00 589.00 1616.00 589.00 1628.00 589.00
C 1640.08 621.56 1654.24 654.69 1667.00 687.00
C 1679.83 654.54 1693.03 622.17 1706.00 590.00
M 1788.00 589.00 
C 1797.20 609.23 1808.08 629.05 1819.00 648.00
C 1822.74 638.10 1827.55 630.88 1831.97 620.97 C 1836.40 611.06 1841.84 605.48 1846.26 595.26 C 1850.67 585.03 1870.18 589.96 1881.00 589.00
C 1875.64 603.84 1866.42 614.65 1859.23 629.23 C 1852.04 643.81 1844.84 654.72 1836.75 669.75 C 1828.65 684.77 1835.04 711.42 1833.00 729.00
C 1823.00 729.00 1813.00 729.00 1803.00 729.00
C 1801.57 711.23 1806.57 686.08 1799.23 670.77 C 1791.89 655.46 1784.31 644.64 1776.75 630.25 C 1769.18 615.87 1761.26 603.46 1755.00 589.00
C 1766.00 589.00 1777.00 589.00 1788.00 589.00 Z"/>
</g>
<g fill="#FEB600" fill-opacity="0.98" stroke="None">
<path d="
M 363.00 1.00 
C 367.00 6.40 363.21 20.07 364.00 27.00 C 364.79 33.93 364.28 48.65 364.00 55.00 C 363.72 61.35 366.02 78.78 363.00 80.00
C 297.67 80.00 232.33 80.00 167.00 80.00
C 166.79 73.60 167.28 66.31 167.00 60.00 C 166.72 53.69 167.53 45.98 167.00 40.00 C 166.47 34.02 168.15 25.19 167.00 20.00 C 165.85 14.81 169.99 3.79 166.00 1.00
C 139.90 3.33 111.85 1.33 85.00 2.00
C 84.33 56.50 86.33 112.32 84.00 166.00
C 87.08 170.40 100.25 165.62 106.00 167.00 C 111.75 168.38 121.25 166.40 128.00 167.00 C 134.75 167.60 143.85 166.72 151.00 167.00 C 158.15 167.28 165.66 166.88 173.00 167.00 C 180.34 167.12 188.59 166.94 196.00 167.00 C 203.41 167.06 210.59 166.97 218.00 167.00 C 225.41 167.03 232.53 166.99 240.00 167.00 C 247.47 167.01 255.51 166.99 263.00 167.00 C 270.49 167.01 277.51 167.00 285.00 167.00 C 292.49 167.00 300.52 167.00 308.00 167.00 C 315.48 167.00 322.56 167.00 330.00 167.00 C 337.44 167.00 344.52 167.00 352.00 167.00 C 359.48 167.00 367.50 167.00 375.00 167.00 C 382.50 167.00 389.50 167.00 397.00 167.00 C 404.50 167.00 412.50 167.00 420.00 167.00 C 427.50 167.00 434.50 167.00 442.00 167.00 C 449.50 167.00 457.52 167.00 465.00 167.00 C 472.48 167.00 479.56 167.00 487.00 167.00 C 494.44 167.00 501.52 167.00 509.00 167.00 C 516.48 167.00 524.51 167.00 532.00 167.00 C 539.49 167.00 546.52 167.00 554.00 167.00 C 561.48 167.00 569.53 167.01 577.00 167.00 C 584.47 166.99 591.59 167.02 599.00 167.00 C 606.41 166.98 613.59 167.05 621.00 167.00 C 628.41 166.95 636.66 167.11 644.00 167.00 C 651.34 166.89 658.86 167.26 666.00 167.00 C 673.14 166.74 682.26 167.55 689.00 167.00 C 695.74 166.45 705.27 168.28 711.00 167.00 C 716.73 165.72 728.97 170.33 732.00 166.00
C 729.67 111.57 731.66 55.18 731.00 0.00
L 646.00 0.00
C 646.00 26.67 646.00 53.33 646.00 80.00
C 580.67 80.00 515.33 80.00 450.00 80.00
C 450.00 53.33 450.00 26.67 450.00 0.00
L 449.00 0.00
C 421.74 1.67 391.19 1.67 364.00 0.00
L 363.00 0.00
C 363.00 0.00 363.00 0.50 363.00 1.00 Z"/>
</g>
<g fill="#FEB800" fill-opacity="0.47" stroke="None">
<path d="
M 449.00 0.00 
L 364.00 0.00
C 391.19 1.67 421.74 1.67 449.00 0.00 Z"/>
</g>
<g fill="#000000" fill-opacity="0.00" stroke="None">
<path d="
M 646.00 0.00 
L 450.00 0.00
C 450.00 26.67 450.00 53.33 450.00 80.00
C 515.33 80.00 580.67 80.00 646.00 80.00
C 646.00 53.33 646.00 26.67 646.00 0.00 Z"/>
</g>
<g fill="#FEB400" fill-opacity="0.32" stroke="None">
<path d="
M 732.00 166.00 
C 735.28 161.31 730.52 150.94 732.00 145.00 C 733.48 139.06 731.32 130.49 732.00 124.00 C 732.68 117.51 731.68 109.69 732.00 103.00 C 732.32 96.31 731.86 89.81 732.00 83.00 C 732.14 76.19 731.94 68.89 732.00 62.00 C 732.06 55.11 731.97 47.91 732.00 41.00 C 732.03 34.09 731.98 26.86 732.00 20.00 C 732.02 13.14 731.99 6.81 732.00 0.00
L 731.00 0.00
C 731.66 55.18 729.67 111.57 732.00 166.00 Z"/>
</g>
<g fill="#FFB600" fill-opacity="0.42" stroke="None">
<path d="
M 84.00 166.00 
C 86.33 112.32 84.33 56.50 85.00 2.00
C 111.85 1.33 139.90 3.33 166.00 1.00
C 138.67 1.00 111.33 1.00 84.00 1.00
C 84.01 7.96 83.99 15.06 84.00 22.00 C 84.01 28.94 83.97 36.11 84.00 43.00 C 84.03 49.89 83.94 56.15 84.00 63.00 C 84.06 69.85 83.87 77.18 84.00 84.00 C 84.13 90.82 83.72 98.32 84.00 105.00 C 84.28 111.68 83.35 118.61 84.00 125.00 C 84.65 131.39 82.63 140.13 84.00 146.00 C 85.37 151.87 80.81 161.45 84.00 166.00 Z"/>
</g>
<g fill="#FEB700" fill-opacity="0.33" stroke="None">
<path d="
M 363.00 80.00 
C 366.02 78.78 363.72 61.35 364.00 55.00 C 364.28 48.65 364.79 33.93 364.00 27.00 C 363.21 20.07 367.00 6.40 363.00 1.00
C 363.00 9.71 362.61 19.39 363.00 28.00 C 363.39 36.61 361.89 45.66 363.00 54.00 C 364.11 62.34 360.43 72.15 363.00 80.00 Z"/>
</g>
<g fill="#FFB400" fill-opacity="0.07" stroke="None">
<path d="
M 6.00 204.00 
C 16.71 204.00 27.28 204.00 38.00 204.00 C 48.72 204.00 59.22 204.00 70.00 204.00 C 80.78 204.00 92.21 204.00 103.00 204.00 C 113.79 204.00 124.24 204.00 135.00 204.00 C 145.76 204.00 156.21 204.00 167.00 204.00 C 177.79 204.00 189.21 204.00 200.00 204.00 C 210.79 204.00 221.24 204.00 232.00 204.00 C 242.76 204.00 253.20 204.00 264.00 204.00 C 274.80 204.00 286.20 204.00 297.00 204.00 C 307.80 204.00 318.23 204.00 329.00 204.00 C 339.77 204.00 350.19 204.00 361.00 204.00 C 371.81 204.00 383.18 204.00 394.00 204.00 C 404.82 204.00 415.18 204.00 426.00 204.00 C 436.82 204.00 448.19 204.00 459.00 204.00 C 469.81 204.00 480.23 204.00 491.00 204.00 C 501.77 204.00 512.20 204.00 523.00 204.00 C 533.80 204.00 545.21 203.99 556.00 204.00 C 566.79 204.01 577.25 203.98 588.00 204.00 C 598.75 204.02 609.23 203.97 620.00 204.00 C 630.77 204.03 642.26 203.93 653.00 204.00 C 663.74 204.07 674.35 203.83 685.00 204.00 C 695.65 204.17 706.46 203.63 717.00 204.00 C 727.54 204.37 739.76 203.20 750.00 204.00 C 760.24 204.80 772.49 202.17 782.00 204.00 C 791.51 205.83 806.69 199.60 814.00 205.00
C 814.32 205.24 815.00 205.00 815.00 205.00
C 814.76 200.76 799.20 203.61 794.00 203.00 C 788.80 202.39 777.42 203.29 771.00 203.00 C 764.58 202.71 756.04 203.12 749.00 203.00 C 741.96 202.88 733.29 203.06 726.00 203.00 C 718.71 202.94 711.42 203.03 704.00 203.00 C 696.58 202.97 688.47 203.01 681.00 203.00 C 673.53 202.99 666.50 203.01 659.00 203.00 C 651.50 202.99 643.51 203.00 636.00 203.00 C 628.49 203.00 621.53 203.00 614.00 203.00 C 606.47 203.00 598.57 203.00 591.00 203.00 C 583.43 203.00 575.54 203.00 568.00 203.00 C 560.46 203.00 553.52 203.00 546.00 203.00 C 538.48 203.00 530.52 203.00 523.00 203.00 C 515.48 203.00 508.51 203.00 501.00 203.00 C 493.49 203.00 485.51 203.00 478.00 203.00 C 470.49 203.00 463.52 203.00 456.00 203.00 C 448.48 203.00 440.52 203.00 433.00 203.00 C 425.48 203.00 418.54 203.00 411.00 203.00 C 403.46 203.00 395.57 203.00 388.00 203.00 C 380.43 203.00 372.54 203.00 365.00 203.00 C 357.46 203.00 350.52 203.00 343.00 203.00 C 335.48 203.00 327.52 203.00 320.00 203.00 C 312.48 203.00 305.51 203.00 298.00 203.00 C 290.49 203.00 282.51 203.00 275.00 203.00 C 267.49 203.00 260.52 203.00 253.00 203.00 C 245.48 203.00 237.52 203.00 230.00 203.00 C 222.48 203.00 215.54 203.00 208.00 203.00 C 200.46 203.00 192.56 203.00 185.00 203.00 C 177.44 203.00 169.53 202.99 162.00 203.00 C 154.47 203.01 147.49 202.98 140.00 203.00 C 132.51 203.02 124.45 202.95 117.00 203.00 C 109.55 203.05 102.36 202.88 95.00 203.00 C 87.64 203.12 79.18 202.75 72.00 203.00 C 64.82 203.25 56.73 202.41 50.00 203.00 C 43.27 203.59 32.86 201.75 27.00 203.00 C 21.14 204.25 9.05 199.64 6.00 204.00 Z"/>
</g>
<g fill="#FFB600" fill-opacity="0.77" stroke="None">
<path d="
M 7.00 758.00 
C 7.00 574.81 7.00 389.14 7.00 205.00
C 276.00 205.00 545.00 205.00 814.00 205.00
C 806.69 199.60 791.51 205.83 782.00 204.00 C 772.49 202.17 760.24 204.80 750.00 204.00 C 739.76 203.20 727.54 204.37 717.00 204.00 C 706.46 203.63 695.65 204.17 685.00 204.00 C 674.35 203.83 663.74 204.07 653.00 204.00 C 642.26 203.93 630.77 204.03 620.00 204.00 C 609.23 203.97 598.75 204.02 588.00 204.00 C 577.25 203.98 566.79 204.01 556.00 204.00 C 545.21 203.99 533.80 204.00 523.00 204.00 C 512.20 204.00 501.77 204.00 491.00 204.00 C 480.23 204.00 469.81 204.00 459.00 204.00 C 448.19 204.00 436.82 204.00 426.00 204.00 C 415.18 204.00 404.82 204.00 394.00 204.00 C 383.18 204.00 371.81 204.00 361.00 204.00 C 350.19 204.00 339.77 204.00 329.00 204.00 C 318.23 204.00 307.80 204.00 297.00 204.00 C 286.20 204.00 274.80 204.00 264.00 204.00 C 253.20 204.00 242.76 204.00 232.00 204.00 C 221.24 204.00 210.79 204.00 200.00 204.00 C 189.21 204.00 177.79 204.00 167.00 204.00 C 156.21 204.00 145.76 204.00 135.00 204.00 C 124.24 204.00 113.79 204.00 103.00 204.00 C 92.21 204.00 80.78 204.00 70.00 204.00 C 59.22 204.00 48.72 204.00 38.00 204.00 C 27.28 204.00 16.71 204.00 6.00 204.00
C 2.60 208.85 7.60 219.92 6.00 226.00 C 4.40 232.08 6.69 240.31 6.00 247.00 C 5.31 253.69 6.33 262.08 6.00 269.00 C 5.67 275.92 6.15 282.99 6.00 290.00 C 5.85 297.01 6.06 303.91 6.00 311.00 C 5.94 318.09 6.03 325.89 6.00 333.00 C 5.97 340.11 6.01 346.91 6.00 354.00 C 5.99 361.09 6.01 367.87 6.00 375.00 C 5.99 382.13 6.00 389.87 6.00 397.00 C 6.00 404.13 6.00 410.90 6.00 418.00 C 6.00 425.10 6.00 431.87 6.00 439.00 C 6.00 446.13 6.00 453.87 6.00 461.00 C 6.00 468.13 6.00 474.90 6.00 482.00 C 6.00 489.10 6.00 495.87 6.00 503.00 C 6.00 510.13 6.00 517.87 6.00 525.00 C 6.00 532.13 6.00 538.90 6.00 546.00 C 6.00 553.10 6.00 559.87 6.00 567.00 C 6.00 574.13 6.00 581.87 6.00 589.00 C 6.00 596.13 5.99 602.91 6.00 610.00 C 6.01 617.09 5.99 623.88 6.00 631.00 C 6.01 638.12 5.97 645.89 6.00 653.00 C 6.03 660.11 5.93 666.95 6.00 674.00 C 6.07 681.05 5.84 687.98 6.00 695.00 C 6.16 702.02 5.67 710.10 6.00 717.00 C 6.33 723.90 5.23 731.45 6.00 738.00 C 6.77 744.55 3.81 752.69 7.00 758.00 Z"/>
</g>
<g fill="#FFB704" fill-opacity="0.99" stroke="None">
<path d="
M 7.00 758.00 
C 12.08 766.46 28.09 768.90 35.78 775.22 C 43.46 781.55 55.31 785.72 64.30 791.70 C 73.30 797.67 84.34 802.41 93.75 808.25 C 103.17 814.08 112.85 819.30 122.30 824.70 C 131.76 830.10 141.30 835.59 150.78 841.22 C 160.25 846.86 170.65 852.25 180.25 857.75 C 189.86 863.24 199.17 868.78 208.77 874.23 C 218.37 879.68 227.76 885.28 237.30 890.70 C 246.85 896.11 256.94 901.75 266.75 907.25 C 276.57 912.74 285.18 918.61 294.92 924.08 C 304.67 929.54 314.19 934.47 323.77 940.23 C 333.35 945.99 343.35 951.19 352.92 957.08 C 362.50 962.96 372.34 967.43 381.77 973.23 C 391.20 979.03 401.29 983.63 410.00 990.00
L 414.00 990.00
C 546.02 913.41 680.50 834.96 815.00 759.00
C 815.00 673.33 815.01 587.67 815.00 502.00
C 680.06 575.23 545.58 648.73 410.00 721.00
C 409.42 707.33 410.77 693.67 410.00 680.00 C 409.23 666.33 411.47 652.67 410.00 639.00 C 408.53 625.33 423.55 626.06 431.31 619.30 C 439.06 612.55 453.36 614.30 454.00 602.00 C 454.64 589.70 453.71 574.03 454.00 561.00 C 454.29 547.97 453.87 533.35 454.00 520.00 C 454.13 506.65 453.94 492.45 454.00 479.00 C 454.06 465.55 453.97 452.51 454.00 439.00 C 454.03 425.49 453.99 411.58 454.00 398.00 C 454.01 384.42 453.99 370.58 454.00 357.00 C 454.01 343.42 454.00 329.52 454.00 316.00 C 454.00 302.48 454.00 289.48 454.00 276.00
C 486.00 276.00 518.00 276.00 550.00 276.00
C 551.46 294.37 551.00 313.28 551.00 332.00
C 551.95 338.62 552.73 345.50 553.00 353.00 C 553.27 360.50 551.71 369.71 551.00 375.00
C 554.11 414.16 553.00 454.28 553.00 494.00
C 553.12 493.44 554.29 491.38 555.00 491.00
C 555.00 494.00 555.00 497.00 555.00 500.00
C 555.00 506.05 554.51 512.70 554.00 518.00
C 554.00 528.00 554.00 538.00 554.00 548.00
C 564.07 544.57 574.25 538.10 583.32 532.32 C 592.39 526.55 603.37 523.57 611.75 516.75 C 620.14 509.94 635.59 510.15 636.00 497.00 C 636.40 483.85 635.82 467.07 636.00 453.00 C 636.18 438.93 635.92 422.44 636.00 408.00 C 636.08 393.56 635.96 378.56 636.00 364.00 C 636.04 349.44 635.98 334.61 636.00 320.00 C 636.02 305.39 635.98 290.63 636.00 276.00
C 669.33 276.00 702.67 276.00 736.00 276.00
C 736.00 331.67 736.00 387.33 736.00 443.00
C 748.11 436.07 763.16 430.25 774.78 421.78 C 786.39 413.31 803.68 410.59 813.00 400.00
C 818.08 391.71 812.42 378.89 814.00 369.00 C 815.58 359.11 813.25 346.46 814.00 336.00 C 814.75 325.54 813.58 313.67 814.00 303.00 C 814.42 292.33 813.66 281.79 814.00 271.00 C 814.34 260.21 813.50 248.86 814.00 238.00 C 814.50 227.14 813.02 215.84 814.00 205.00
C 545.00 205.00 276.00 205.00 7.00 205.00
C 7.00 389.14 7.00 574.81 7.00 758.00
M 188.00 274.00 
C 188.00 350.00 188.00 426.00 188.00 502.00
C 154.16 483.47 121.15 463.74 87.00 446.00
C 87.00 388.67 87.00 331.33 87.00 274.00
C 120.67 274.00 154.33 274.00 188.00 274.00
M 370.00 274.00 
C 370.40 385.65 369.04 497.74 371.00 609.00
C 359.78 603.31 352.15 597.05 340.77 591.23 C 329.39 585.41 320.91 579.49 309.30 573.70 C 297.70 567.90 292.01 562.01 278.77 556.23 C 265.53 550.45 268.79 532.00 269.00 517.00 C 269.21 502.00 268.91 484.66 269.00 469.00 C 269.09 453.34 268.96 435.95 269.00 420.00 C 269.04 404.05 268.98 388.11 269.00 372.00 C 269.02 355.89 268.99 339.22 269.00 323.00 C 269.01 306.78 268.99 290.24 269.00 274.00
C 302.67 274.00 336.33 274.00 370.00 274.00
M 409.00 724.00 
C 409.00 754.66 409.00 785.34 409.00 816.00
C 518.54 756.17 626.05 694.31 735.00 634.00
C 735.51 650.50 734.32 670.89 735.00 687.00 C 735.68 703.11 717.01 704.44 706.31 712.31 C 695.60 720.17 682.98 724.69 671.78 731.78 C 660.58 738.86 648.77 744.88 637.32 751.32 C 625.87 757.76 614.77 764.98 603.25 771.25 C 591.73 777.53 580.22 784.35 568.77 790.77 C 557.32 797.19 546.42 803.41 534.92 809.92 C 523.42 816.43 512.25 822.77 500.75 829.75 C 489.25 836.74 477.36 841.27 465.92 848.92 C 454.48 856.57 442.53 860.74 431.31 868.31 C 420.08 875.87 408.40 883.81 396.77 874.23 C 385.14 864.65 374.47 862.11 362.77 854.23 C 351.07 846.35 339.47 841.79 328.26 834.74 C 317.04 827.70 305.69 822.39 294.31 815.70 C 282.92 809.00 271.75 802.23 260.25 795.75 C 248.75 789.27 236.99 782.71 225.90 776.10 C 214.81 769.48 202.48 763.59 191.30 756.70 C 180.13 749.80 168.10 743.96 156.78 737.22 C 145.45 730.49 133.81 723.87 122.32 717.68 C 110.83 711.48 99.77 703.58 88.00 698.00
C 88.00 646.00 88.00 594.00 88.00 542.00
C 195.69 602.09 301.61 664.25 409.00 724.00 Z"/>
</g>
<g fill="#FEB700" fill-opacity="0.57" stroke="None">
<path d="
M 813.00 400.00 
C 818.69 393.53 813.76 378.88 815.00 369.00 C 816.24 359.12 814.47 346.48 815.00 336.00 C 815.53 325.52 814.83 313.74 815.00 303.00 C 815.17 292.26 815.08 280.82 815.00 270.00 C 814.93 259.18 815.37 247.78 815.00 237.00 C 814.63 226.22 815.95 215.69 815.00 205.00
C 815.00 205.00 814.32 205.24 814.00 205.00
C 813.02 215.84 814.50 227.14 814.00 238.00 C 813.50 248.86 814.34 260.21 814.00 271.00 C 813.66 281.79 814.42 292.33 814.00 303.00 C 813.58 313.67 814.75 325.54 814.00 336.00 C 813.25 346.46 815.58 359.11 814.00 369.00 C 812.42 378.89 818.08 391.71 813.00 400.00 Z"/>
</g>
<g fill="#252525" fill-opacity="0.98" stroke="None">
<path d="
M 998.00 259.00 
C 980.67 259.00 963.33 259.00 946.00 259.00
C 946.00 340.00 946.00 421.00 946.00 502.00
C 963.33 502.00 980.67 502.00 998.00 502.00
C 998.00 421.00 998.00 340.00 998.00 259.00 Z"/>
</g>
<g fill="#252525" fill-opacity="0.98" stroke="None">
<path d="
M 1098.00 259.00 
C 1077.67 259.00 1057.33 259.00 1037.00 259.00
C 1037.00 340.00 1037.00 421.00 1037.00 502.00
C 1052.66 502.00 1068.33 502.00 1084.00 502.00
C 1084.67 448.15 1082.66 393.10 1085.00 340.00
C 1105.89 393.42 1128.81 446.59 1150.00 500.00
C 1161.33 500.00 1172.67 500.00 1184.00 500.00
C 1204.18 445.47 1228.78 392.50 1249.00 338.00
C 1251.33 391.68 1249.33 447.50 1250.00 502.00
C 1265.34 502.00 1280.67 502.00 1296.00 502.00
C 1296.00 421.00 1296.00 340.00 1296.00 259.00
C 1276.00 259.00 1256.00 259.00 1236.00 259.00
C 1212.86 316.06 1190.42 373.19 1167.00 430.00
C 1142.86 373.67 1120.39 316.33 1098.00 259.00 Z"/>
</g>
<g fill="#252525" fill-opacity="0.98" stroke="None">
<path d="
M 1520.00 350.00 
C 1519.75 345.78 1519.68 340.17 1520.00 336.00
C 1517.00 303.02 1499.69 269.46 1463.02 261.98 C 1426.36 254.49 1374.96 261.40 1336.00 259.00
C 1336.00 340.00 1336.00 421.00 1336.00 502.00
C 1353.33 502.00 1370.67 502.00 1388.00 502.00
C 1388.00 476.67 1388.01 451.33 1388.00 426.00
C 1418.40 426.32 1454.39 428.45 1480.30 414.30 C 1506.22 400.16 1516.35 377.40 1520.00 350.00
M 1388.00 385.00 
C 1388.00 356.67 1388.00 328.33 1388.00 300.00
C 1409.37 300.84 1441.61 295.09 1456.75 312.25 C 1471.90 329.41 1471.77 355.56 1456.75 372.75 C 1441.73 389.94 1409.22 384.05 1388.00 385.00 Z"/>
</g>
<g fill="#252525" fill-opacity="0.65" stroke="None">
<path d="
M 1711.00 502.00 
C 1658.57 499.67 1604.18 501.67 1551.00 501.00
C 1551.00 420.67 1551.00 340.33 1551.00 260.00
C 1604.17 259.33 1658.65 261.33 1711.00 259.00
C 1657.00 259.00 1603.00 259.00 1549.00 259.00
C 1549.00 340.00 1549.00 421.00 1549.00 502.00
C 1555.86 501.99 1563.19 502.01 1570.00 502.00 C 1576.81 501.99 1583.27 502.03 1590.00 502.00 C 1596.73 501.97 1603.30 502.06 1610.00 502.00 C 1616.70 501.94 1623.31 502.13 1630.00 502.00 C 1636.69 501.87 1644.42 502.27 1651.00 502.00 C 1657.58 501.73 1664.73 502.63 1671.00 502.00 C 1677.27 501.37 1685.30 503.42 1691.00 502.00 C 1696.70 500.58 1706.51 505.14 1711.00 502.00 Z"/>
</g>
<g fill="#252525" fill-opacity="0.98" stroke="None">
<path d="
M 1711.00 502.00 
C 1715.08 490.80 1709.00 484.75 1712.00 472.00 C 1715.00 459.25 1705.07 457.59 1694.00 459.00 C 1682.93 460.41 1673.63 458.34 1663.00 459.00 C 1652.37 459.66 1642.40 458.65 1632.00 459.00 C 1621.60 459.35 1612.30 458.73 1602.00 459.00
C 1602.00 439.00 1602.00 419.00 1602.00 399.00
C 1636.67 399.00 1671.33 399.00 1706.00 399.00
C 1703.37 388.86 1709.52 372.53 1705.99 363.01 C 1702.47 353.49 1684.00 360.73 1674.00 359.00 C 1664.00 357.27 1648.96 359.90 1638.00 359.00 C 1627.04 358.10 1613.22 359.68 1602.00 359.00
C 1602.00 339.67 1602.00 320.33 1602.00 301.00
C 1638.67 301.00 1675.33 301.00 1712.00 301.00
C 1710.97 295.12 1713.38 284.40 1712.00 279.00 C 1710.62 273.60 1715.22 261.95 1711.00 259.00
C 1658.65 261.33 1604.17 259.33 1551.00 260.00
C 1551.00 340.33 1551.00 420.67 1551.00 501.00
C 1604.18 501.67 1658.57 499.67 1711.00 502.00 Z"/>
</g>
<g fill="#252525" fill-opacity="0.98" stroke="None">
<path d="
M 1893.00 406.00 
C 1924.99 393.66 1942.06 355.79 1935.98 323.02 C 1929.89 290.26 1909.40 265.06 1873.02 260.98 C 1836.65 256.89 1786.29 259.93 1748.00 259.00
C 1748.00 340.00 1748.00 421.00 1748.00 502.00
C 1765.33 502.00 1782.67 502.00 1800.00 502.00
C 1800.00 472.67 1800.00 443.33 1800.00 414.00
C 1810.51 414.21 1824.87 413.72 1835.00 414.00 C 1845.12 414.28 1844.93 426.34 1849.70 433.31 C 1854.46 440.27 1857.56 449.06 1861.68 456.32 C 1865.79 463.59 1868.88 471.52 1873.08 478.92 C 1877.28 486.31 1881.06 494.10 1884.00 502.00
C 1904.00 502.00 1924.00 502.00 1944.00 502.00
C 1927.06 470.11 1909.90 438.01 1893.00 406.00
M 1800.00 376.00 
C 1800.00 350.33 1800.00 324.67 1800.00 299.00
C 1821.72 300.49 1854.53 293.61 1871.25 308.75 C 1887.96 323.90 1888.20 350.52 1871.92 365.92 C 1855.63 381.32 1822.02 374.45 1800.00 376.00 Z"/>
</g>
<g fill="#242424" fill-opacity="0.98" stroke="None">
<path d="
M 2021.00 259.00 
C 2003.66 259.00 1986.34 259.00 1969.00 259.00
C 1969.00 340.00 1969.00 421.00 1969.00 502.00
C 1986.33 502.00 2003.67 502.00 2021.00 502.00
C 2021.00 421.00 2021.00 340.00 2021.00 259.00 Z"/>
</g>
<g fill="#252525" fill-opacity="0.98" stroke="None">
<path d="
M 2191.00 259.00 
C 2174.47 257.19 2158.60 261.42 2142.00 259.00 C 2125.40 256.58 2124.98 273.86 2119.99 285.99 C 2115.01 298.12 2112.54 310.71 2107.78 322.78 C 2103.02 334.84 2099.12 346.77 2094.93 358.93 C 2090.73 371.09 2086.36 383.17 2082.31 395.31 C 2078.25 407.44 2073.89 419.70 2069.78 431.78 C 2065.67 443.85 2061.49 454.91 2057.32 466.32 C 2053.16 477.74 2049.62 490.60 2045.00 502.00
C 2063.00 502.00 2081.00 502.00 2099.00 502.00
C 2104.17 482.04 2112.07 462.98 2117.00 443.00
C 2125.85 443.09 2135.20 442.89 2144.00 443.00 C 2152.80 443.11 2162.38 442.78 2171.00 443.00 C 2179.62 443.22 2189.81 442.53 2198.00 443.00 C 2206.19 443.48 2203.74 454.97 2207.07 460.93 C 2210.40 466.88 2211.18 474.63 2214.01 480.99 C 2216.84 487.36 2217.34 495.48 2220.00 502.00
C 2238.67 502.00 2257.33 502.00 2276.00 502.00
C 2247.20 421.01 2219.44 340.03 2191.00 259.00
M 2160.00 306.00 
C 2169.13 338.84 2180.77 371.10 2190.00 404.00
C 2169.67 404.00 2149.33 404.00 2129.00 404.00
C 2138.97 371.30 2148.98 338.02 2160.00 306.00 Z"/>
</g>
<g fill="#252525" fill-opacity="0.99" stroke="None">
<path d="
M 2351.00 259.00 
C 2334.00 259.00 2317.00 259.00 2300.00 259.00
C 2300.00 340.00 2300.00 421.00 2300.00 502.00
C 2352.66 502.00 2405.34 502.00 2458.00 502.00
C 2459.97 490.15 2455.38 484.47 2458.00 472.00 C 2460.62 459.53 2451.98 457.60 2441.00 459.00 C 2430.02 460.40 2421.46 458.35 2411.00 459.00 C 2400.54 459.65 2391.24 458.66 2381.00 459.00 C 2370.76 459.34 2361.18 458.74 2351.00 459.00
C 2351.00 392.34 2351.00 325.66 2351.00 259.00 Z"/>
</g>
<g fill="#000000" fill-opacity="0.00" stroke="None">
<path d="
M 188.00 274.00 
C 154.33 274.00 120.67 274.00 87.00 274.00
C 87.00 331.33 87.00 388.67 87.00 446.00
C 121.15 463.74 154.16 483.47 188.00 502.00
C 188.00 426.00 188.00 350.00 188.00 274.00 Z"/>
</g>
<g fill="#000000" fill-opacity="0.00" stroke="None">
<path d="
M 370.00 274.00 
C 336.33 274.00 302.67 274.00 269.00 274.00
C 268.99 290.24 269.01 306.78 269.00 323.00 C 268.99 339.22 269.02 355.89 269.00 372.00 C 268.98 388.11 269.04 404.05 269.00 420.00 C 268.96 435.95 269.09 453.34 269.00 469.00 C 268.91 484.66 269.21 502.00 269.00 517.00 C 268.79 532.00 265.53 550.45 278.77 556.23 C 292.01 562.01 297.70 567.90 309.30 573.70 C 320.91 579.49 329.39 585.41 340.77 591.23 C 352.15 597.05 359.78 603.31 371.00 609.00
C 369.04 497.74 370.40 385.65 370.00 274.00 Z"/>
</g>
<g fill="#000000" fill-opacity="0.00" stroke="None">
<path d="
M 1800.00 376.00 
C 1822.02 374.45 1855.63 381.32 1871.92 365.92 C 1888.20 350.52 1887.96 323.90 1871.25 308.75 C 1854.53 293.61 1821.72 300.49 1800.00 299.00
C 1800.00 324.67 1800.00 350.33 1800.00 376.00 Z"/>
</g>
<g fill="#000000" fill-opacity="0.00" stroke="None">
<path d="
M 1388.00 385.00 
C 1409.22 384.05 1441.73 389.94 1456.75 372.75 C 1471.77 355.56 1471.90 329.41 1456.75 312.25 C 1441.61 295.09 1409.37 300.84 1388.00 300.00
C 1388.00 328.33 1388.00 356.67 1388.00 385.00 Z"/>
</g>
<g fill="#000000" fill-opacity="0.00" stroke="None">
<path d="
M 2160.00 306.00 
C 2148.98 338.02 2138.97 371.30 2129.00 404.00
C 2149.33 404.00 2169.67 404.00 2190.00 404.00
C 2180.77 371.10 2169.13 338.84 2160.00 306.00 Z"/>
</g>
<g fill="#FFB700" fill-opacity="0.39" stroke="None">
<path d="
M 551.00 375.00 
C 551.71 369.71 553.27 360.50 553.00 353.00 C 552.73 345.50 551.95 338.62 551.00 332.00
C 551.00 346.18 549.88 360.87 551.00 375.00 Z"/>
</g>
<g fill="#262626" fill-opacity="0.43" stroke="None">
<path d="
M 1520.00 350.00 
C 1520.67 344.97 1520.59 340.99 1520.00 336.00
C 1519.68 340.17 1519.75 345.78 1520.00 350.00 Z"/>
</g>
<g fill="#FFA100" fill-opacity="0.45" stroke="None">
<path d="
M 553.00 494.00 
C 553.00 496.00 553.00 498.00 553.00 500.00
C 553.02 500.10 554.00 500.00 554.00 500.00
C 554.50 500.00 555.00 500.00 555.00 500.00
C 555.00 497.00 555.00 494.00 555.00 491.00
C 554.29 491.38 553.12 493.44 553.00 494.00 Z"/>
</g>
<g fill="#FEFF00" fill-opacity="0.00" stroke="None">
<path d="
M 554.00 512.00 
C 554.00 508.05 554.35 503.93 554.00 500.00
C 554.00 500.00 553.02 500.10 553.00 500.00
C 553.00 504.08 553.67 508.60 554.00 512.00 Z"/>
</g>
<g fill="#FEB700" fill-opacity="0.59" stroke="None">
<path d="
M 554.00 512.00 
C 554.00 514.00 554.00 516.00 554.00 518.00
C 554.51 512.70 555.00 506.05 555.00 500.00
C 555.00 500.00 554.50 500.00 554.00 500.00
C 554.35 503.93 554.00 508.05 554.00 512.00 Z"/>
</g>
<g fill="#000000" fill-opacity="0.00" stroke="None">
<path d="
M 409.00 724.00 
C 301.61 664.25 195.69 602.09 88.00 542.00
C 88.00 594.00 88.00 646.00 88.00 698.00
C 99.77 703.58 110.83 711.48 122.32 717.68 C 133.81 723.87 145.45 730.49 156.78 737.22 C 168.10 743.96 180.13 749.80 191.30 756.70 C 202.48 763.59 214.81 769.48 225.90 776.10 C 236.99 782.71 248.75 789.27 260.25 795.75 C 271.75 802.23 282.92 809.00 294.31 815.70 C 305.69 822.39 317.04 827.70 328.26 834.74 C 339.47 841.79 351.07 846.35 362.77 854.23 C 374.47 862.11 385.14 864.65 396.77 874.23 C 408.40 883.81 420.08 875.87 431.31 868.31 C 442.53 860.74 454.48 856.57 465.92 848.92 C 477.36 841.27 489.25 836.74 500.75 829.75 C 512.25 822.77 523.42 816.43 534.92 809.92 C 546.42 803.41 557.32 797.19 568.77 790.77 C 580.22 784.35 591.73 777.53 603.25 771.25 C 614.77 764.98 625.87 757.76 637.32 751.32 C 648.77 744.88 660.58 738.86 671.78 731.78 C 682.98 724.69 695.60 720.17 706.31 712.31 C 717.01 704.44 735.68 703.11 735.00 687.00 C 734.32 670.89 735.51 650.50 735.00 634.00
C 626.05 694.31 518.54 756.17 409.00 816.00
C 409.00 785.34 409.00 754.66 409.00 724.00 Z"/>
</g>
<g fill="#252525" fill-opacity="0.95" stroke="None">
<path d="
M 1193.00 639.00 
C 1190.33 590.05 1123.63 570.92 1089.10 599.10 C 1054.57 627.27 1054.48 690.87 1089.25 718.75 C 1124.02 746.62 1190.66 727.52 1193.00 680.00
C 1183.00 680.00 1173.00 680.00 1163.00 680.00
C 1159.87 707.23 1119.20 715.04 1104.92 694.08 C 1090.64 673.13 1090.54 640.12 1107.75 620.75 C 1124.97 601.38 1160.84 614.11 1163.00 640.00
C 1172.92 639.37 1183.50 641.29 1193.00 639.00 Z"/>
</g>
<g fill="#252525" fill-opacity="0.95" stroke="None">
<path d="
M 1014.00 589.00 
C 1002.00 589.00 990.00 589.00 978.00 589.00
C 962.25 635.80 944.97 681.93 930.00 729.00
C 940.33 729.00 950.67 729.00 961.00 729.00
C 963.60 717.41 968.29 706.51 971.00 695.00
C 981.29 694.06 991.72 696.25 1002.00 695.00 C 1012.28 693.75 1021.58 694.74 1022.67 705.33 C 1023.76 715.91 1028.48 719.16 1030.00 729.00
C 1040.67 729.00 1051.33 729.00 1062.00 729.00
C 1046.74 682.15 1029.03 635.94 1014.00 589.00
M 996.00 616.00 
C 1000.19 635.03 1006.75 653.54 1013.00 672.00
C 1001.33 672.00 989.67 672.00 978.00 672.00
C 984.17 653.49 989.38 634.05 996.00 616.00 Z"/>
</g>
<g fill="#252525" fill-opacity="0.95" stroke="None">
<path d="
M 1280.00 589.00 
C 1270.70 590.35 1255.74 587.20 1247.01 589.01 C 1238.28 590.82 1240.33 603.57 1236.33 610.33 C 1232.33 617.09 1231.70 626.97 1228.31 634.31 C 1224.91 641.64 1223.00 650.26 1219.93 657.93 C 1216.86 665.59 1214.80 673.99 1211.78 681.78 C 1208.76 689.56 1206.38 697.86 1203.77 705.77 C 1201.17 713.69 1197.18 720.89 1195.00 729.00
C 1205.66 729.00 1216.34 729.00 1227.00 729.00
C 1229.44 717.38 1234.17 706.48 1237.00 695.00
C 1253.00 695.00 1269.00 695.00 1285.00 695.00
C 1289.22 704.68 1289.90 715.08 1294.22 724.78 C 1298.55 734.47 1318.88 726.29 1328.00 729.00
C 1312.22 681.99 1294.95 636.34 1280.00 589.00
M 1279.00 672.00 
C 1267.33 672.00 1255.67 672.00 1244.00 672.00
C 1248.91 654.25 1255.55 636.97 1260.00 619.00
C 1269.37 633.92 1270.96 655.15 1279.00 672.00 Z"/>
</g>
<g fill="#252525" fill-opacity="0.96" stroke="None">
<path d="
M 1341.00 729.00 
C 1368.81 727.84 1405.15 733.51 1429.26 721.26 C 1453.36 709.01 1461.70 684.48 1462.00 659.00 C 1462.30 633.52 1453.73 607.66 1429.08 595.92 C 1404.42 584.19 1368.92 590.59 1341.00 589.00
C 1340.99 635.67 1341.01 682.33 1341.00 729.00
M 1371.00 704.00 
C 1371.00 674.00 1371.00 644.00 1371.00 614.00
C 1405.16 607.06 1431.17 625.01 1431.00 659.00 C 1430.83 692.99 1404.53 710.43 1371.00 704.00 Z"/>
</g>
<g fill="#252525" fill-opacity="0.95" stroke="None">
<path d="
M 1572.00 589.00 
C 1541.00 589.00 1510.00 589.00 1479.00 589.00
C 1479.06 600.20 1478.92 611.85 1479.00 623.00 C 1479.08 634.15 1478.84 644.91 1479.00 656.00 C 1479.16 667.09 1478.66 677.91 1479.00 689.00 C 1479.34 700.09 1478.27 711.96 1479.00 723.00 C 1479.73 734.04 1496.53 727.85 1506.00 729.00 C 1515.47 730.15 1528.80 728.40 1539.00 729.00 C 1549.20 729.60 1561.60 728.55 1572.00 729.00
C 1572.00 720.67 1572.00 712.33 1572.00 704.00
C 1551.33 704.00 1530.67 704.00 1510.00 704.00
C 1510.00 692.67 1510.00 681.33 1510.00 670.00
C 1529.67 670.00 1549.33 670.00 1569.00 670.00
C 1569.00 662.00 1569.00 654.00 1569.00 646.00
C 1549.33 646.00 1529.67 646.00 1510.00 646.00
C 1510.00 635.33 1510.00 624.67 1510.00 614.00
C 1530.67 614.00 1551.33 614.00 1572.00 614.00
C 1572.00 605.67 1572.00 597.33 1572.00 589.00 Z"/>
</g>
<g fill="#252525" fill-opacity="0.95" stroke="None">
<path d="
M 1715.00 728.00 
C 1717.78 729.94 1723.47 727.06 1727.00 728.00 C 1730.53 728.94 1736.27 727.29 1740.00 728.00
C 1740.00 682.00 1740.00 636.00 1740.00 590.00
C 1728.67 590.00 1717.33 590.00 1706.00 590.00
C 1693.03 622.17 1679.83 654.54 1667.00 687.00
C 1654.24 654.69 1640.08 621.56 1628.00 589.00
C 1616.00 589.00 1604.00 589.00 1592.00 589.00
C 1592.00 635.67 1592.01 682.33 1592.00 729.00
C 1601.33 729.00 1610.67 729.00 1620.00 729.00
C 1620.67 698.82 1618.67 667.43 1621.00 638.00
C 1624.12 647.10 1627.70 655.75 1631.25 664.75 C 1634.79 673.76 1639.01 680.40 1642.07 689.93 C 1645.14 699.45 1649.86 705.24 1652.23 715.77 C 1654.59 726.30 1664.10 731.35 1676.00 728.00
C 1688.86 697.85 1701.60 667.53 1713.00 637.00
C 1715.27 643.53 1713.42 652.69 1714.00 660.00 C 1714.58 667.31 1713.28 675.93 1714.00 683.00 C 1714.72 690.07 1712.65 699.57 1714.00 706.00 C 1715.35 712.43 1710.66 723.66 1715.00 728.00 Z"/>
</g>
<g fill="#272727" fill-opacity="0.39" stroke="None">
<path d="
M 1706.00 590.00 
C 1717.33 590.00 1728.67 590.00 1740.00 590.00
C 1740.00 636.00 1740.00 682.00 1740.00 728.00
C 1736.27 727.29 1730.53 728.94 1727.00 728.00 C 1723.47 727.06 1717.78 729.94 1715.00 728.00
C 1722.13 727.79 1741.96 734.27 1742.00 723.00 C 1742.04 711.73 1741.98 700.21 1742.00 689.00 C 1742.02 677.79 1741.99 667.18 1742.00 656.00 C 1742.01 644.82 1742.00 633.16 1742.00 622.00 C 1742.00 610.84 1742.00 600.12 1742.00 589.00
C 1736.34 589.69 1728.43 588.08 1723.00 589.00 C 1717.57 589.92 1710.02 586.69 1706.00 590.00 Z"/>
</g>
<g fill="#252525" fill-opacity="0.96" stroke="None">
<path d="
M 1788.00 589.00 
C 1777.00 589.00 1766.00 589.00 1755.00 589.00
C 1761.26 603.46 1769.18 615.87 1776.75 630.25 C 1784.31 644.64 1791.89 655.46 1799.23 670.77 C 1806.57 686.08 1801.57 711.23 1803.00 729.00
C 1813.00 729.00 1823.00 729.00 1833.00 729.00
C 1835.04 711.42 1828.65 684.77 1836.75 669.75 C 1844.84 654.72 1852.04 643.81 1859.23 629.23 C 1866.42 614.65 1875.64 603.84 1881.00 589.00
C 1870.18 589.96 1850.67 585.03 1846.26 595.26 C 1841.84 605.48 1836.40 611.06 1831.97 620.97 C 1827.55 630.88 1822.74 638.10 1819.00 648.00
C 1808.08 629.05 1797.20 609.23 1788.00 589.00 Z"/>
</g>
<g fill="#000000" fill-opacity="0.00" stroke="None">
<path d="
M 1371.00 704.00 
C 1404.53 710.43 1430.83 692.99 1431.00 659.00 C 1431.17 625.01 1405.16 607.06 1371.00 614.00
C 1371.00 644.00 1371.00 674.00 1371.00 704.00 Z"/>
</g>
<g fill="#000000" fill-opacity="0.00" stroke="None">
<path d="
M 996.00 616.00 
C 989.38 634.05 984.17 653.49 978.00 672.00
C 989.67 672.00 1001.33 672.00 1013.00 672.00
C 1006.75 653.54 1000.19 635.03 996.00 616.00 Z"/>
</g>
<g fill="#000000" fill-opacity="0.00" stroke="None">
<path d="
M 1279.00 672.00 
C 1270.96 655.15 1269.37 633.92 1260.00 619.00
C 1255.55 636.97 1248.91 654.25 1244.00 672.00
C 1255.67 672.00 1267.33 672.00 1279.00 672.00 Z"/>
</g>
</svg>